<svg width="22" height="22" viewBox="0 0 22 22" fill="none" xmlns="http://www.w3.org/2000/svg">
<path d="M8.5 5C9.42047 5 10.1667 5.7462 10.1667 6.66667C10.1667 7.58714 9.42047 8.33333 8.5 8.33333C7.57953 8.33333 6.83333 7.58714 6.83333 6.66667C6.83333 5.7462 7.57953 5 8.5 5ZM9.75 8.75H9.45417C8.86273 9.02195 8.16276 9.0337 7.54583 8.75H7.25C6.55964 8.75 6 9.30964 6 10V13.5417C6 13.8868 6.27982 14.1667 6.625 14.1667H7.04167V17.7083C7.04167 18.0535 7.32148 18.3333 7.66667 18.3333H9.33333C9.67852 18.3333 9.95833 18.0535 9.95833 17.7083V14.1667H10.375C10.7202 14.1667 11 13.8868 11 13.5417V10C11 9.30964 10.4404 8.75 9.75 8.75Z" fill="#00DBE9"/>
<path d="M14.5 5C15.4205 5 16.1667 5.7462 16.1667 6.66667C16.1667 7.58714 15.4205 8.33333 14.5 8.33333C13.5795 8.33333 12.8333 7.58714 12.8333 6.66667C12.8333 5.7462 13.5795 5 14.5 5ZM15.75 8.75H15.4542C14.8627 9.02195 14.1628 9.0337 13.5458 8.75H13.25C12.5596 8.75 12 9.30964 12 10V13.5417C12 13.8868 12.2798 14.1667 12.625 14.1667H13.0417V17.7083C13.0417 18.0535 13.3215 18.3333 13.6667 18.3333H15.3333C15.6785 18.3333 15.9583 18.0535 15.9583 17.7083V14.1667H16.375C16.7202 14.1667 17 13.8868 17 13.5417V10C17 9.30964 16.4404 8.75 15.75 8.75Z" fill="#00DBE9"/>
</svg>
