<svg width="39" height="39" viewBox="0 0 39 39" fill="none" xmlns="http://www.w3.org/2000/svg">
<circle cx="19.5" cy="19.5" r="19.5" fill="#DE3D4F"/>
<path fill-rule="evenodd" clip-rule="evenodd" d="M13.1648 27.2539L21.0765 11.038L20.6831 10.2284C20.4623 9.82363 20.1471 9.7493 19.8858 9.75C19.6257 9.75071 19.297 9.92173 19.1498 10.2162L11.4712 25.9905C11.324 26.2971 11.3608 26.6283 11.4958 26.8368C11.6197 27.0284 11.9005 27.2539 12.2317 27.2539H13.1648ZM21.055 19.0972L19.9142 16.7544L15.424 25.9785C15.2645 26.3097 15.3394 26.6693 15.473 26.8739C15.6019 27.0712 15.9146 27.2542 16.1845 27.2542H25.0292L24.0357 25.1812H18.0866L21.055 19.0972ZM26.6927 27.2549L24.9754 23.7345H20.4369L21.4305 21.6861H23.9696L20.7436 15.0624L21.8843 12.7195L28.3723 26.016C28.495 26.2859 28.4336 26.6539 28.2987 26.8624C28.1708 27.06 27.8817 27.2549 27.5873 27.2549H26.6927Z" fill="#00DBE9"/>
</svg>
