<svg width="39" height="39" viewBox="0 0 39 39" fill="none" xmlns="http://www.w3.org/2000/svg">
<circle cx="19.5" cy="19.5" r="19.5" fill="#DE3D4F"/>
<path d="M18.384 18.7375C19.4605 18.2229 20.0225 17.4443 20.0225 16.2323C20.0225 13.8422 18.2418 13.2599 16.1868 13.2599H10.5298V25.2578H16.3459C18.5261 25.2578 20.5743 24.2117 20.5743 21.7742C20.5743 20.2677 19.86 19.1539 18.384 18.7375V18.7375ZM13.167 15.3081H15.6418C16.5931 15.3081 17.4496 15.5755 17.4496 16.6792C17.4496 17.6982 16.7826 18.1078 15.8415 18.1078H13.167V15.3081V15.3081ZM15.9871 23.2198H13.167V19.9156H16.0412C17.2024 19.9156 17.9371 20.3997 17.9371 21.6286C17.9371 22.8406 17.0603 23.2198 15.9871 23.2198V23.2198ZM28.1238 15.0711H23.259V13.8896H28.1238V15.0711V15.0711ZM30.0298 21.0396C30.0298 18.47 28.5267 16.3271 25.8014 16.3271C23.154 16.3271 21.3563 18.3177 21.3563 20.9245C21.3563 23.6294 23.0592 25.4846 25.8014 25.4846C27.8767 25.4846 29.2207 24.5503 29.8673 22.563H27.7616C27.5347 23.3044 26.6004 23.6971 25.8759 23.6971C24.4777 23.6971 23.7431 22.8779 23.7431 21.4865H30.0095C30.0196 21.3443 30.0298 21.1919 30.0298 21.0396ZM23.7465 19.9833C23.8243 18.8424 24.5827 18.1281 25.7269 18.1281C26.9254 18.1281 27.528 18.8323 27.6295 19.9833H23.7465Z" fill="#00DBE9"/>
</svg>
