<svg width="22" height="22" viewBox="0 0 22 22" fill="none" xmlns="http://www.w3.org/2000/svg">
<path d="M10.9458 14.679C8.77017 14.679 7 12.8708 7 10.6483V9.74885C7 9.4183 7.25679 9.1503 7.57365 9.1503C7.89042 9.1503 8.14731 9.41825 8.14731 9.74885V10.6483C8.14731 12.2108 9.40271 13.4819 10.9459 13.4819C12.4891 13.4819 13.7444 12.2108 13.7444 10.6483V9.74885C13.7444 9.4183 14.0012 9.1503 14.3181 9.1503C14.6348 9.1503 14.8917 9.41825 14.8917 9.74885V10.6483C14.8916 12.8708 13.1216 14.679 10.9458 14.679Z" fill="#00DBE9"/>
<path d="M13.2851 16.1454H8.60645V17.3425H13.2851V16.1454Z" fill="#00DBE9"/>
<path d="M11.5145 13.6024H10.3774V16.1508H11.5145V13.6024Z" fill="#00DBE9"/>
<path d="M8.60693 10.243V10.3527C8.60693 11.7008 9.65421 12.7936 10.9462 12.7936C12.2381 12.7936 13.2854 11.7009 13.2854 10.3527V10.243H8.60693Z" fill="#00DBE9"/>
<path d="M10.9462 4.4325C9.65425 4.4325 8.60693 5.52526 8.60693 6.8734V9.43556H13.2854V6.8734C13.2854 5.52526 12.2381 4.4325 10.9462 4.4325ZM9.73458 8.86015C9.5315 8.86015 9.36686 8.68831 9.36686 8.47644C9.36686 8.26452 9.53154 8.09272 9.73458 8.09272C9.93767 8.09272 10.1023 8.26457 10.1023 8.47644C10.1024 8.68835 9.93767 8.86015 9.73458 8.86015ZM9.73458 7.66091C9.5315 7.66091 9.36686 7.48911 9.36686 7.27724C9.36686 7.06528 9.53154 6.89353 9.73458 6.89353C9.93767 6.89353 10.1023 7.06533 10.1023 7.27724C10.1024 7.48916 9.93767 7.66091 9.73458 7.66091ZM9.73458 6.46176C9.5315 6.46176 9.36686 6.28996 9.36686 6.07804C9.36686 5.86613 9.53154 5.69438 9.73458 5.69438C9.93767 5.69438 10.1023 5.86618 10.1023 6.07804C10.1024 6.29001 9.93767 6.46176 9.73458 6.46176ZM10.9598 8.86015C10.7567 8.86015 10.5921 8.68831 10.5921 8.47644C10.5921 8.26452 10.7568 8.09272 10.9598 8.09272C11.1629 8.09272 11.3275 8.26457 11.3275 8.47644C11.3275 8.68835 11.1629 8.86015 10.9598 8.86015ZM10.9598 7.66091C10.7567 7.66091 10.5921 7.48911 10.5921 7.27724C10.5921 7.06528 10.7568 6.89353 10.9598 6.89353C11.1629 6.89353 11.3275 7.06533 11.3275 7.27724C11.3275 7.48916 11.1629 7.66091 10.9598 7.66091ZM10.9598 6.46176C10.7567 6.46176 10.5921 6.28996 10.5921 6.07804C10.5921 5.86613 10.7568 5.69438 10.9598 5.69438C11.1629 5.69438 11.3275 5.86618 11.3275 6.07804C11.3275 6.29001 11.1629 6.46176 10.9598 6.46176ZM12.185 8.86015C11.9819 8.86015 11.8173 8.68831 11.8173 8.47644C11.8173 8.26452 11.982 8.09272 12.185 8.09272C12.3881 8.09272 12.5527 8.26457 12.5527 8.47644C12.5527 8.68835 12.3881 8.86015 12.185 8.86015ZM12.185 7.66091C11.9819 7.66091 11.8173 7.48911 11.8173 7.27724C11.8173 7.06528 11.982 6.89353 12.185 6.89353C12.3881 6.89353 12.5527 7.06533 12.5527 7.27724C12.5527 7.48916 12.3881 7.66091 12.185 7.66091ZM12.185 6.46176C11.9819 6.46176 11.8173 6.28996 11.8173 6.07804C11.8173 5.86613 11.982 5.69438 12.185 5.69438C12.3881 5.69438 12.5527 5.86618 12.5527 6.07804C12.5527 6.29001 12.3881 6.46176 12.185 6.46176Z" fill="#00DBE9"/>
</svg>
