<svg width="22" height="22" viewBox="0 0 22 22" fill="none" xmlns="http://www.w3.org/2000/svg">
<path d="M8.54384 9.45881C8.1651 9.27282 7.91895 8.91421 7.78396 8.52244C7.72805 8.35998 7.68944 8.19164 7.66468 8.02157C7.65363 7.94548 7.64884 7.4303 7.64404 7.35369C7.64005 7.29071 7.64564 7.21583 7.62381 7.15593C7.58228 7.04201 7.34318 6.97569 7.23149 7.00831C7.14496 7.03359 7.14443 7.1455 7.14949 7.21851C7.15708 7.33016 7.15788 7.87863 7.15748 7.99095C7.15668 8.21678 7.15601 8.44262 7.15521 8.66845C7.15415 8.96395 7.15322 9.25932 7.15216 9.55481C7.15096 9.89524 7.14989 10.2357 7.14869 10.5761C7.1475 10.9368 7.1463 11.2977 7.14496 11.6585C7.14377 12.0151 7.14256 12.3715 7.14137 12.7281C7.1403 13.0559 7.13911 13.3836 7.13804 13.7113C7.13711 13.9855 7.13618 14.2598 7.13525 14.534C7.13458 14.7302 7.13391 14.9263 7.13325 15.1225C7.13298 15.2159 7.13258 15.3094 7.13231 15.4029C7.13231 15.4039 7.13138 15.4157 7.13231 15.4162C6.65453 15.1776 5.92461 15.2209 5.23689 15.5802C4.28145 16.0792 3.77212 16.9955 4.09894 17.627C4.42589 18.2585 5.2522 18.3966 6.2075 17.8976C7.00492 17.4811 7.52823 16.772 7.52463 16.1847V10.4257C8.69081 10.39 9.77191 11.8072 9.77191 11.8072C10.8602 13.7322 9.0951 15.6501 9.0951 15.6501C8.97822 16.0138 9.21731 15.937 9.21731 15.937C9.84153 15.5593 10.5667 14.367 10.5667 14.367C12.236 11.5655 8.54384 9.45881 8.54384 9.45881Z" fill="#00DBE9"/>
<path d="M17.896 10.2395C17.8745 10.1709 17.8496 10.1033 17.8225 10.0364C18.0569 9.40704 17.9282 8.90326 17.9282 8.90326C17.6154 7.90801 16.7109 7.08212 15.8405 6.53165C15.1248 6.07884 14.8017 5.96152 14.5902 5.27234C14.5839 5.22204 14.5737 5.17027 14.5573 5.12439C14.5538 5.11462 14.5474 5.10633 14.5415 5.09777C14.5412 5.09656 14.5408 5.09549 14.5405 5.09429C14.5405 5.09482 14.5403 5.09522 14.5403 5.09589C14.4753 5.006 14.285 4.98246 14.185 5.01215C14.0997 5.03744 14.1042 5.13991 14.1042 5.22244C14.1042 5.24023 14.1046 5.25883 14.1048 5.27702L14.088 13.4115C13.617 13.1727 12.8974 13.2386 12.2194 13.5981C11.2775 14.0973 10.7753 15.014 11.0975 15.6458C11.4199 16.2776 12.4446 16.3852 13.3865 15.8859C14.1727 15.4694 14.4785 14.7813 14.4749 14.1936V8.05115C14.6971 8.18438 14.7188 8.211 15.0664 8.37327C16.3111 8.9541 17.7641 10.5077 17.2573 11.9096C17.1898 12.0962 16.982 12.4476 16.891 12.6227C16.6839 13.0208 17.2184 12.9136 17.4327 12.5921C17.911 11.875 18.1523 11.0552 17.896 10.2395ZM15.8083 7.86788C15.3811 7.59767 14.9436 7.26752 14.6024 6.89484C14.713 6.95142 14.8417 6.95102 15.0987 7.03704C16.3995 7.47219 17.2693 8.02613 17.4666 9.35434C17.4666 9.35434 17.4671 9.36678 17.4682 9.38872C17.0401 8.77163 16.4163 8.25247 15.8083 7.86788Z" fill="#00DBE9"/>
</svg>
