<svg width="22" height="22" viewBox="0 0 22 22" fill="none" xmlns="http://www.w3.org/2000/svg">
<path d="M16.3878 4.08477V4.09206L8.75907 5.55142C8.69939 5.5628 8.65665 5.61212 8.65665 5.66918V6.61139V7.56717V14.6972C8.09903 14.4367 7.24674 14.484 6.44388 14.8761C5.32863 15.4207 4.73387 16.4206 5.11556 17.1098C5.49726 17.799 6.71072 17.9162 7.82597 17.3718C8.75689 16.9172 9.36782 16.1434 9.36363 15.5024V7.51887C9.36363 7.46853 9.40139 7.42519 9.45392 7.41527L16.2529 6.11978C16.3227 6.1065 16.388 6.15655 16.388 6.22339V12.8824C15.8302 12.6219 14.9781 12.6692 14.1752 13.0613C13.0598 13.6058 12.4652 14.6058 12.8467 15.295C13.2284 15.9842 14.4419 16.1014 15.5573 15.5569C16.4882 15.1024 17.0539 14.3311 16.9946 13.6875H17V4.12022C17 4.04478 16.9268 3.98802 16.848 4.00217L16.3878 4.08477Z" fill="#00DBE9"/>
</svg>
