<svg width="22" height="22" viewBox="0 0 22 22" fill="none" xmlns="http://www.w3.org/2000/svg">
<path d="M12.0908 4.40737L11.5211 7.7917L11.4269 8.351L11.9869 8.26181L15.5926 7.68707V10.8602L11.8883 10.2697L11.3775 10.1883L11.4179 10.7039L12.0496 18.7571H8.95024L9.58192 10.7039L9.62231 10.1883L9.11154 10.2697L5.40724 10.8602V7.68707L9.01297 8.26181L9.57296 8.351L9.4788 7.7917L8.90902 4.40737H12.0908ZM12.5725 4H8.42748L9.07721 7.85939L5 7.20952V11.3376L9.17578 10.672L8.50964 19.1645H12.4902L11.8241 10.672L16 11.3376V7.20952L11.9228 7.85939L12.5725 4Z" fill="#00DBE9"/>
<path d="M15.1853 8.16462L10.9311 8.84262L11.6091 4.81476H9.39103L10.069 8.84262L5.81494 8.16462V10.3827L10.069 9.70466L9.39103 18.3499H11.6091L10.9311 9.70466L15.1853 10.3827V8.16462Z" fill="#00DBE9"/>
</svg>
