<svg width="22" height="22" viewBox="0 0 22 22" fill="none" xmlns="http://www.w3.org/2000/svg">
<path d="M13.1221 10.7086C12.7683 10.4598 12.1804 10.3572 11.7505 10.3381C11.5245 10.3282 11.4966 10.3702 11.3852 10.2214C11.2817 10.0833 11.2789 9.75446 11.2408 9.58843C11.1446 9.16783 11.0484 8.74732 10.9522 8.32672C11.973 7.75478 12.7381 6.81853 13.0445 5.76644C13.351 4.71435 13.1956 3.55755 12.6195 2.60296C12.4359 2.2986 12.1422 1.98182 11.7604 2.00105C11.4746 2.01544 11.2457 2.21726 11.0715 2.42313C10.5191 3.07582 10.23 3.8902 10.1426 4.70912C10.0552 5.52804 10.1602 6.35514 10.3347 7.16253C10.3513 7.23953 10.3682 7.32077 10.3401 7.39501C10.3095 7.47537 10.2318 7.53206 10.1576 7.58402C9.08181 8.33717 7.92386 9.09625 7.35499 10.2157C7.01745 10.8799 6.91625 11.6411 7.07018 12.3591C7.22878 13.099 7.67698 13.8068 8.37901 14.21C8.83895 14.4742 9.3801 14.597 9.91766 14.6747C10.5983 14.7731 11.3023 14.8046 11.9709 14.6536C12.0479 15.0226 12.1133 15.3937 12.1638 15.7665C12.2037 16.0606 12.244 16.3602 12.2588 16.6583C12.2636 16.7535 12.2552 16.8464 12.2552 16.9412C12.2341 17.1357 12.1503 17.3275 12.0348 17.4915C11.9834 17.5646 11.9244 17.6332 11.8587 17.6961C11.6599 17.8869 11.4097 18.0281 11.1458 18.1328C10.958 18.2073 10.7555 18.2528 10.5506 18.2617C10.4475 18.2662 10.3439 18.2613 10.242 18.2462C10.2338 18.2451 10.2242 18.2435 10.2155 18.2422C10.6231 18.0425 10.9032 17.6564 10.9032 17.2068C10.9032 16.5543 10.32 16.0254 9.60067 16.0254C8.88135 16.0254 8.29814 16.5544 8.29814 17.2068C8.29814 17.4045 8.35684 17.5881 8.45152 17.7519L8.44402 17.7498C8.4625 17.7821 8.48435 17.81 8.50435 17.8401C8.51251 17.8517 8.51914 17.8638 8.52773 17.875C9.21019 18.8528 10.707 18.7992 10.707 18.7992C10.8893 18.8068 11.0827 18.7715 11.2577 18.7307C11.6489 18.6397 12.016 18.462 12.2994 18.1989C12.4347 18.0734 12.5496 17.9305 12.6431 17.777C12.7197 17.6511 12.7876 17.5193 12.8234 17.3786C12.8732 17.1833 12.8574 16.9837 12.8367 16.7862C12.7883 16.3278 12.6946 15.8743 12.5948 15.4215C12.5712 15.3145 12.5476 15.2074 12.524 15.1004C12.4818 14.9091 12.4397 14.7179 12.3975 14.5266C12.3953 14.5169 12.3932 14.5073 12.3911 14.4976C12.3911 14.4976 13.6443 14.1661 13.9054 13.1715C13.9054 13.1713 14.4014 11.6085 13.1221 10.7086ZM10.8767 3.61818C11.388 2.9931 12.4925 3.27054 12.5714 4.04559C12.5714 4.04559 12.727 5.15664 11.6601 6.25694C11.4867 6.47139 11.1179 6.79813 10.688 7.14961L10.5597 6.59719C10.5504 6.55657 10.5444 6.45344 10.5373 6.41243C10.4238 5.75037 10.4048 4.80042 10.4736 4.43257C10.5649 3.94492 10.8767 3.61818 10.8767 3.61818ZM8.80732 13.7905C8.27411 13.3801 7.88592 12.7894 7.85244 12.1558C7.81395 11.4281 8.23389 10.743 8.73699 10.1751C9.24824 9.59799 9.85939 9.09368 10.541 8.68649C10.658 9.14584 10.7749 9.60509 10.892 10.0644C10.9167 10.1612 10.9405 10.2664 10.8947 10.3565C10.8448 10.4548 10.7276 10.5064 10.6228 10.5582C9.85319 10.9385 9.38151 11.702 9.36575 12.49C9.35988 12.7874 9.40912 13.0954 9.58382 13.3472C9.7584 13.5989 10.0783 13.7825 10.4043 13.7506C10.2642 13.7643 10.04 13.2152 10.0089 13.1217C9.92212 12.861 9.90429 12.58 9.95918 12.3121C10.0757 11.7438 10.5501 11.3538 11.1909 11.2995C11.4213 12.241 11.6885 13.359 11.9054 14.3392C11.9065 14.344 11.9074 14.3487 11.9085 14.3536C10.8598 14.6566 9.64654 14.4364 8.80732 13.7905ZM12.3073 14.1767L12.2173 13.7482C12.2151 13.7363 12.2152 13.7244 12.2125 13.7125L11.6487 11.2856C12.0074 11.3029 13.0113 11.4616 13.2714 12.6808C13.2714 12.6808 13.4948 13.598 12.3073 14.1767Z" fill="#00DBE9"/>
</svg>
