<svg width="18" height="18" viewBox="0 0 18 18" fill="none" xmlns="http://www.w3.org/2000/svg">
<path d="M12.4118 9.01151L17.529 4.01213C18.157 3.39863 18.157 2.40395 17.529 1.78996L16.3918 0.678871C15.7638 0.0653763 14.7457 0.0653763 14.1172 0.678871L9 5.67826L3.88278 0.678871C3.25483 0.0653763 2.2367 0.0653763 1.60824 0.678871L0.470966 1.78996C-0.156989 2.40345 -0.156989 3.39813 0.470966 4.01213L5.58818 9.01151L0.470966 14.0109C-0.156989 14.6244 -0.156989 15.6191 0.470966 16.2331L1.60824 17.3442C2.23619 17.9577 3.25483 17.9577 3.88278 17.3442L9 12.3448L14.1172 17.3442C14.7452 17.9577 15.7638 17.9577 16.3918 17.3442L17.529 16.2331C18.157 15.6196 18.157 14.6249 17.529 14.0109L12.4118 9.01151Z" fill="#00DBE9"/>
</svg>
