<svg width="22" height="22" viewBox="0 0 22 22" fill="none" xmlns="http://www.w3.org/2000/svg">
<path d="M5.4 10.25C6.2825 10.25 7 9.57734 7 8.75C7 7.92266 6.2825 7.25 5.4 7.25C4.5175 7.25 3.8 7.92266 3.8 8.75C3.8 9.57734 4.5175 10.25 5.4 10.25ZM16.6 10.25C17.4825 10.25 18.2 9.57734 18.2 8.75C18.2 7.92266 17.4825 7.25 16.6 7.25C15.7175 7.25 15 7.92266 15 8.75C15 9.57734 15.7175 10.25 16.6 10.25ZM17.4 11H15.8C15.36 11 14.9625 11.1664 14.6725 11.4359C15.68 11.9539 16.395 12.8891 16.55 14H18.2C18.6425 14 19 13.6648 19 13.25V12.5C19 11.6727 18.2825 11 17.4 11ZM11 11C12.5475 11 13.8 9.82578 13.8 8.375C13.8 6.92422 12.5475 5.75 11 5.75C9.4525 5.75 8.2 6.92422 8.2 8.375C8.2 9.82578 9.4525 11 11 11ZM12.92 11.75H12.7125C12.1925 11.9844 11.615 12.125 11 12.125C10.385 12.125 9.81 11.9844 9.2875 11.75H9.08C7.49 11.75 6.2 12.9594 6.2 14.45V15.125C6.2 15.7461 6.7375 16.25 7.4 16.25H14.6C15.2625 16.25 15.8 15.7461 15.8 15.125V14.45C15.8 12.9594 14.51 11.75 12.92 11.75ZM7.3275 11.4359C7.0375 11.1664 6.64 11 6.2 11H4.6C3.7175 11 3 11.6727 3 12.5V13.25C3 13.6648 3.3575 14 3.8 14H5.4475C5.605 12.8891 6.32 11.9539 7.3275 11.4359Z" fill="#00DBE9"/>
</svg>
