<svg width="23" height="22" viewBox="0 0 23 22" fill="none" xmlns="http://www.w3.org/2000/svg">
<path fill-rule="evenodd" clip-rule="evenodd" d="M16.3044 5.80956L16.4161 5.70386C16.648 5.48446 16.4586 5.12573 16.6641 4.9111L18.1037 3.40721C18.6034 2.8852 19.8193 4.12786 19.2728 4.60929L17.7296 6.00659C17.5093 6.20587 17.169 5.99489 16.9429 6.22019L16.8215 6.34113L16.3034 6.35983L16.3044 5.80956Z" fill="#00DBE9"/>
<path fill-rule="evenodd" clip-rule="evenodd" d="M9.92674 11.6368L10.8196 12.5548L16.8217 6.34112L16.3046 5.80945L9.92674 11.6368Z" fill="#00DBE9"/>
<path fill-rule="evenodd" clip-rule="evenodd" d="M4.9318 12.2723C3.57308 13.5938 4.09313 15.2869 5.57347 16.8089C7.05376 18.3309 8.68688 18.8516 10.0456 17.5301C10.9126 16.6869 11.0821 15.8003 11.2049 15.1585C11.2745 14.7945 11.329 14.5092 11.4873 14.3553C11.6266 14.2198 11.8395 14.0902 12.0777 13.9453C12.5867 13.6356 13.211 13.2557 13.4792 12.5974C13.8729 11.6312 12.742 10.3975 12.4392 10.0862C12.1365 9.77492 10.9347 8.61026 9.95788 8.97695C9.29244 9.22678 8.89537 9.84029 8.57165 10.3405C8.42015 10.5745 8.28472 10.7838 8.14536 10.9193C7.98711 11.0732 7.70044 11.1199 7.33461 11.1793C6.68969 11.2842 5.79878 11.4291 4.9318 12.2723ZM9.78503 14.2473C9.33824 14.6819 8.61935 14.6719 8.1847 14.2251C7.75013 13.7783 7.76011 13.0593 8.20691 12.6248C8.65375 12.1902 9.37264 12.2002 9.8072 12.647C10.2418 13.0939 10.2319 13.8127 9.78503 14.2473Z" fill="#00DBE9"/>
<path fill-rule="evenodd" clip-rule="evenodd" d="M19.5646 4.93659C19.5274 5.06939 19.3933 5.19982 19.2596 5.23321L19.1097 5.12651C19.0986 4.9442 19.2801 4.76765 19.462 4.78381L19.5646 4.93659Z" fill="#00DBE9"/>
<path fill-rule="evenodd" clip-rule="evenodd" d="M19.1045 4.62759L19.3329 4.91428L19.2431 5.00157L18.9628 4.76536L19.1045 4.62759Z" fill="#00DBE9"/>
<path fill-rule="evenodd" clip-rule="evenodd" d="M19.024 5.46224C18.9869 5.59504 18.8528 5.72547 18.719 5.75886L18.5692 5.65211C18.5581 5.46981 18.7396 5.29325 18.9215 5.30941L19.024 5.46224Z" fill="#00DBE9"/>
<path fill-rule="evenodd" clip-rule="evenodd" d="M18.5635 5.15317L18.7918 5.4399L18.7021 5.52719L18.4218 5.29093L18.5635 5.15317Z" fill="#00DBE9"/>
<path fill-rule="evenodd" clip-rule="evenodd" d="M18.4835 5.98791C18.4464 6.12066 18.3122 6.25114 18.1785 6.28453L18.0286 6.17778C18.0175 5.99547 18.1991 5.81892 18.381 5.83508L18.4835 5.98791Z" fill="#00DBE9"/>
<path fill-rule="evenodd" clip-rule="evenodd" d="M18.0239 5.67889L18.2523 5.96558L18.1625 6.05292L17.8823 5.81666L18.0239 5.67889Z" fill="#00DBE9"/>
<path fill-rule="evenodd" clip-rule="evenodd" d="M17.786 3.10887C17.6522 3.1423 17.5181 3.27273 17.481 3.40549L17.5836 3.55836C17.7656 3.57457 17.9471 3.39801 17.9359 3.21566L17.786 3.10887Z" fill="#00DBE9"/>
<path fill-rule="evenodd" clip-rule="evenodd" d="M18.0824 3.57645L17.8022 3.34019L17.7125 3.42748L17.9408 3.71421L18.0824 3.57645Z" fill="#00DBE9"/>
<path fill-rule="evenodd" clip-rule="evenodd" d="M17.2459 3.63427C17.1121 3.6677 16.978 3.79813 16.941 3.93089L17.0435 4.08372C17.2255 4.09993 17.407 3.92337 17.3959 3.74102L17.2459 3.63427Z" fill="#00DBE9"/>
<path fill-rule="evenodd" clip-rule="evenodd" d="M17.5424 4.10211L17.2621 3.8659L17.1724 3.95319L17.4008 4.23988L17.5424 4.10211Z" fill="#00DBE9"/>
<path fill-rule="evenodd" clip-rule="evenodd" d="M16.7059 4.15994C16.5722 4.19333 16.438 4.3238 16.4009 4.45656L16.5035 4.60939C16.6855 4.62559 16.867 4.44903 16.8559 4.26668L16.7059 4.15994Z" fill="#00DBE9"/>
<path fill-rule="evenodd" clip-rule="evenodd" d="M17.0014 4.62778L16.7211 4.39152L16.6314 4.47885L16.8597 4.76554L17.0014 4.62778Z" fill="#00DBE9"/>
</svg>
