<svg width="22" height="22" viewBox="0 0 22 22" fill="none" xmlns="http://www.w3.org/2000/svg">
<path d="M7.4842 11.5348L7.48389 11.533V11.5339L7.4842 11.5348Z" fill="#00DBE9"/>
<path d="M9.83874 10.5065C9.80248 10.5068 9.78435 10.5057 9.74913 10.5012C9.66108 10.4892 9.58184 10.4588 9.51296 10.423C9.43162 10.3806 9.36119 10.3298 9.29757 10.2762C9.31264 10.2861 9.32799 10.2958 9.34356 10.3054C9.40106 10.3407 9.46263 10.3739 9.52735 10.4009C9.55352 10.4114 9.56676 10.4164 9.59357 10.4252C9.56845 10.4147 9.55612 10.409 9.53201 10.397C9.47167 10.3669 9.41581 10.3312 9.36494 10.2933C9.30319 10.2472 9.24683 10.1975 9.19471 10.1461C9.14269 10.0947 9.09474 10.0413 9.05162 9.98716C9.13091 10.0664 9.22285 10.1417 9.32333 10.2081C9.37718 10.2436 9.43408 10.2772 9.49241 10.3058C9.51588 10.3171 9.5278 10.3225 9.55165 10.3325C9.52977 10.321 9.5189 10.315 9.49743 10.3025C9.44367 10.2712 9.39234 10.2353 9.34475 10.1977C9.26642 10.1355 9.19512 10.0674 9.1315 9.99755C9.09985 9.96263 9.06994 9.92712 9.04399 9.89227C9.03746 9.88348 9.03148 9.87511 9.0255 9.86641L9.00526 9.83723C9.00211 9.83252 8.99901 9.82779 8.99585 9.82305C9.02189 9.75462 9.04486 9.68417 9.06153 9.61141L9.06692 9.58657L9.07108 9.56539C9.07441 9.54907 9.07752 9.53265 9.08012 9.51612C9.08537 9.4831 9.08912 9.44964 9.09099 9.41582C9.09464 9.34813 9.0909 9.27877 9.07542 9.20832C9.07163 9.19116 9.0671 9.17395 9.06185 9.15668C9.07213 9.0814 9.05368 9.00522 9.02029 8.95126C8.98412 8.89275 8.91698 8.83003 8.83102 8.77143C8.82335 8.75915 8.81508 8.74685 8.80563 8.73457C8.78192 8.70375 8.75196 8.67303 8.71474 8.6448C8.70149 8.63472 8.68272 8.62159 8.66048 8.60863C8.63838 8.59559 8.61252 8.58288 8.58777 8.57252C8.53799 8.55171 8.49368 8.54124 8.49359 8.54169C8.49305 8.54235 8.53662 8.55474 8.58393 8.577C8.60759 8.58802 8.63184 8.60127 8.65226 8.61457C8.67281 8.62779 8.68971 8.64083 8.70127 8.65059C8.73461 8.67871 8.76018 8.70848 8.78014 8.73849C8.77046 8.73258 8.76064 8.72672 8.75068 8.72096C8.73917 8.70714 8.72643 8.69344 8.71186 8.68C8.68154 8.65176 8.64358 8.62496 8.59983 8.60267C8.58133 8.59316 8.56178 8.58454 8.54169 8.5768C8.54803 8.57538 8.55247 8.57435 8.55224 8.57429C8.55233 8.57421 8.5474 8.57512 8.54059 8.57638C8.53132 8.57278 8.52191 8.56935 8.51241 8.56618C8.52424 8.56484 8.53511 8.5635 8.53511 8.56333C8.53497 8.56327 8.52255 8.56436 8.50972 8.56533C8.49259 8.55968 8.47519 8.55462 8.45779 8.55026C8.40846 8.5379 8.35909 8.53053 8.31195 8.52656C8.30291 8.52037 8.29355 8.51409 8.28464 8.50826C8.25947 8.49171 8.2413 8.48089 8.24093 8.48098C8.24057 8.48129 8.25801 8.49314 8.28185 8.51043C8.28875 8.5154 8.29592 8.52071 8.30296 8.52596C8.25897 8.52262 8.21686 8.522 8.17662 8.52305C8.16005 8.52345 8.13826 8.52445 8.11542 8.52599C8.09501 8.51928 8.07509 8.51218 8.05577 8.50473C7.97735 8.47461 7.90588 8.43859 7.84477 8.39668C7.83682 8.3912 7.82906 8.38552 7.82143 8.37978C7.81124 8.36445 7.80257 8.34861 7.79544 8.33251C7.79197 8.32463 7.79033 8.32069 7.78717 8.31276C7.78882 8.32098 7.78978 8.32509 7.79192 8.33328C7.79494 8.34396 7.79864 8.35466 7.80293 8.36531C7.79932 8.3624 7.79558 8.35957 7.79211 8.3566C7.78544 8.35109 7.7822 8.34824 7.7758 8.34262C7.78124 8.34872 7.78398 8.35181 7.78982 8.3578C7.79526 8.36345 7.8011 8.36899 7.80695 8.37456C7.80983 8.38098 7.81275 8.38735 7.81609 8.39365C7.81978 8.40071 7.8239 8.4077 7.82828 8.41464C7.8149 8.40641 7.80188 8.39805 7.78928 8.38937C7.78576 8.38692 7.78238 8.38429 7.77882 8.38175C7.77566 8.37736 7.77247 8.37293 7.76954 8.36848C7.75639 8.34875 7.74584 8.328 7.73725 8.30702C7.73387 8.2986 7.73218 8.29437 7.72917 8.2859C7.73059 8.2946 7.73154 8.29894 7.73346 8.30765C7.73803 8.32554 7.74392 8.3435 7.7515 8.36114C7.7478 8.35823 7.7441 8.35532 7.74054 8.35238C7.7326 8.33579 7.72588 8.31887 7.72054 8.30177C7.72282 8.31173 7.72565 8.32163 7.7288 8.33145C7.72985 8.33505 7.73132 8.33856 7.7325 8.3421C7.72584 8.33091 7.72013 8.31949 7.71469 8.30799C7.70368 8.28421 7.69555 8.25955 7.68966 8.23477C7.68738 8.22484 7.68628 8.21984 7.68441 8.20985C7.68432 8.21995 7.68446 8.22498 7.68496 8.23511C7.6856 8.24419 7.68647 8.25335 7.6877 8.26246C7.68048 8.23888 7.67532 8.2147 7.67249 8.19058C7.67112 8.18045 7.67071 8.17539 7.6697 8.16523C7.66897 8.17539 7.66861 8.18048 7.66833 8.19069C7.66792 8.21616 7.66961 8.24185 7.67372 8.2672C7.67692 8.28781 7.68222 8.30842 7.6893 8.32888C7.68574 8.32574 7.6824 8.32246 7.67884 8.31926C7.67103 8.30354 7.66436 8.28755 7.65879 8.27145C7.65555 8.26232 7.65422 8.25775 7.65134 8.24856C7.65285 8.25786 7.65349 8.26252 7.65555 8.27179C7.65806 8.28327 7.66112 8.29474 7.66468 8.30616C7.66349 8.30496 7.66212 8.30382 7.66089 8.30262C7.65376 8.29569 7.6502 8.29218 7.64331 8.28515C7.64874 8.29272 7.65162 8.29646 7.65746 8.30391C7.66107 8.30842 7.66491 8.31287 7.6687 8.31735C7.66897 8.31804 7.66925 8.31872 7.66948 8.31941C7.65326 8.30456 7.63792 8.28918 7.62376 8.27345L7.60768 8.25521C7.61275 8.26292 7.61535 8.26674 7.62074 8.27439C7.63463 8.29337 7.64979 8.31216 7.66614 8.33031C7.67016 8.33477 7.67436 8.33919 7.67852 8.34361C7.68094 8.34921 7.68336 8.35483 7.6861 8.3604C7.67619 8.35261 7.66651 8.34464 7.65714 8.33656L7.63951 8.32103C7.64554 8.32766 7.6486 8.33094 7.65486 8.33751C7.66692 8.34978 7.67975 8.3618 7.693 8.37359C7.7003 8.38726 7.70871 8.40076 7.71812 8.41404C7.70492 8.4059 7.69213 8.39745 7.67957 8.38877C7.67815 8.38697 7.67665 8.38515 7.67518 8.38332C7.65838 8.36137 7.64394 8.3383 7.63216 8.31498C7.62741 8.30565 7.62508 8.30094 7.62083 8.29152C7.62376 8.30108 7.62554 8.30588 7.6291 8.31544C7.63659 8.33465 7.64577 8.35378 7.65655 8.37247C7.65573 8.3719 7.65495 8.37127 7.65418 8.37076C7.64705 8.36354 7.64034 8.3562 7.6344 8.34864C7.62837 8.34102 7.62558 8.33711 7.62029 8.32928C7.62403 8.33759 7.62604 8.34173 7.63075 8.34992C7.6428 8.37028 7.6592 8.39023 7.6792 8.40895C7.67975 8.40947 7.6803 8.40993 7.6808 8.41041C7.69204 8.426 7.7046 8.44133 7.71862 8.45617C7.68062 8.4371 7.6465 8.41538 7.61828 8.39083C7.59626 8.37179 7.57777 8.35084 7.56361 8.32886C7.55785 8.32006 7.5552 8.31561 7.55032 8.30659C7.55347 8.31595 7.55529 8.32063 7.5595 8.32991C7.57037 8.35292 7.5858 8.37553 7.60503 8.39679C7.61015 8.40256 7.61563 8.40821 7.62143 8.41378C7.61115 8.40641 7.60142 8.39876 7.5922 8.39083C7.58832 8.38675 7.58448 8.38264 7.58087 8.37847C7.56598 8.36131 7.55342 8.3433 7.54365 8.32469C7.5484 8.33548 7.55411 8.34607 7.56055 8.35649C7.56292 8.36026 7.5653 8.36402 7.56795 8.36773C7.55698 8.35629 7.54716 8.34441 7.53853 8.33214C7.52058 8.30682 7.50789 8.27961 7.50021 8.2519C7.49711 8.24079 7.49578 8.23517 7.49368 8.22398C7.49354 8.23531 7.49377 8.24102 7.49482 8.25238C7.49592 8.26263 7.4977 8.27291 7.50017 8.28318C7.48916 8.25692 7.48277 8.22952 7.48067 8.20217C7.47971 8.19067 7.47948 8.18493 7.47939 8.17343C7.47751 8.18487 7.47687 8.19067 7.47605 8.2022C7.47436 8.23106 7.47706 8.2604 7.48496 8.28918C7.49423 8.323 7.51131 8.35646 7.53657 8.38789C7.53022 8.38187 7.52433 8.37567 7.51857 8.36939C7.49752 8.34607 7.48089 8.32072 7.46874 8.29477C7.46395 8.28435 7.46176 8.2791 7.45787 8.26854C7.46025 8.27927 7.46171 8.28464 7.46514 8.29531C7.47427 8.32192 7.48793 8.34827 7.50615 8.37322C7.54721 8.43031 7.61522 8.47978 7.69615 8.51634C7.6877 8.51369 7.67952 8.51092 7.67144 8.50795C7.64189 8.49582 7.61344 8.4822 7.5869 8.4669C7.54607 8.44093 7.51446 8.40944 7.49268 8.37481C7.47742 8.35066 7.46701 8.32466 7.46125 8.2982C7.45893 8.28758 7.45801 8.28224 7.45655 8.27154C7.45582 8.28241 7.45573 8.28789 7.45618 8.29883C7.45774 8.32603 7.46399 8.35343 7.47541 8.37975C7.4756 8.38021 7.47587 8.38064 7.4761 8.38109C7.46582 8.37016 7.45623 8.35894 7.44774 8.34738C7.43997 8.33668 7.43623 8.33125 7.42947 8.32029C7.43481 8.33154 7.43787 8.33711 7.4444 8.34818C7.45673 8.36825 7.47185 8.3878 7.48925 8.40639C7.51273 8.44564 7.5499 8.48229 7.60261 8.51146C7.51172 8.47207 7.44837 8.41124 7.41572 8.3439C7.40206 8.31615 7.39366 8.28684 7.39 8.25738C7.3885 8.24556 7.388 8.23965 7.38749 8.2278C7.38576 8.23968 7.38516 8.24567 7.38462 8.25766C7.38366 8.28755 7.38749 8.31792 7.39644 8.34758C7.39887 8.35557 7.40161 8.3636 7.40485 8.3715C7.3975 8.36037 7.39096 8.34898 7.38526 8.33742C7.38325 8.33168 7.38146 8.32592 7.37982 8.32015C7.37315 8.29637 7.36959 8.27205 7.36904 8.24779C7.36826 8.26163 7.36845 8.27553 7.36968 8.28938C7.37009 8.29437 7.37069 8.29937 7.37142 8.30439C7.36571 8.28826 7.36146 8.27191 7.35867 8.25541C7.35264 8.22135 7.35292 8.1863 7.35899 8.1517C7.36137 8.13783 7.36288 8.13092 7.36644 8.11713C7.36009 8.13058 7.3573 8.1374 7.35233 8.15113C7.34808 8.16355 7.34447 8.17611 7.34168 8.18878C7.34333 8.1553 7.35045 8.12141 7.36292 8.08844C7.36808 8.07463 7.371 8.06772 7.37735 8.05405C7.36877 8.06724 7.36475 8.07394 7.35735 8.0875C7.33954 8.12147 7.32707 8.1569 7.32022 8.19258C7.31232 8.23451 7.31232 8.2775 7.32209 8.32032C7.31857 8.31173 7.31538 8.30311 7.31259 8.2944C7.30236 8.26214 7.29765 8.22877 7.29793 8.19563C7.29802 8.18233 7.29839 8.17568 7.29953 8.16238C7.29647 8.17557 7.29523 8.18219 7.29332 8.19549C7.28911 8.22875 7.28975 8.26254 7.2956 8.29591C7.30272 8.33636 7.31812 8.37678 7.34383 8.41552C7.36941 8.45417 7.40567 8.49108 7.45299 8.52274C7.3737 8.47755 7.31679 8.4186 7.28167 8.35623C7.26272 8.3228 7.24993 8.28764 7.24266 8.25235C7.23979 8.23819 7.23865 8.23106 7.23696 8.21681C7.23682 8.23106 7.23709 8.2382 7.23828 8.2525C7.2418 8.28815 7.25079 8.32395 7.266 8.3588C7.2908 8.41606 7.33383 8.47253 7.39914 8.52003C7.44189 8.55148 7.49487 8.57809 7.55296 8.59796C7.54118 8.59901 7.52931 8.60001 7.51821 8.6009L7.4756 8.60426C7.46413 8.60509 7.4565 8.60566 7.45664 8.60583C7.4566 8.60598 7.4645 8.60586 7.47605 8.60558C7.48665 8.60526 7.50227 8.60469 7.5193 8.60389C7.53365 8.60326 7.54908 8.60244 7.56402 8.60158C7.58274 8.60763 7.60202 8.61277 7.62152 8.61739C7.61599 8.61948 7.61038 8.62153 7.60508 8.62362C7.58169 8.63272 7.55127 8.64429 7.52643 8.65453C7.51067 8.65439 7.5004 8.6543 7.50044 8.65453C7.50053 8.65473 7.50921 8.65533 7.52268 8.65607C7.50702 8.66261 7.494 8.66852 7.48715 8.67277C7.4618 8.68842 7.43248 8.76617 7.35612 8.78741C7.29843 8.80346 7.21234 8.79004 7.14648 8.79561C6.99023 8.80879 6.91665 8.83742 6.98927 8.93482C6.9294 8.9733 6.89131 9.0093 6.94999 9.06585C6.89016 9.05848 6.87569 9.07949 6.83207 9.08223C6.83193 9.17772 6.68331 9.18037 6.6486 9.25419C6.53584 9.10841 6.45495 8.94575 6.33414 8.79561C6.218 8.65122 6.13373 8.49976 5.99347 8.35341C5.81247 8.1646 5.57315 7.95602 5.35145 7.77199C5.28349 7.71558 5.12898 7.62212 5.12866 7.57545C5.12857 7.55678 5.18013 7.52253 5.20736 7.48539C5.2359 7.44631 5.25134 7.41174 5.27285 7.38714C5.30057 7.35534 5.33474 7.33104 5.36461 7.30524C5.46609 7.21743 5.55634 7.13828 5.63969 7.05138C5.66294 7.02718 5.71455 6.99657 5.73145 6.96949C5.743 6.95102 5.71989 6.94302 5.71834 6.92036C5.71784 6.91328 5.76557 6.88916 5.71834 6.8794C5.65874 6.87383 5.63627 6.88516 5.61352 6.89578C5.52368 6.93774 5.43805 7.01356 5.3515 7.07596C5.26326 7.13947 5.18484 7.22851 5.03704 7.23156C5.02471 7.15124 5.10021 7.04453 4.9715 7.04319C4.86143 7.04208 4.90555 7.13354 4.87975 7.21515C4.85695 7.28737 4.76958 7.33807 4.78803 7.37894C4.73154 7.36028 4.73332 7.31432 4.67015 7.33798C4.60073 7.36399 4.65472 7.41131 4.64394 7.51816C4.63375 7.61838 4.52487 7.80519 4.56529 7.91943C4.57689 7.95217 4.64092 7.98191 4.68322 8.02587C4.72085 8.06504 4.7525 8.11519 4.77493 8.1487C4.88938 8.31929 4.98269 8.51455 5.10254 8.66461C5.17328 8.75324 5.2723 8.81739 5.33834 8.88572C5.51117 9.06442 5.56209 9.24785 5.67902 9.48353C5.74456 9.61561 5.86093 9.7939 5.94104 9.93392C5.97278 9.98938 6.02617 10.0609 6.01964 10.0895C6.00284 10.163 5.7568 10.2396 5.63969 10.2861C5.48884 10.3458 5.31359 10.4148 5.24663 10.4744C5.05892 10.6413 5.24184 10.8079 5.23357 11.0067C5.23083 11.0719 5.18877 11.1461 5.16803 11.2196C5.1473 11.2932 5.12505 11.3708 5.1156 11.4489C5.09614 11.6105 5.11944 11.7866 5.10258 11.9566C5.09537 12.0292 5.06376 12.0962 5.06326 12.1696C5.06239 12.2827 5.07527 12.4092 5.08947 12.5299C5.10331 12.6474 5.13588 12.8317 5.16808 12.9311C5.17561 12.9544 5.17306 12.9767 5.18118 12.9966C5.19831 13.0388 5.22613 13.0671 5.22046 13.1031C5.20955 13.1724 5.04339 13.2448 4.97155 13.2996C4.87075 13.3766 4.8032 13.4394 4.73569 13.5044C4.49372 13.7372 4.38146 13.9961 4.17228 14.2168C4.10212 14.2909 4.02288 14.3613 3.94958 14.4379C3.81909 14.5741 3.66038 14.7664 3.6744 14.9784C3.68289 15.1068 3.80187 15.219 3.87093 15.306C4.00361 15.4732 4.00516 15.663 4.0675 15.8956C4.10295 16.028 4.1293 16.1696 4.15926 16.3133C4.18968 16.4594 4.24202 16.6073 4.2248 16.7473C4.20955 16.8705 4.15867 16.9645 4.06755 17.083C3.99895 17.1723 3.8944 17.2863 3.75309 17.3287C3.66937 17.3538 3.52669 17.3691 3.3862 17.386C3.24832 17.4026 3.08289 17.4232 3.04558 17.4597C2.99095 17.5131 2.98967 17.6451 3.01936 17.6726C3.0622 17.7124 3.30043 17.716 3.46485 17.7218C3.64946 17.7282 3.84695 17.7272 3.98895 17.73C4.36337 17.7373 4.71537 17.7788 4.98479 17.7382C5.03257 17.7309 5.06979 17.7096 5.08961 17.7054C5.15241 17.692 5.20183 17.7028 5.23371 17.689C5.30436 17.2886 5.16054 16.9023 5.12884 16.4771C5.09765 16.0579 5.22768 15.61 5.05024 15.2569C5.02855 15.2137 4.96794 15.1575 4.93231 15.1013C4.89879 15.0484 4.84426 14.9622 4.85371 14.9211C4.86536 14.8703 4.94944 14.8652 5.02403 14.8147C5.04978 14.7972 5.06627 14.7686 5.08957 14.7492C5.27262 14.5967 5.53209 14.4934 5.75776 14.3643C5.95602 14.2508 6.13972 14.1367 6.34739 14.0367C6.51076 14.2749 6.7832 14.4921 6.9763 14.7492C7.06966 14.8734 7.17206 14.9965 7.27765 15.1177C7.37973 15.2348 7.50464 15.3401 7.63148 15.4534C7.75612 15.5649 7.84554 15.687 7.94593 15.8138C8.04495 15.939 8.14438 16.0654 8.23417 16.1904C8.41695 16.4449 8.61038 16.7413 8.64034 17.0503C8.64897 17.1391 8.65052 17.2097 8.64034 17.2878C8.63504 17.3292 8.59489 17.3888 8.588 17.4515C8.58512 17.4776 8.61248 17.5256 8.60111 17.5498C8.58708 17.5797 8.50053 17.6084 8.4439 17.6563C8.40138 17.6921 8.34027 17.7572 8.32597 17.7955C8.30579 17.8495 8.32579 18.0003 8.36525 18.0248C8.40718 18.0508 8.54 18.0508 8.62728 18.0493C9.09236 18.0413 9.29839 17.9237 9.47893 17.7545C9.57147 17.6678 9.67227 17.6207 9.64925 17.5253C9.74516 17.4928 9.76137 17.5052 9.78028 17.4679C9.79846 17.4321 9.73488 17.2637 9.70168 17.1813C9.66208 17.0832 9.60513 16.9898 9.57064 16.9193C9.47976 16.7332 9.40988 16.548 9.3479 16.3788C9.20956 16.0007 9.07099 15.6379 8.83691 15.3306C8.61526 15.0396 8.18462 14.7828 8.09008 14.4297C8.03303 14.2168 8.0339 14.0082 7.99836 13.8074C7.94735 13.519 7.8555 13.2599 7.73629 13.0294C7.6634 12.8884 7.59138 12.7784 7.47427 12.6691C7.43906 12.6362 7.3024 12.5481 7.2908 12.5217C7.27971 12.4963 7.29944 12.4532 7.2908 12.4398C7.27719 12.4185 7.21864 12.3925 7.18603 12.3743C7.05847 12.3031 6.9425 12.237 6.87153 12.1286C6.70715 11.8776 6.87875 11.5565 7.02627 11.37C7.02791 11.4039 7.03303 11.4379 7.04344 11.4715C7.05833 11.5197 7.08409 11.5669 7.12072 11.6101C7.13561 11.6274 7.14821 11.6398 7.16123 11.652C7.17443 11.6641 7.18822 11.6759 7.20795 11.6909C7.19119 11.6744 7.17982 11.6617 7.16909 11.6488C7.15858 11.6359 7.14844 11.6228 7.13707 11.605C7.1162 11.573 7.10154 11.5397 7.09268 11.5061C7.11181 11.5491 7.14077 11.5904 7.17863 11.6281C7.21636 11.666 7.2629 11.7002 7.31455 11.7308C7.35863 11.756 7.3821 11.7676 7.43075 11.7893C7.38612 11.7645 7.36479 11.7514 7.32552 11.724C7.27697 11.6896 7.2354 11.652 7.20467 11.612C7.1737 11.572 7.1536 11.5296 7.14387 11.4867C7.12058 11.3855 7.15123 11.2816 7.19676 11.1789C7.1916 11.2006 7.18717 11.2222 7.18375 11.2436C7.1705 11.3227 7.17091 11.4011 7.19937 11.4707C7.20517 11.4846 7.21042 11.4948 7.21613 11.5048C7.22179 11.5148 7.22805 11.5246 7.2375 11.5373C7.23047 11.5241 7.22613 11.514 7.22225 11.5037C7.21837 11.4935 7.21494 11.4832 7.21165 11.4692C7.19407 11.3995 7.20471 11.3242 7.22947 11.2482C7.25016 11.1846 7.2798 11.1198 7.31149 11.0534C7.31332 11.0515 7.31524 11.0495 7.31707 11.0476C7.31748 11.0473 7.31784 11.0468 7.31816 11.0464L7.3135 11.0568C7.29702 11.0942 7.28277 11.1316 7.27066 11.1699C7.24189 11.2627 7.22403 11.3605 7.23198 11.4644C7.2338 11.4852 7.23613 11.501 7.23901 11.5169C7.24043 11.5248 7.24207 11.5328 7.24408 11.5414L7.24742 11.555L7.24879 11.5604C7.24879 11.5601 7.24874 11.5598 7.24879 11.5597L7.24874 11.5582V11.5578L7.24869 11.5576V11.5575V11.5575V11.5575C7.24938 11.5597 7.2507 11.564 7.25043 11.5632L7.25034 11.5622L7.24938 11.5547L7.24783 11.541C7.247 11.5322 7.24636 11.5241 7.246 11.5162C7.24518 11.5002 7.2449 11.4843 7.24577 11.4636C7.24965 11.3601 7.27984 11.2643 7.32136 11.1747C7.3373 11.1406 7.35497 11.1076 7.37438 11.0747C7.36922 11.0939 7.36429 11.1129 7.35986 11.1317C7.34104 11.2106 7.32908 11.287 7.33625 11.3527C7.33958 11.3788 7.34251 11.3912 7.35036 11.4145C7.34744 11.391 7.34694 11.3787 7.34812 11.353C7.35095 11.2883 7.37274 11.2147 7.40225 11.1382C7.42663 11.0751 7.456 11.009 7.48423 10.9396C7.4924 10.9195 7.5004 10.899 7.50821 10.8783C7.55191 10.8232 7.59864 10.7706 7.64531 10.7191C7.57991 10.8134 7.51702 10.9113 7.47386 11.0157L7.466 11.0354L7.45929 11.0532C7.45445 11.0652 7.44906 11.0793 7.44445 11.092C7.43504 11.1181 7.42677 11.1444 7.41969 11.1709C7.40567 11.2239 7.39631 11.2777 7.39352 11.3323C7.39124 11.3772 7.39293 11.4229 7.40087 11.4691C7.40485 11.4922 7.41028 11.5154 7.41759 11.5386L7.4196 11.5456C7.42093 11.5501 7.42207 11.5531 7.42344 11.5568C7.42609 11.5637 7.42896 11.5704 7.43207 11.5767C7.43833 11.5894 7.44527 11.6013 7.45267 11.6128C7.46477 11.6311 7.47468 11.644 7.4851 11.6567C7.49546 11.6694 7.50624 11.6819 7.52154 11.698C7.50885 11.6809 7.50008 11.6678 7.49176 11.6546C7.48341 11.6413 7.4755 11.6279 7.46619 11.6093C7.46039 11.5977 7.45509 11.5857 7.45052 11.5731C7.44828 11.5668 7.44623 11.5604 7.44449 11.5536L7.44203 11.5429L7.44143 11.54L7.44116 11.538L7.44107 11.537L7.44102 11.5367L7.44098 11.5366C7.44125 11.5374 7.44043 11.5347 7.44162 11.5384V11.5384L7.44148 11.5378L7.44111 11.5356C7.43709 11.5125 7.43495 11.4896 7.4344 11.4669C7.43326 11.4214 7.43842 11.3768 7.44783 11.3334C7.45303 11.3099 7.45952 11.2868 7.46696 11.2638C7.46345 11.2982 7.46212 11.3327 7.46377 11.3673C7.46249 11.384 7.46185 11.4008 7.46199 11.4177C7.46226 11.4525 7.46605 11.4876 7.47413 11.5228L7.47573 11.5294L7.47655 11.5328L7.47674 11.5334C7.47665 11.5332 7.4766 11.5331 7.47646 11.5327V11.5328L7.47655 11.5332L7.47692 11.5348C7.47724 11.5366 7.47815 11.5403 7.47879 11.5425L7.48108 11.5499C7.48427 11.5595 7.4882 11.5688 7.49259 11.5777C7.50135 11.5958 7.51181 11.6128 7.52328 11.6294C7.51154 11.6101 7.50122 11.5903 7.49327 11.5694C7.48934 11.5589 7.48624 11.5485 7.48405 11.5367C7.48368 11.535 7.48363 11.5341 7.48345 11.5328L7.48341 11.5323L7.48336 11.5321V11.532C7.4835 11.5324 7.48354 11.5326 7.48363 11.5328L7.4835 11.532L7.48318 11.5301L7.48194 11.5226C7.48108 11.5176 7.48057 11.5125 7.47984 11.5076C7.47815 11.4932 7.47697 11.4788 7.47665 11.4645C7.4792 11.4762 7.48231 11.4877 7.48578 11.4994C7.48747 11.5052 7.48953 11.5109 7.49135 11.5167L7.49729 11.5332C7.50615 11.5589 7.52077 11.5809 7.53684 11.6026C7.57069 11.6468 7.61243 11.6879 7.65961 11.7266C7.70711 11.765 7.76 11.8015 7.82376 11.831C7.84961 11.8426 7.87066 11.8501 7.89295 11.8564C7.91519 11.8624 7.93899 11.8679 7.97302 11.8689C7.93936 11.8656 7.91752 11.8585 7.89697 11.8512C7.8766 11.8436 7.85769 11.8349 7.8349 11.822C7.79384 11.7988 7.75909 11.7721 7.72789 11.7441C7.77484 11.7776 7.82741 11.8093 7.88843 11.8305C7.91871 11.8408 7.95192 11.8482 7.98366 11.8474C8.01545 11.847 8.04381 11.8374 8.06509 11.8222C8.08286 11.8094 8.09272 11.7974 8.10168 11.7853C8.11031 11.7731 8.11771 11.7603 8.12524 11.7427C8.11465 11.7597 8.10519 11.7718 8.09464 11.7831C8.084 11.7943 8.07222 11.8051 8.05395 11.8155C8.03097 11.8287 8.00617 11.8337 7.98014 11.8316C7.95379 11.8297 7.92542 11.8207 7.89907 11.8087C7.84595 11.7842 7.80005 11.7492 7.76059 11.7129C7.71442 11.6699 7.675 11.6228 7.64801 11.5758C7.64143 11.5642 7.63568 11.5525 7.63152 11.5414C7.62947 11.536 7.62778 11.5306 7.62673 11.5256L7.626 11.522C7.62586 11.5208 7.626 11.5209 7.62558 11.5187L7.62536 11.5174L7.62526 11.5167L7.62467 11.5148L7.62463 11.5146L7.62458 11.5143L7.62412 11.512L7.62321 11.5073C7.6207 11.4939 7.61901 11.4805 7.61791 11.4669C7.6207 11.4693 7.62353 11.4717 7.62659 11.4742C7.62339 11.4709 7.62051 11.4677 7.61782 11.4646C7.61695 11.4535 7.61636 11.4424 7.61631 11.4313C7.6207 11.452 7.62641 11.4724 7.63371 11.4924C7.63536 11.497 7.63705 11.5016 7.63892 11.5062L7.64029 11.5096L7.64102 11.5113L7.64139 11.5122L7.64152 11.5126L7.64235 11.5153L7.64303 11.5172L7.6434 11.5182L7.64363 11.5185L7.64445 11.5203C7.64737 11.5267 7.65171 11.5342 7.65682 11.542C7.6671 11.5576 7.68048 11.5741 7.69523 11.5903C7.72492 11.6227 7.7605 11.6545 7.79896 11.6832C7.83029 11.7057 7.84701 11.7165 7.88048 11.7348C7.85066 11.7143 7.83604 11.7026 7.80896 11.6785C7.77516 11.6483 7.74479 11.6152 7.7209 11.5823C7.70907 11.5659 7.69889 11.5493 7.69213 11.5345C7.68875 11.5272 7.68628 11.5202 7.68528 11.515C7.68505 11.5142 7.6851 11.5139 7.68514 11.5138C7.68528 11.5141 7.68487 11.5121 7.68459 11.511L7.68446 11.5105L7.6835 11.507L7.68331 11.5062L7.6829 11.5045L7.68213 11.5012C7.68108 11.4968 7.68016 11.4923 7.67934 11.4878C7.67856 11.4836 7.6782 11.4793 7.67751 11.4751C7.6982 11.4892 7.7215 11.5018 7.74675 11.5125C7.77311 11.5236 7.79439 11.5304 7.81609 11.5367C7.82284 11.5386 7.82983 11.5404 7.83691 11.5422C7.85482 11.5593 7.86728 11.57 7.89081 11.5882C7.87368 11.571 7.86354 11.5602 7.85185 11.5459C7.86354 11.5486 7.87619 11.5513 7.89085 11.5541C7.87455 11.5497 7.86089 11.5456 7.84838 11.5416C7.8465 11.5392 7.84449 11.5367 7.84244 11.534C7.83234 11.5212 7.82421 11.5084 7.82056 11.5009C7.81965 11.4991 7.8191 11.4978 7.81892 11.4972L7.81883 11.4969H7.81878C7.81878 11.4969 7.81883 11.4969 7.81878 11.4969L7.81782 11.497L7.81604 11.4972L7.80905 11.4987L7.79859 11.5007C7.79955 11.5016 7.8006 11.5028 7.80193 11.5044C7.80809 11.5119 7.81814 11.5236 7.82988 11.5354C7.82654 11.5342 7.82316 11.533 7.81988 11.5318C7.79978 11.5243 7.78014 11.5163 7.75671 11.504C7.72259 11.4866 7.69482 11.4658 7.67368 11.443C7.66861 11.3782 7.67751 11.311 7.69546 11.2441C7.69546 11.2444 7.69542 11.2448 7.69537 11.2452C7.69455 11.2766 7.69592 11.2921 7.70341 11.3202C7.70154 11.2918 7.70291 11.2766 7.70894 11.2459C7.72058 11.1897 7.74767 11.131 7.78242 11.0728C7.78229 11.0734 7.78206 11.0741 7.78192 11.0747L7.77882 11.0877L7.77745 11.0942L7.77708 11.0959L7.77694 11.0963L7.77571 11.0999L7.77548 11.1008L7.77448 11.1045C7.7716 11.1149 7.77009 11.122 7.76799 11.1313C7.76594 11.1401 7.76411 11.149 7.76247 11.1579C7.74913 11.2287 7.74575 11.2993 7.75539 11.3654C7.76059 11.4008 7.7695 11.4351 7.78252 11.4667C7.78567 11.4747 7.78923 11.4824 7.79297 11.49L7.79434 11.4929V11.4929C7.79809 11.4918 7.77735 11.4981 7.76639 11.5014C7.8671 11.4786 7.79412 11.4951 7.81672 11.49V11.4899L7.81668 11.4899L7.81659 11.4897L7.8165 11.4893L7.81631 11.4886L7.81586 11.4872C7.81344 11.4797 7.81124 11.4721 7.80942 11.4643C7.80188 11.4332 7.79859 11.3999 7.799 11.3658C7.79978 11.3095 7.8101 11.2504 7.82746 11.1912C7.8318 11.1764 7.83655 11.1616 7.84175 11.1468L7.85984 11.0975C7.87012 11.0689 7.88254 11.0399 7.8967 11.0105C7.90748 10.988 7.91949 10.9652 7.93205 10.9422C7.93981 10.9581 7.94822 10.9737 7.9573 10.9892C7.9315 11.0407 7.9099 11.0913 7.89574 11.1395C7.88738 11.1698 7.88437 11.1847 7.88131 11.2126C7.88962 11.1854 7.89519 11.1709 7.90821 11.1417C7.92588 11.1018 7.94899 11.0606 7.97544 11.0187C7.98156 11.028 7.98727 11.0363 7.99297 11.0444C7.99046 11.0502 7.98781 11.056 7.98539 11.0619C7.98809 11.0564 7.99092 11.0509 7.99371 11.0454C7.99389 11.0456 7.99398 11.0458 7.99416 11.046L8.01408 11.0732C8.00362 11.1112 7.99471 11.1496 7.98868 11.1883C7.98147 11.2361 7.97799 11.2846 7.98471 11.3333C7.98772 11.3527 7.99165 11.3673 7.99667 11.3817C8.00197 11.3961 8.00818 11.4106 8.02097 11.429C8.0117 11.4098 8.00837 11.3951 8.00576 11.3806C8.00348 11.3661 8.00234 11.3517 8.00284 11.3325C8.00357 11.2981 8.00992 11.2639 8.01883 11.2302C8.01499 11.2749 8.01517 11.3201 8.02696 11.3637C8.03303 11.3855 8.04207 11.4068 8.05669 11.4261C8.07117 11.4453 8.0919 11.462 8.11853 11.4727C8.14114 11.4815 8.16096 11.4845 8.18096 11.4861C8.20106 11.4876 8.22193 11.4873 8.24979 11.4843C8.22161 11.4854 8.2012 11.484 8.18224 11.4813C8.16343 11.4783 8.14575 11.474 8.12734 11.4648C8.10428 11.4533 8.08848 11.4365 8.07811 11.4173C8.06774 11.3981 8.06272 11.3767 8.06075 11.355C8.05705 11.3114 8.06491 11.2662 8.07701 11.2218C8.08985 11.1754 8.10789 11.1292 8.12862 11.0833C8.1373 11.0941 8.14616 11.1049 8.15511 11.1157C8.14726 11.1496 8.14109 11.1834 8.13767 11.2166C8.13511 11.2478 8.13465 11.2634 8.13662 11.2932C8.13977 11.2635 8.14274 11.2482 8.15004 11.2174C8.15639 11.1911 8.16448 11.1645 8.17384 11.1379C8.21143 11.182 8.25166 11.2255 8.29697 11.267C8.31647 11.2844 8.33177 11.2972 8.34767 11.3097C8.36361 11.3222 8.37996 11.3345 8.40339 11.3501C8.38316 11.3328 8.36927 11.3194 8.35589 11.3059C8.34251 11.2924 8.32976 11.2787 8.31378 11.2601C8.28473 11.2269 8.25911 11.1926 8.23536 11.1579C8.27418 11.201 8.31606 11.2432 8.36338 11.2827C8.4107 11.3221 8.46372 11.3591 8.52538 11.3876C8.55141 11.3993 8.57215 11.4068 8.59343 11.4131C8.61467 11.4193 8.63659 11.4246 8.6666 11.4286C8.63755 11.4225 8.61709 11.4158 8.59745 11.4083C8.57786 11.4007 8.55909 11.3922 8.53593 11.3792C8.47793 11.3468 8.43047 11.3062 8.38923 11.2633C8.36073 11.2336 8.33529 11.2025 8.31172 11.1709C8.31789 11.1483 8.32241 11.1336 8.33118 11.1077C8.33187 11.1057 8.33255 11.1037 8.33324 11.1017C8.36082 11.1317 8.37553 11.1469 8.40549 11.1754C8.38005 11.1448 8.36795 11.129 8.34447 11.0968C8.34232 11.0938 8.34018 11.0908 8.33803 11.0878C8.35511 11.0392 8.37594 10.9899 8.39932 10.9415L8.41819 10.9626L8.45363 11.0011L8.42426 10.9609L8.41029 10.9415L8.40375 10.9322C8.40823 10.9233 8.41271 10.9143 8.41732 10.9053C8.42938 10.9339 8.44459 10.9622 8.46349 10.9894C8.494 11.0338 8.53429 11.0755 8.5822 11.1128C8.60161 11.1277 8.61709 11.1383 8.63289 11.1487C8.64879 11.159 8.66509 11.169 8.68779 11.1817C8.6677 11.1673 8.65345 11.1562 8.63965 11.1448C8.62595 11.1335 8.61266 11.1219 8.59645 11.106C8.56694 11.0775 8.54201 11.0473 8.52232 11.0161C8.58759 11.0942 8.68711 11.1598 8.8001 11.2118C8.84797 11.2333 8.8729 11.2433 8.92378 11.262C8.87638 11.24 8.85327 11.2285 8.80956 11.2043C8.75516 11.1741 8.70547 11.1411 8.66395 11.1052C8.63664 11.0818 8.61298 11.0571 8.59311 11.0317C8.60905 11.0464 8.62307 11.0579 8.63796 11.0688C8.65518 11.0811 8.67336 11.0932 8.70159 11.1068C8.67605 11.0912 8.66057 11.0781 8.64591 11.0648C8.63157 11.0514 8.61846 11.0376 8.6033 11.0187C8.59005 11.0023 8.57836 10.9855 8.56777 10.9685C8.57571 10.9735 8.5838 10.9785 8.59206 10.9834C8.61015 11.0037 8.63002 11.0232 8.65244 11.0415C8.67628 11.0607 8.70305 11.0783 8.73356 11.092C8.76384 11.1057 8.79832 11.1148 8.83349 11.1162C8.86299 11.1173 8.88514 11.114 8.90634 11.1093C8.92744 11.1043 8.94799 11.0976 8.97334 11.0862C8.94607 11.0958 8.92479 11.1009 8.90373 11.1041C8.88268 11.1071 8.86149 11.1086 8.83532 11.1057C8.77252 11.0988 8.72173 11.0655 8.68327 11.027C8.69195 11.0303 8.70127 11.0336 8.71214 11.0371C8.69843 11.0314 8.68738 11.0261 8.67738 11.021C8.6671 11.0102 8.65765 10.999 8.64888 10.9876C8.65066 10.9885 8.65244 10.9894 8.65427 10.9904C8.70433 11.015 8.7621 11.0348 8.82271 11.0383C8.84797 11.0397 8.86683 11.0383 8.88501 11.0358C8.90319 11.0331 8.921 11.0291 8.94301 11.0214C8.91972 11.0275 8.90172 11.0301 8.88373 11.0314C8.86578 11.0326 8.84774 11.0326 8.82449 11.0297C8.76612 11.0226 8.71346 10.9994 8.66852 10.9717C8.64819 10.9591 8.62929 10.9454 8.61143 10.9311C8.60316 10.9167 8.59553 10.9021 8.58859 10.8874C8.58384 10.8725 8.58028 10.8573 8.57749 10.842C8.58074 10.8447 8.58402 10.8475 8.58731 10.8502C8.61499 10.872 8.62947 10.8825 8.65938 10.9015C8.63303 10.8806 8.62043 10.8694 8.59658 10.8462C8.58914 10.8389 8.58183 10.8316 8.57471 10.8241C8.57151 10.8006 8.57005 10.7767 8.57041 10.7524C8.57055 10.7442 8.57101 10.736 8.57137 10.7277C8.57315 10.7319 8.57484 10.736 8.57667 10.7401C8.59567 10.7824 8.61819 10.824 8.64431 10.8634C8.66596 10.8946 8.67765 10.91 8.70305 10.9381C8.68277 10.9085 8.67368 10.8926 8.65728 10.8605C8.63682 10.8203 8.62024 10.7781 8.6075 10.7357C8.60339 10.722 8.59978 10.7082 8.59649 10.6944C8.60197 10.7001 8.60759 10.7058 8.61326 10.7114C8.63582 10.7332 8.64783 10.7439 8.6724 10.7641C8.65167 10.7424 8.64157 10.7312 8.6228 10.7084C8.61115 10.6944 8.60024 10.6801 8.59024 10.666C8.5875 10.6519 8.58544 10.6379 8.5838 10.6242C8.60873 10.5782 8.63194 10.5319 8.65308 10.4852C8.65619 10.4783 8.65916 10.4713 8.66217 10.4644L8.66112 10.5153C8.66066 10.5533 8.66085 10.5906 8.66267 10.6267C8.6666 10.7041 8.67788 10.7777 8.70556 10.8381C8.71711 10.862 8.72383 10.8733 8.73904 10.8943C8.72844 10.8724 8.7241 10.861 8.71707 10.8368C8.69935 10.7762 8.69843 10.7044 8.70556 10.6284C8.70588 10.6248 8.70638 10.6211 8.7067 10.6175C8.71008 10.627 8.71383 10.6367 8.71789 10.6465C8.72575 10.6655 8.73456 10.6847 8.74424 10.7037C8.76023 10.7342 8.76918 10.7493 8.78814 10.7784C8.77434 10.7484 8.76809 10.7329 8.75703 10.7021C8.75009 10.6828 8.74402 10.6634 8.73904 10.6444C8.7341 10.6255 8.73018 10.6067 8.72817 10.5908L8.72703 10.5798L8.72675 10.5729L8.7289 10.5502C8.73109 10.5304 8.7341 10.5105 8.73794 10.4905C8.74434 10.4574 8.75279 10.424 8.76297 10.3902C8.77813 10.4098 8.79476 10.4291 8.81339 10.4481C8.83468 10.4689 8.84609 10.4791 8.87131 10.4988C8.84934 10.4776 8.83952 10.4667 8.82166 10.4448C8.80134 10.4197 8.78448 10.394 8.77005 10.3682C8.77256 10.3604 8.77494 10.3527 8.77759 10.3449C8.79996 10.382 8.82709 10.4188 8.86181 10.4537C8.84057 10.4301 8.82289 10.4058 8.80773 10.3814C8.80225 10.3725 8.79709 10.3636 8.7922 10.3547C8.8139 10.3825 8.83828 10.4097 8.86646 10.4354C8.8956 10.4618 8.92899 10.4869 8.96735 10.509C9.00563 10.531 9.04897 10.5499 9.09597 10.5639C9.13388 10.5746 9.1537 10.5788 9.1938 10.585C9.15512 10.5758 9.13644 10.5702 9.10145 10.5572C9.07007 10.5453 9.0413 10.5311 9.0154 10.5153C9.05267 10.5336 9.09419 10.5485 9.13822 10.5592C9.18225 10.5699 9.22874 10.5763 9.27555 10.579C9.31492 10.5808 9.33479 10.5807 9.37421 10.5792C9.33479 10.5781 9.31511 10.5769 9.27683 10.5726C9.2292 10.5672 9.18334 10.5577 9.14173 10.5441C9.10008 10.5305 9.06277 10.5129 9.03057 10.4924C8.95452 10.4441 8.90519 10.3812 8.86911 10.3154C8.87916 10.3283 8.88967 10.3409 8.90081 10.3531C8.9416 10.3985 8.99111 10.44 9.05011 10.4702C9.074 10.482 9.08647 10.4873 9.11232 10.4964C9.08839 10.4855 9.07706 10.4795 9.05569 10.4664C9.00248 10.4335 8.96082 10.3908 8.9284 10.3447C8.89204 10.2929 8.86551 10.2365 8.84271 10.1784C8.8481 10.1658 8.85363 10.1531 8.85916 10.1404C8.8814 10.1796 8.9051 10.2175 8.93168 10.253C8.96603 10.2987 9.00545 10.3412 9.04966 10.3739C9.06751 10.3869 9.07679 10.3927 9.09547 10.4031C9.07925 10.3914 9.07135 10.385 9.05619 10.3712C9.01801 10.3366 8.98572 10.2933 8.959 10.2469C8.9531 10.2366 8.94744 10.2262 8.94196 10.2156C8.94991 10.2239 8.95785 10.2321 8.96598 10.2404C9.0133 10.2878 9.06487 10.3348 9.122 10.3803C9.1452 10.3984 9.15713 10.4074 9.18193 10.425C9.15977 10.4058 9.14918 10.3962 9.12858 10.3767C9.07734 10.3285 9.03226 10.2788 8.99247 10.229C8.95534 10.1825 8.92177 10.1354 8.89149 10.0877C8.88971 10.0849 8.88811 10.0821 8.88633 10.0793C8.88688 10.0782 8.88734 10.077 8.88788 10.0759C8.89076 10.0695 8.89359 10.063 8.89647 10.0566C8.91401 10.0774 8.93228 10.098 8.95123 10.1183C9.00408 10.1746 9.06249 10.229 9.12684 10.2809C9.17996 10.3236 9.23737 10.3655 9.30058 10.4046C9.32616 10.42 9.33931 10.4276 9.36644 10.4423C9.34178 10.4258 9.3299 10.4175 9.30693 10.4005C9.24966 10.3582 9.19892 10.3134 9.1537 10.2679C9.14155 10.2555 9.12972 10.2432 9.11826 10.2306C9.13904 10.2474 9.16041 10.2639 9.18238 10.2801C9.19202 10.2884 9.20184 10.2967 9.21184 10.305C9.25285 10.3388 9.29739 10.3718 9.34603 10.4028C9.31963 10.3843 9.29469 10.3653 9.27108 10.3459C9.26263 10.3389 9.25422 10.3318 9.24596 10.3247C9.27743 10.3458 9.31017 10.3662 9.34438 10.3856C9.41518 10.4254 9.49291 10.4624 9.57992 10.489C9.61508 10.4991 9.63322 10.5037 9.67035 10.5106C9.63477 10.5009 9.61773 10.4951 9.58512 10.4827C9.55585 10.4714 9.52808 10.4587 9.50177 10.4452C9.57635 10.4756 9.65989 10.5003 9.74735 10.507C9.78416 10.5094 9.80275 10.5093 9.83874 10.5065ZM7.69131 8.40307C7.69108 8.40285 7.69094 8.40265 7.69076 8.40245C7.69355 8.40459 7.69647 8.40667 7.69935 8.40881C7.6966 8.40693 7.69391 8.40504 7.69131 8.40307ZM4.90628 7.89499C4.90427 7.87461 4.92683 7.86961 4.93245 7.85403C4.96196 7.87381 4.97945 7.9011 4.98488 7.93593C4.95524 7.92442 4.94181 7.90278 4.90628 7.89499ZM8.03413 10.9558C8.02974 10.9644 8.02559 10.9732 8.02147 10.9819C8.01851 10.9754 8.01581 10.9689 8.01307 10.9623C8.01755 10.9559 8.02198 10.9494 8.02659 10.943C8.0291 10.9473 8.03148 10.9515 8.03413 10.9558ZM7.99955 10.8924C7.99736 10.897 7.99526 10.9017 7.99311 10.9063C7.99138 10.9005 7.98946 10.8946 7.98795 10.8889C7.98516 10.8784 7.98288 10.868 7.98078 10.8575C7.98147 10.8564 7.98211 10.8553 7.98279 10.8541C7.98786 10.867 7.99343 10.8797 7.99955 10.8924ZM8.34639 8.55996C8.34653 8.55999 8.34671 8.56002 8.34685 8.56005C8.34689 8.56007 8.34689 8.56008 8.34694 8.5601C8.34676 8.56005 8.34657 8.55999 8.34639 8.55996ZM8.36708 8.56578C8.36612 8.56507 8.36512 8.56433 8.36411 8.56361C8.37242 8.56536 8.38156 8.56747 8.39129 8.56987C8.38832 8.56987 8.38535 8.56984 8.38238 8.56984C8.37841 8.56881 8.37443 8.56784 8.37046 8.56687C8.36932 8.56647 8.36822 8.5661 8.36708 8.56578ZM8.45358 8.59022H8.45345C8.45052 8.58928 8.44755 8.58842 8.44463 8.58751C8.44623 8.58728 8.44783 8.58705 8.44947 8.58682C8.45217 8.58774 8.45491 8.58868 8.4576 8.58965C8.45619 8.58982 8.45491 8.59002 8.45358 8.59022ZM8.44043 8.58625C8.43879 8.58574 8.4371 8.58522 8.43545 8.58474C8.43554 8.58474 8.43582 8.58474 8.43577 8.58474C8.43577 8.58471 8.4355 8.58471 8.43527 8.58468C8.43394 8.58425 8.43257 8.58385 8.43125 8.58348C8.43331 8.58325 8.43536 8.58303 8.43737 8.5828C8.44034 8.58374 8.44322 8.58474 8.44614 8.58577C8.44418 8.58591 8.44239 8.58608 8.44043 8.58625ZM8.42632 8.58197C8.42499 8.58157 8.42367 8.58114 8.42234 8.58074C8.42371 8.58063 8.42513 8.58054 8.4265 8.5804C8.42732 8.58034 8.42828 8.58029 8.42915 8.58023C8.43052 8.58066 8.43189 8.58106 8.43326 8.58148C8.43093 8.58166 8.42865 8.5818 8.42632 8.58197ZM8.41102 8.5776C8.4085 8.57689 8.40604 8.5762 8.40353 8.57552C8.40608 8.57538 8.40855 8.5752 8.41111 8.57506C8.41385 8.5758 8.41659 8.57652 8.41933 8.57732C8.41659 8.5774 8.4138 8.57749 8.41102 8.5776ZM8.46144 8.59282C8.46249 8.59262 8.46359 8.59242 8.46464 8.59225C8.47405 8.59573 8.48291 8.59927 8.49131 8.60278C8.4814 8.59935 8.4714 8.59604 8.46144 8.59282ZM8.5648 8.61086C8.59604 8.62736 8.62349 8.64643 8.64705 8.66661C8.62842 8.65773 8.60937 8.64919 8.59005 8.64097C8.5722 8.62996 8.55306 8.61971 8.53296 8.61057C8.51935 8.60415 8.50053 8.59667 8.47975 8.58953C8.48875 8.58785 8.49775 8.58614 8.50661 8.58434C8.52712 8.59239 8.54744 8.60161 8.5648 8.61086ZM8.48989 8.578C8.49428 8.5796 8.49871 8.58131 8.50314 8.58303C8.49341 8.5846 8.48359 8.58605 8.47363 8.58745C8.47071 8.58645 8.46765 8.58551 8.46464 8.58454C8.46884 8.58388 8.47167 8.5834 8.47162 8.58328C8.47162 8.58323 8.46806 8.58357 8.46304 8.58405C8.45957 8.58294 8.45614 8.58191 8.45258 8.58086C8.45632 8.58034 8.45865 8.58 8.45856 8.57989C8.45852 8.57983 8.45541 8.58 8.4508 8.58031C8.44934 8.57986 8.44792 8.57943 8.44637 8.57903C8.45756 8.57817 8.46751 8.57732 8.46751 8.57723C8.46751 8.57717 8.4592 8.57763 8.4492 8.57812L8.45221 8.57777C8.45911 8.57709 8.47035 8.57578 8.48003 8.5746C8.48332 8.57572 8.4866 8.57686 8.48989 8.578ZM8.47742 8.57369C8.46806 8.57443 8.45779 8.57523 8.45167 8.57558C8.44687 8.57589 8.44194 8.57612 8.4371 8.57638C8.43408 8.57552 8.43098 8.57472 8.42796 8.57392C8.44153 8.57295 8.455 8.57186 8.46838 8.57067C8.4713 8.57166 8.47436 8.57266 8.47742 8.57369ZM8.42138 8.55719C8.43225 8.55993 8.44605 8.5637 8.46107 8.56838C8.44431 8.56912 8.42737 8.56955 8.41029 8.56975C8.40896 8.56947 8.40755 8.5691 8.40618 8.56881C8.38864 8.5649 8.37242 8.56196 8.359 8.55982C8.35662 8.55811 8.35434 8.55636 8.35205 8.55471C8.34634 8.55057 8.33922 8.54549 8.33136 8.54001C8.36105 8.54415 8.3911 8.54971 8.42138 8.55719ZM8.31935 8.53844C8.32885 8.54569 8.33739 8.55237 8.34379 8.55756C8.33963 8.55699 8.33602 8.55654 8.33305 8.55619C8.33241 8.55605 8.33187 8.55585 8.33127 8.55571C8.322 8.55431 8.31278 8.55325 8.3035 8.55203C8.27784 8.54712 8.25221 8.54298 8.22677 8.53989C8.22179 8.53564 8.21782 8.5323 8.2154 8.53039C8.24906 8.53144 8.28386 8.53393 8.31935 8.53844ZM8.17649 8.52962C8.18886 8.52965 8.20161 8.52993 8.21444 8.53033C8.21618 8.53213 8.21956 8.5355 8.22353 8.53944C8.20069 8.53673 8.17804 8.53478 8.15562 8.5337C8.14986 8.53341 8.14415 8.53336 8.13844 8.53316C8.13538 8.53221 8.13219 8.5313 8.12917 8.53036C8.14712 8.52982 8.1637 8.52953 8.17649 8.52962ZM7.94388 8.47552C7.91867 8.46425 7.89455 8.45214 7.87121 8.43944C7.85925 8.42765 7.84842 8.41552 7.83856 8.40305C7.86948 8.42899 7.90451 8.45346 7.94388 8.47552ZM7.78009 8.48352C7.77799 8.48272 7.77594 8.48192 7.77388 8.48112C7.7653 8.47455 7.75708 8.46782 7.74908 8.46094C7.75502 8.4645 7.7611 8.46804 7.76731 8.47147C7.77146 8.47552 7.77571 8.47955 7.78009 8.48352ZM7.75676 8.37302C7.75845 8.37678 7.76036 8.38052 7.76224 8.38426L7.75995 8.38244C7.75973 8.38226 7.75954 8.38206 7.75936 8.38192C7.75511 8.37638 7.75086 8.37087 7.74703 8.36519C7.74643 8.36411 7.74593 8.363 7.74534 8.36191C7.74917 8.36562 7.75283 8.36936 7.75676 8.37302ZM6.97644 9.45909C6.93282 9.47685 6.93474 9.52232 6.89779 9.5246C6.83814 9.52828 6.75479 9.40574 6.72748 9.369C6.81412 9.39675 6.88934 9.43166 6.97644 9.45909ZM7.87998 10.0573C7.84495 10.1331 7.81325 10.2097 7.7853 10.287C7.78032 10.3009 7.77548 10.3149 7.77069 10.3289C7.77439 10.301 7.77489 10.2731 7.77155 10.2455C7.80444 10.1828 7.8397 10.1205 7.87866 10.0591C7.87939 10.0579 7.88012 10.0569 7.8808 10.0558C7.88048 10.0563 7.88025 10.0568 7.87998 10.0573ZM7.96639 10.9676C7.95936 10.9499 7.9531 10.9321 7.94776 10.9143C7.9558 10.9001 7.96402 10.8858 7.97256 10.8714C7.97722 10.8866 7.98256 10.9017 7.98854 10.9168C7.98092 10.9337 7.97347 10.9506 7.96639 10.9676ZM7.98325 11.0068C7.99197 10.9932 8.00106 10.9797 8.01047 10.9661C8.01353 10.9724 8.01682 10.9785 8.0201 10.9847C8.01211 11.0014 8.00448 11.0182 7.99718 11.0351C7.9927 11.0264 7.98813 11.0173 7.98325 11.0068ZM8.02189 11.0463C8.0196 11.0539 8.01746 11.0616 8.01531 11.0693L8.00179 11.044C8.00056 11.0417 7.99928 11.0393 7.99809 11.0369C8.00613 11.0213 8.01444 11.0059 8.02303 10.9905C8.02641 10.9967 8.03011 11.0029 8.03372 11.009C8.0296 11.0214 8.02568 11.0338 8.02189 11.0463ZM8.03408 11.0081C8.03079 11.0015 8.02741 10.9949 8.02431 10.9883C8.02906 10.9798 8.0339 10.9713 8.03878 10.9629C8.04111 10.9666 8.04353 10.9702 8.04591 10.9738C8.04185 10.9852 8.03787 10.9966 8.03408 11.0081ZM8.19572 10.9769C8.19471 10.9799 8.19371 10.983 8.1927 10.986C8.19001 10.9813 8.18749 10.9766 8.18498 10.972C8.1906 10.9618 8.19631 10.9516 8.2022 10.9414C8.20362 10.9435 8.20499 10.9455 8.20645 10.9475C8.20284 10.9573 8.19905 10.9671 8.19572 10.9769ZM8.31976 11.1061C8.31501 11.132 8.31273 11.147 8.31035 11.1689C8.3004 11.1555 8.29067 11.142 8.2814 11.1284C8.26272 11.101 8.24513 11.0733 8.22801 11.0453L8.21855 11.0295C8.22486 11.0159 8.23139 11.0023 8.23819 10.9888L8.28112 11.0413C8.29496 11.0579 8.30894 11.0742 8.32314 11.0902C8.322 11.0955 8.32081 11.1009 8.31976 11.1061ZM8.32702 11.0723C8.31844 11.0601 8.30994 11.0479 8.30158 11.0354L8.28067 11.0039L8.26021 10.9724C8.2576 10.9683 8.25541 10.9642 8.25294 10.9602C8.27226 10.9233 8.293 10.8868 8.31497 10.8509C8.32301 10.8855 8.32871 10.904 8.34338 10.9394C8.33456 10.9039 8.33168 10.8853 8.32903 10.8521C8.32954 10.8526 8.32999 10.8531 8.3305 10.8537C8.34333 10.8736 8.35799 10.8931 8.37407 10.9125C8.35543 10.9654 8.33927 11.0194 8.32702 11.0723ZM8.388 10.8742C8.38521 10.8814 8.38261 10.8887 8.37991 10.896C8.36448 10.8708 8.35192 10.8455 8.34205 10.8199C8.34137 10.8171 8.34063 10.8142 8.33995 10.8116C8.34616 10.8024 8.35233 10.7933 8.35836 10.7853C8.36014 10.7873 8.36196 10.7894 8.36379 10.7915C8.36507 10.819 8.36836 10.8467 8.37425 10.8746C8.3706 10.8489 8.36945 10.8235 8.36977 10.7983C8.37658 10.8058 8.38361 10.8133 8.39074 10.8208C8.39284 10.8302 8.39517 10.8396 8.39777 10.849C8.39453 10.8573 8.39119 10.8657 8.388 10.8742ZM8.54497 10.9278C8.54365 10.9252 8.54233 10.9227 8.54105 10.9201C8.54196 10.9208 8.54287 10.9215 8.54383 10.9222C8.54685 10.9264 8.54991 10.9307 8.55301 10.9349C8.55032 10.9325 8.54758 10.9302 8.54497 10.9278Z" fill="#00DBE9"/>
<path d="M7.2499 11.5658L7.24964 11.5641L7.24902 11.5606C7.24908 11.5611 7.24918 11.5617 7.24918 11.5622C7.24969 11.5647 7.25006 11.5666 7.2499 11.5658Z" fill="#00DBE9"/>
<path d="M7.76636 11.5019L7.76784 11.5014L7.76611 11.5019H7.76636Z" fill="#00DBE9"/>
<path d="M7.79855 11.5008C7.79816 11.5003 7.79799 11.5001 7.79771 11.4999C7.79766 11.4999 7.7976 11.4998 7.79755 11.4998V11.5008L7.7976 11.5018L7.79766 11.5023C7.7976 11.5024 7.7971 11.5025 7.79688 11.5026L7.79911 11.5018C7.79894 11.5015 7.79872 11.501 7.79855 11.5008Z" fill="#00DBE9"/>
<path d="M7.78955 11.5022C7.78854 11.5022 7.78763 11.5022 7.78662 11.5021L7.78814 11.5022L7.78955 11.5022Z" fill="#00DBE9"/>
<path d="M7.24854 11.5571C7.24878 11.558 7.24891 11.5587 7.24915 11.5598C7.24878 11.5583 7.24878 11.5578 7.24854 11.5571Z" fill="#00DBE9"/>
<path d="M7.24857 11.5581L7.24861 11.5586L7.2489 11.5606C7.2489 11.561 7.24964 11.5653 7.25023 11.5688C7.2499 11.5666 7.2496 11.5642 7.24942 11.5625C7.24916 11.561 7.24879 11.5593 7.24854 11.558L7.24857 11.5581Z" fill="#00DBE9"/>
<path d="M7.79397 11.5017C7.79414 11.5016 7.79439 11.5016 7.79451 11.5015C7.79259 11.5024 7.79062 11.5025 7.78857 11.5024L7.79075 11.5025L7.79397 11.5017Z" fill="#00DBE9"/>
<path d="M7.76599 11.5015L7.76701 11.5015L7.76895 11.5016L7.77277 11.5017L7.78052 11.5019L7.78676 11.5021C7.78492 11.502 7.78304 11.5019 7.7812 11.5019L7.7659 11.5014C7.75859 11.5037 7.75563 11.5046 7.76599 11.5015Z" fill="#00DBE9"/>
<path d="M18.9363 8.24347C18.9169 8.21486 18.8975 8.18384 18.8793 8.15446C18.764 7.96852 18.6495 7.78448 18.5186 7.61466C18.3839 7.43962 18.2506 7.28288 18.0821 7.12231C18.021 7.0641 17.9635 6.98766 17.9587 6.94436C17.9523 6.88727 17.999 6.82247 18.0156 6.75453C18.024 6.7203 18.0257 6.68625 18.0346 6.65368C18.048 6.60486 18.0623 6.56698 18.0631 6.5291C18.0632 6.51788 18.0801 6.50929 18.0821 6.49942C18.1018 6.40028 18.0567 6.38963 17.9871 6.3274C17.9504 6.29463 17.8967 6.26103 17.8828 6.23249C17.8683 6.20286 17.8821 6.16666 17.8733 6.13757C17.8666 6.11582 17.8524 6.09515 17.8448 6.07232C17.8271 6.01974 17.8261 6.00098 17.7973 5.97146C17.7643 5.93761 17.7324 5.89425 17.6834 5.8884C17.6764 5.91018 17.6525 5.90801 17.6455 5.92399C17.6218 5.97806 17.7112 6.01982 17.6929 6.06041C17.61 6.03118 17.5302 6.00004 17.4367 5.97737C17.4479 6.00698 17.4204 6.02016 17.4272 6.04263C17.4483 6.11222 17.6157 6.10295 17.617 6.17908C17.5176 6.1897 17.4502 6.14893 17.3703 6.1672C17.3862 6.20109 17.3911 6.22555 17.4367 6.24433C17.479 6.26172 17.5474 6.25495 17.598 6.26805C17.6407 6.2791 17.6967 6.31047 17.6929 6.32737C17.668 6.34364 17.622 6.3135 17.6075 6.35112C17.5928 6.38934 17.668 6.37904 17.6739 6.42231C17.6785 6.45568 17.6069 6.51797 17.5506 6.51723C17.3981 6.51523 17.4057 6.29118 17.2279 6.29774C17.1958 6.29894 17.1466 6.30816 17.133 6.33334C17.1002 6.39405 17.2268 6.43856 17.2658 6.48757C17.2854 6.51209 17.2923 6.55023 17.3133 6.58248C17.3362 6.61768 17.3653 6.64962 17.3703 6.67146C17.3769 6.70081 17.3614 6.74017 17.3703 6.76637C17.3931 6.83346 17.5311 6.88341 17.5696 6.93245C17.5897 6.95809 17.5924 6.9924 17.6075 7.02737C17.6208 7.05808 17.644 7.08474 17.6644 7.11634C17.702 7.17441 17.7268 7.23972 17.7594 7.30023C17.8911 7.54541 17.9907 7.81017 18.1105 8.05361C18.1728 8.18018 18.2639 8.29191 18.3478 8.39173C18.2341 8.43107 18.1396 8.48125 18.0441 8.54596C18.0234 8.55995 17.9994 8.57657 17.9735 8.59389C17.9729 8.59369 17.9725 8.59358 17.9719 8.59338C17.9603 8.58793 17.9479 8.5833 17.9373 8.57674C17.9037 8.5581 17.8748 8.5348 17.8474 8.51014C17.8382 8.49073 17.8326 8.46969 17.8255 8.45222C17.7975 8.38291 17.7834 8.31118 17.7528 8.24241C17.7251 8.18004 17.6854 8.12015 17.6489 8.05969C17.6173 8.00748 17.5656 7.9648 17.527 7.91448C17.4652 7.83392 17.2709 7.75225 17.1273 7.77127C17.0441 7.78226 16.9725 7.81685 16.8853 7.8096C16.8363 7.80555 16.7944 7.812 16.7481 7.82562C16.7044 7.83843 16.6995 7.83155 16.6518 7.8259C16.5329 7.81174 16.4081 7.84317 16.3065 7.89064C16.3171 7.88351 16.3318 7.87369 16.3315 7.8736C16.3312 7.87346 16.3071 7.8877 16.2971 7.89358C16.2909 7.89707 16.2848 7.90069 16.2787 7.90437C16.2447 7.92204 16.2136 7.94134 16.1872 7.96104C16.1848 7.96286 16.1827 7.96478 16.1804 7.96663C16.0976 8.02087 16.0189 8.07568 15.9409 8.12263C15.8545 8.17339 15.7593 8.22905 15.6659 8.26336C15.6372 8.27421 15.6077 8.28372 15.5788 8.29048C15.5673 8.29359 15.5616 8.29465 15.5504 8.29696C15.5624 8.29588 15.5687 8.29539 15.5811 8.29339C15.6121 8.28903 15.6446 8.28175 15.6769 8.27313C15.7374 8.25711 15.7977 8.23459 15.855 8.20861C15.79 8.24806 15.7207 8.28417 15.6474 8.31149C15.6173 8.32297 15.5856 8.33179 15.5542 8.33887C15.5417 8.34126 15.5354 8.34335 15.5228 8.34509C15.536 8.34472 15.5426 8.34326 15.556 8.34206C15.5893 8.33764 15.6239 8.33127 15.6577 8.32237L15.6851 8.315C15.6453 8.33219 15.604 8.3472 15.5608 8.35802C15.5241 8.36718 15.4856 8.37358 15.4474 8.37475C15.4321 8.37549 15.4245 8.37492 15.4091 8.37529C15.4243 8.37669 15.4319 8.37809 15.4476 8.37897C15.4867 8.38137 15.5282 8.37854 15.569 8.37281C15.6185 8.3659 15.6674 8.35385 15.7145 8.33858C15.7067 8.34669 15.7009 8.35265 15.6942 8.35805C15.6935 8.35836 15.6929 8.35865 15.6922 8.35899C15.6598 8.37352 15.6242 8.38577 15.5871 8.39616C15.5719 8.3999 15.5648 8.40264 15.5491 8.40566C15.5654 8.40398 15.5729 8.40192 15.5889 8.39935C15.6064 8.39587 15.6237 8.39193 15.6409 8.38765C15.628 8.39404 15.6157 8.40101 15.6045 8.40857C15.5548 8.43415 15.5097 8.46841 15.4863 8.51185C15.4791 8.52687 15.472 8.54237 15.47 8.55827C15.47 8.5585 15.47 8.5587 15.4699 8.55892C15.455 8.57157 15.4412 8.58413 15.4295 8.59598C15.4164 8.60757 15.4032 8.61956 15.3899 8.6292C15.3847 8.63314 15.3822 8.63586 15.3769 8.63911C15.3832 8.63631 15.3862 8.63386 15.3924 8.63035C15.408 8.62155 15.4237 8.61039 15.4394 8.59966C15.4619 8.58376 15.4845 8.56669 15.5098 8.54942C15.5095 8.55133 15.5093 8.55327 15.509 8.55521C15.4817 8.58022 15.4607 8.60483 15.4376 8.62718C15.425 8.63862 15.4127 8.65098 15.3987 8.66043C15.3933 8.66446 15.3906 8.66651 15.3853 8.67057C15.3916 8.66708 15.3948 8.66529 15.4012 8.66172C15.4175 8.65332 15.4324 8.64182 15.4479 8.63129L15.4601 8.62207C15.4446 8.63882 15.4295 8.65524 15.4115 8.6692C15.397 8.68176 15.3799 8.69255 15.3611 8.70054C15.3537 8.70377 15.3499 8.70542 15.3423 8.70882C15.3506 8.70633 15.3548 8.70513 15.3634 8.70265C15.3845 8.69634 15.405 8.68667 15.4231 8.67531C15.4569 8.65572 15.4854 8.6312 15.5138 8.60671L15.4827 8.64513C15.4705 8.65815 15.4592 8.67191 15.444 8.68401C15.4383 8.68898 15.4355 8.69155 15.4296 8.69657C15.4364 8.69212 15.4398 8.68984 15.4465 8.68527C15.464 8.67419 15.4779 8.66135 15.4929 8.64924C15.5077 8.63645 15.5216 8.62327 15.5353 8.61016C15.5374 8.6155 15.5397 8.62084 15.5419 8.62612C15.5407 8.62789 15.5394 8.62963 15.5382 8.6314C15.5333 8.63814 15.5284 8.64493 15.5234 8.65175C15.5212 8.65218 15.5193 8.6529 15.5181 8.65458C15.519 8.65478 15.5198 8.65518 15.5205 8.65564C15.5158 8.66183 15.5109 8.66803 15.5053 8.67425C15.5004 8.68001 15.498 8.68293 15.493 8.68872C15.499 8.68336 15.5019 8.6807 15.5078 8.67533C15.5133 8.67039 15.5184 8.66543 15.5233 8.66049C15.5238 8.66206 15.524 8.66391 15.5241 8.66597C15.5171 8.67351 15.5102 8.6811 15.5033 8.68846C15.4663 8.7286 15.4285 8.76674 15.3842 8.79006C15.3714 8.79805 15.3565 8.80219 15.3432 8.80759C15.3374 8.8089 15.3344 8.80947 15.3287 8.81084C15.335 8.81018 15.3382 8.80995 15.3448 8.80924C15.3596 8.8051 15.3768 8.80208 15.3921 8.79503C15.4224 8.78392 15.4507 8.76608 15.4767 8.74596C15.4497 8.77433 15.4194 8.79996 15.3828 8.8178C15.3681 8.82554 15.3513 8.83088 15.3342 8.83547C15.3277 8.83793 15.3236 8.83776 15.3164 8.83916C15.324 8.83856 15.3284 8.83907 15.3354 8.83733C15.3538 8.83422 15.3726 8.83028 15.3901 8.82369C15.3949 8.822 15.4004 8.82097 15.4046 8.8186C15.3848 8.83008 15.363 8.83953 15.339 8.84675C15.3178 8.85152 15.296 8.85694 15.2721 8.85751C15.2626 8.85825 15.2579 8.85865 15.2484 8.85942C15.2579 8.85965 15.2627 8.85974 15.2723 8.86C15.2968 8.86151 15.3204 8.8582 15.3444 8.85534C15.3865 8.84843 15.4251 8.83253 15.4588 8.81272C15.4452 8.82331 15.4318 8.83473 15.4146 8.84352C15.3976 8.8538 15.3774 8.86174 15.3559 8.8687C15.3477 8.87204 15.3427 8.87236 15.3338 8.87458C15.3432 8.87315 15.3483 8.87321 15.3571 8.87056C15.3799 8.8651 15.4022 8.85851 15.422 8.8494C15.4444 8.8397 15.4643 8.82802 15.4821 8.81532C15.4817 8.81675 15.4815 8.81809 15.4811 8.81943C15.4635 8.83425 15.4459 8.84846 15.428 8.86151C15.3809 8.89736 15.3192 8.92856 15.2547 8.95939C15.2357 8.96813 15.216 8.97595 15.1962 8.983C15.1885 8.98614 15.1843 8.98717 15.1763 8.98979C15.185 8.98788 15.1897 8.98725 15.1982 8.98477C15.2197 8.9792 15.2414 8.97275 15.2627 8.96544C15.2963 8.95391 15.3299 8.94058 15.363 8.92576C15.3645 8.92545 15.366 8.92516 15.3677 8.92479C15.3687 8.92457 15.3697 8.92428 15.3707 8.92405C15.3296 8.94877 15.289 8.97247 15.2459 8.99262C15.2262 9.00147 15.2061 9.01009 15.185 9.0174C15.1767 9.02054 15.1726 9.02216 15.1638 9.02479C15.1733 9.02299 15.1778 9.02176 15.1867 9.01934C15.2095 9.01363 15.2317 9.00655 15.2538 8.99927L15.2715 8.99299C15.2464 9.00626 15.2203 9.01842 15.1928 9.02941C15.1691 9.03846 15.1446 9.04737 15.1186 9.05425C15.1083 9.05722 15.1032 9.0587 15.0928 9.0617C15.1038 9.05979 15.1093 9.05882 15.1203 9.05682C15.1479 9.05208 15.1746 9.04531 15.201 9.03838C15.2482 9.02605 15.2923 9.00866 15.3347 8.98945C15.3177 9.00087 15.2991 9.0112 15.2806 9.02176C15.2606 9.03241 15.2396 9.04286 15.2173 9.05208C15.2086 9.05599 15.2042 9.05799 15.195 9.06136C15.2049 9.05882 15.2096 9.05722 15.2191 9.05402C15.243 9.04643 15.266 9.03752 15.2885 9.02847C15.3001 9.0237 15.3112 9.01862 15.3223 9.01348C15.2985 9.02584 15.2758 9.03915 15.2548 9.05391C15.2005 9.08916 15.1618 9.13426 15.131 9.18028C15.1209 9.19418 15.1155 9.20894 15.1075 9.22341C15.1047 9.22923 15.1032 9.23217 15.1004 9.23802C15.1043 9.23232 15.1064 9.22949 15.1103 9.22384C15.1206 9.20982 15.1283 9.19555 15.1409 9.18236C15.1637 9.15761 15.1854 9.1334 15.2137 9.1118C15.1842 9.14205 15.1639 9.17582 15.1484 9.20951L15.1423 9.22435C15.1358 9.22658 15.1294 9.2288 15.1227 9.23123C15.0444 9.26083 14.9704 9.32557 14.9552 9.39111C14.9374 9.45411 14.9561 9.51489 14.9756 9.56153C14.9877 9.59082 14.9998 9.61617 15.008 9.63929C15.0116 9.64848 15.0132 9.65296 15.0154 9.6611C15.0154 9.65259 15.0148 9.64791 15.0133 9.63829C15.0095 9.61426 15.0019 9.58762 14.9951 9.55774C14.9823 9.50356 14.9738 9.4347 15.0097 9.37245C14.977 9.45688 15.0227 9.5357 15.0547 9.59439C15.0683 9.61925 15.0801 9.64297 15.0875 9.66512C15.0897 9.67374 15.0925 9.6784 15.0935 9.68662C15.0949 9.6782 15.0932 9.67334 15.0932 9.66435C15.0906 9.64135 15.0835 9.61617 15.0753 9.59005L15.0685 9.56844C15.0885 9.60212 15.1087 9.63318 15.1209 9.66347C15.1312 9.68922 15.1365 9.71471 15.1313 9.7394C15.1294 9.7493 15.1271 9.75416 15.1247 9.76412C15.13 9.75461 15.1337 9.74993 15.1385 9.74008C15.1499 9.71539 15.1511 9.6881 15.1472 9.66013C15.1403 9.61003 15.1132 9.55776 15.0986 9.50404C15.1121 9.52853 15.1281 9.55203 15.1442 9.57543C15.1611 9.60007 15.1772 9.62525 15.1894 9.65142C15.1936 9.66201 15.1973 9.66712 15.2001 9.678C15.1997 9.66689 15.1972 9.66161 15.1951 9.65065C15.1877 9.62362 15.1762 9.59696 15.1647 9.57109C15.1502 9.53989 15.1364 9.50835 15.1291 9.47747C15.1475 9.49511 15.1676 9.51358 15.1838 9.5351C15.1776 9.57095 15.1985 9.60586 15.2295 9.63806C15.236 9.65707 15.2426 9.67609 15.2494 9.69538C15.2561 9.71345 15.2631 9.73226 15.2723 9.75142C15.2737 9.75433 15.2749 9.75664 15.2759 9.75887C15.2317 9.78339 15.1821 9.8137 15.1684 9.82729C15.1533 9.84216 15.1445 9.87091 15.1304 9.89258C15.0693 9.98626 15.0204 10.1278 15.045 10.2544C15.0525 10.2933 15.0774 10.3314 15.0829 10.3731C15.0966 10.4754 15.0477 10.5298 15.0165 10.6104C14.9749 10.7181 14.9326 10.8278 14.9027 10.9307C14.883 10.9979 14.8816 11.0774 14.8552 11.1205C14.8253 11.1693 14.7406 11.2172 14.6749 11.2629C14.4579 11.4135 14.3729 11.5661 14.2478 11.7789C14.1515 11.9425 14.0284 12.1699 13.906 12.3425C13.8596 12.4078 13.8023 12.4775 13.7352 12.4967C13.6961 12.508 13.6431 12.5133 13.6023 12.5204C13.4669 12.5439 13.3189 12.5748 13.2322 12.6213C13.2043 12.6362 13.1983 12.6564 13.1752 12.6746C13.1531 12.6921 13.1246 12.7058 13.0993 12.7221C13.0142 12.7769 12.9436 12.8297 12.8335 12.8645C12.8265 12.8887 12.8641 12.8849 12.8525 12.9119C12.7988 12.9519 12.7416 13.0199 12.7576 13.0839C12.8899 13.089 12.9008 13.0175 12.9569 12.9653C12.9839 12.9402 13.0099 12.9246 13.0423 12.9119C13.0642 12.9034 13.0713 12.898 13.0898 12.8882C13.1169 12.8738 13.1367 12.8513 13.1752 12.8526C13.0928 12.9096 13.0441 13.0178 13.0613 13.1255C13.0683 13.1687 13.1157 13.2283 13.1278 13.2619C13.3012 13.2336 13.1491 13.0728 13.2511 13.0009C13.272 13.0391 13.2241 13.0734 13.2416 13.1076C13.2552 13.1342 13.3833 13.1802 13.403 13.1729C13.4539 13.154 13.4181 13.1086 13.403 13.0899C13.3914 13.0755 13.3944 13.0849 13.3934 13.0661C13.3897 12.9875 13.4799 12.9203 13.5833 12.9119C13.5332 12.9765 13.5154 13.1325 13.6118 13.173C13.7184 13.1451 13.6485 13.0547 13.6782 12.9831C13.6938 12.9456 13.749 12.9077 13.7826 12.8882C13.8667 12.8396 13.9824 12.8083 14.0483 12.7577C14.0881 12.7272 14.0777 12.7044 14.1053 12.6688C14.1251 12.6431 14.1753 12.6264 14.2002 12.6035C14.2473 12.56 14.2766 12.5079 14.3236 12.4611C14.4599 12.3254 14.598 12.1907 14.7317 12.0519C14.8865 11.8909 15.0615 11.7249 15.1683 11.5476C15.1854 11.5191 15.1872 11.4887 15.2062 11.4586C15.2228 11.4324 15.2521 11.4081 15.2727 11.3815C15.3349 11.3011 15.3739 11.2148 15.4245 11.1205C15.4849 11.0081 15.5286 10.8873 15.6238 10.7705C15.7734 10.8378 15.8711 10.9743 15.8705 11.1324C15.8704 11.173 15.8507 11.2138 15.8515 11.2569C15.8523 11.294 15.8721 11.333 15.8705 11.3696C15.866 11.4806 15.798 11.585 15.7471 11.6603C15.819 11.7104 15.7293 11.7654 15.6902 11.8264C15.6063 11.9575 15.5535 12.1034 15.4625 12.2179C15.4098 12.2842 15.3383 12.3659 15.2821 12.4552C15.2563 12.4964 15.2327 12.5418 15.2062 12.5857C15.1791 12.6307 15.1362 12.6765 15.1303 12.7162C15.1165 12.8087 15.1625 12.919 15.1872 12.9891C15.2009 13.0278 15.2095 13.0716 15.2252 13.0958C15.2466 13.129 15.3136 13.154 15.3296 13.1908C15.3373 13.2085 15.3264 13.2344 15.3296 13.256C15.343 13.3461 15.389 13.4595 15.3866 13.5526C15.3848 13.6191 15.3714 13.6773 15.3866 13.7483C15.3986 13.8049 15.4373 13.849 15.4245 13.8907C15.4148 13.9222 15.3702 13.9431 15.3581 13.9619C15.3272 14.01 15.3061 14.0806 15.2917 14.1398C15.2469 14.3231 15.2883 14.4718 15.3486 14.6204C15.3827 14.7042 15.4204 14.7871 15.453 14.8695C15.5002 14.9891 15.546 15.1302 15.5953 15.2492C15.6124 15.2903 15.6509 15.3392 15.6523 15.3737C15.6526 15.3826 15.6378 15.3997 15.6333 15.4152C15.6278 15.4345 15.6299 15.4534 15.6238 15.4686C15.6123 15.4977 15.5866 15.5172 15.5859 15.5457C15.5849 15.581 15.6257 15.6124 15.6333 15.6465C15.6556 15.7467 15.5853 15.8517 15.5669 15.955C15.5302 16.161 15.6363 16.2858 15.7851 16.394C15.9001 16.4776 16.0146 16.5776 16.2502 16.5541C16.2095 16.7206 16.2653 16.923 16.1838 17.0584C16.1561 17.1043 16.0902 17.1438 16.0889 17.1829C16.0881 17.2038 16.126 17.2373 16.1269 17.26C16.1279 17.2889 16.0996 17.3392 16.0794 17.3787C16.0611 17.4144 16.0338 17.4508 16.013 17.4855C15.967 17.5618 15.9194 17.6457 15.8706 17.693C15.8386 17.7241 15.7785 17.7453 15.7567 17.7702C15.7488 17.7791 15.7323 17.8092 15.7188 17.8354C15.7005 17.871 15.6677 17.9552 15.6903 17.9956C15.7352 18.0759 16.0729 18.0747 16.2313 18.0667C16.3637 18.06 16.569 18.0179 16.611 17.9718C16.6748 17.9018 16.619 17.7445 16.611 17.6693C16.5986 17.5541 16.6621 17.4384 16.6489 17.343C16.645 17.3147 16.6152 17.2879 16.611 17.26C16.6079 17.2398 16.623 17.2146 16.6204 17.1888C16.6158 17.1412 16.5807 17.0908 16.592 17.0346C16.6041 16.9747 16.6606 16.914 16.6964 16.8507C16.7996 16.6678 16.8866 16.4656 16.9906 16.2872C17.1719 15.9762 17.3948 15.6512 17.3512 15.2135C17.3442 15.1431 17.3028 15.0751 17.3133 15C17.3159 14.9811 17.3338 14.9559 17.3417 14.9347C17.3667 14.8683 17.3881 14.8354 17.4177 14.7864C17.5405 14.5832 17.639 14.369 17.7688 14.1754C17.9241 13.944 18.0991 13.7287 18.2149 13.511C18.2857 13.51 18.3199 13.5112 18.3478 13.4933C18.3799 13.4727 18.3986 13.3461 18.4143 13.2916C18.4588 13.137 18.4935 13.0182 18.5281 12.8704C18.5451 12.7978 18.5728 12.7205 18.5756 12.6509C18.5781 12.5892 18.5536 12.5243 18.5471 12.4611C18.5402 12.394 18.5439 12.3257 18.5281 12.2654C18.4961 12.1429 18.415 11.9988 18.3478 11.8917C18.3211 11.8492 18.2805 11.792 18.2814 11.7671C18.2822 11.7455 18.3176 11.7442 18.3193 11.7137C18.3196 11.7087 18.3027 11.688 18.2909 11.6663C18.2241 11.5436 18.1614 11.4222 18.0916 11.3222C18.0101 11.2055 17.9198 11.0497 17.9017 10.901C17.8773 10.6998 17.9165 10.4926 17.8828 10.3197C17.8765 10.2877 17.8527 10.26 17.8448 10.2307C17.8299 10.1745 17.8304 10.1072 17.8258 10.0468C17.8211 9.98392 17.8017 9.92403 17.7974 9.87479C17.7949 9.84656 17.8111 9.82264 17.7974 9.79766C17.7811 9.76812 17.7303 9.7529 17.7214 9.72647C17.7085 9.68796 17.7264 9.63135 17.7404 9.57817C17.7405 9.57777 17.7406 9.57737 17.7408 9.57697C17.7492 9.57535 17.7551 9.57418 17.765 9.57221C17.7552 9.57324 17.7492 9.57386 17.7413 9.57466C17.753 9.53002 17.7636 9.4814 17.7783 9.4417C17.853 9.24136 18.0451 9.18196 18.2339 9.0561C18.32 8.99876 18.4122 8.93319 18.4902 8.8663C18.5685 8.79911 18.6264 8.72163 18.7179 8.65869C18.8123 8.59384 18.9233 8.5334 18.9742 8.46886C19.0329 8.39462 18.9783 8.30535 18.9363 8.24347ZM15.1247 9.45269C15.1221 9.42891 15.1244 9.40573 15.1346 9.38364C15.1286 9.41781 15.1395 9.45146 15.1592 9.48463C15.1444 9.47649 15.133 9.46536 15.1247 9.45269ZM15.1597 9.21833C15.1576 9.21904 15.1555 9.21973 15.1533 9.22047L15.1589 9.21142L15.1657 9.20066L15.1597 9.21833ZM15.1803 9.4661C15.1729 9.44161 15.1713 9.41846 15.178 9.3964C15.1778 9.40339 15.1787 9.41027 15.1801 9.41709C15.1808 9.43002 15.1818 9.44284 15.1833 9.45554C15.1823 9.45905 15.1813 9.46259 15.1803 9.4661ZM15.2002 9.20069C15.1995 9.20234 15.1989 9.204 15.1983 9.20568C15.1951 9.20668 15.1919 9.20777 15.1886 9.20879C15.1924 9.2026 15.1966 9.19646 15.2012 9.19047C15.2009 9.19386 15.2007 9.19729 15.2002 9.20069ZM15.2973 9.74719C15.2937 9.73849 15.2903 9.72984 15.2874 9.72139L15.2823 9.70649C15.2883 9.71919 15.2947 9.73203 15.3016 9.74494C15.3001 9.74571 15.2987 9.74642 15.2973 9.74719ZM15.3152 9.72767C15.3167 9.73032 15.3182 9.73298 15.3197 9.7356C15.3193 9.7358 15.3189 9.736 15.3186 9.7362L15.3152 9.72767ZM15.3385 9.7263C15.3386 9.72638 15.3387 9.7265 15.3389 9.72658C15.3388 9.72661 15.3387 9.72664 15.3386 9.7267L15.3385 9.7263ZM15.3423 9.36785C15.3424 9.36776 15.3425 9.36768 15.3426 9.36759C15.3428 9.36916 15.3429 9.37073 15.3432 9.3723C15.3428 9.37082 15.3427 9.36933 15.3423 9.36785ZM15.3462 9.70283C15.3465 9.70286 15.3468 9.70286 15.3471 9.70289L15.348 9.70429C15.35 9.70974 15.3523 9.71519 15.3546 9.72065C15.3541 9.72082 15.3537 9.72102 15.3532 9.72119C15.3507 9.71505 15.3484 9.70894 15.3462 9.70283ZM15.3516 9.66418C15.3511 9.66401 15.3505 9.66384 15.35 9.66367C15.3494 9.66121 15.3489 9.65876 15.3483 9.65633C15.3495 9.65919 15.3506 9.66176 15.3516 9.66418ZM15.3494 9.36462C15.3498 9.36468 15.3501 9.36471 15.3504 9.36477C15.351 9.36836 15.3515 9.37199 15.3522 9.37567C15.3521 9.37573 15.3521 9.37579 15.352 9.37581C15.3511 9.3721 15.3502 9.36836 15.3494 9.36462ZM15.3554 9.36639C15.3578 9.36779 15.3581 9.36965 15.3567 9.37162C15.3563 9.36988 15.3559 9.36814 15.3554 9.36639ZM15.3603 9.70494C15.3602 9.70466 15.3602 9.70437 15.3601 9.70412C15.3641 9.70466 15.3681 9.70526 15.3719 9.70603C15.373 9.7086 15.3743 9.71117 15.3755 9.71374C15.3721 9.71476 15.3687 9.71574 15.3654 9.71679L15.3603 9.70494ZM15.4285 9.66495L15.4315 9.67115L15.4336 9.67694L15.4285 9.66495ZM15.4538 9.14257L15.4541 9.14191C15.4675 9.11671 15.4774 9.09136 15.4848 9.06661C15.4857 9.06384 15.4869 9.0599 15.4882 9.05582C15.487 9.06901 15.4829 9.08414 15.4785 9.09792C15.4716 9.11302 15.4632 9.12787 15.4538 9.14257ZM15.532 9.486C15.5329 9.48526 15.5336 9.4844 15.5345 9.48363C15.5344 9.48466 15.5344 9.4856 15.5344 9.4866C15.5335 9.4864 15.5328 9.48629 15.532 9.486ZM15.5344 9.0599C15.5388 9.05385 15.5447 9.0583 15.5433 9.06141C15.5388 9.06744 15.5329 9.06298 15.5344 9.0599ZM15.558 9.45212C15.558 9.452 15.558 9.45189 15.558 9.45177C15.5581 9.45177 15.5581 9.45177 15.5581 9.45175C15.558 9.45189 15.558 9.452 15.558 9.45212ZM15.5641 9.43727C15.5645 9.43627 15.5649 9.4353 15.5653 9.4343C15.5648 9.44327 15.5651 9.45223 15.5645 9.46122L15.5644 9.46065C15.564 9.45283 15.5639 9.44501 15.5641 9.43727ZM15.5977 9.53764C15.5934 9.52671 15.5907 9.51566 15.5882 9.50453C15.5917 9.5049 15.595 9.50535 15.598 9.5059C15.5974 9.51646 15.5971 9.52702 15.5977 9.53764ZM15.7873 9.45123C15.8104 9.45369 15.8029 9.46705 15.7942 9.48089C15.782 9.48392 15.7709 9.48686 15.762 9.4896C15.756 9.47473 15.7687 9.45469 15.7873 9.45123ZM15.7605 9.44666C15.7615 9.43402 15.7779 9.43816 15.7922 9.44001C15.7853 9.44627 15.7757 9.44958 15.7605 9.44666ZM15.8823 9.45166C15.8808 9.44093 15.879 9.43002 15.8785 9.41863C15.8848 9.42263 15.8912 9.42605 15.8978 9.42908C15.8923 9.4391 15.8871 9.44715 15.8823 9.45166ZM15.7459 9.48026C15.7425 9.47227 15.7419 9.46639 15.7484 9.47467C15.7546 9.48275 15.7497 9.48911 15.7459 9.48026ZM15.7402 9.44923C15.7487 9.44144 15.7497 9.45046 15.7467 9.45634C15.7382 9.46416 15.7372 9.45511 15.7402 9.44923ZM15.7423 9.48583C15.7466 9.48788 15.749 9.49065 15.7504 9.49371C15.7494 9.49419 15.7481 9.49465 15.7473 9.49511C15.7466 9.49548 15.746 9.49608 15.7452 9.49645C15.7442 9.49294 15.743 9.4894 15.7423 9.48583ZM15.3242 9.73341C15.3216 9.72764 15.3188 9.72184 15.3166 9.71616C15.3155 9.71351 15.3146 9.71091 15.3135 9.70828C15.318 9.7116 15.3225 9.71485 15.3268 9.71805C15.3286 9.7219 15.3304 9.72575 15.3323 9.72958C15.3297 9.73072 15.327 9.73203 15.3242 9.73341ZM17.9026 8.62175C17.908 8.62435 17.9135 8.62689 17.9191 8.62943C17.912 8.63386 17.905 8.63822 17.8979 8.64259C17.8972 8.63577 17.8985 8.62886 17.9026 8.62175ZM17.9302 8.62238C17.9292 8.62298 17.9283 8.62355 17.9275 8.62412L17.9176 8.61836L17.9114 8.61456L17.9302 8.62238ZM17.9244 8.59923L17.9355 8.60351C17.9403 8.6056 17.9455 8.60734 17.9505 8.60911C17.9492 8.60996 17.9479 8.61085 17.9466 8.61173C17.9389 8.60774 17.9315 8.6036 17.9244 8.59923ZM17.927 8.62441C17.9252 8.62555 17.9234 8.62669 17.9216 8.62781C17.916 8.62444 17.9105 8.6211 17.9052 8.61767C17.906 8.61659 17.907 8.61547 17.9079 8.61439L17.927 8.62441ZM17.9318 8.58068C17.944 8.58639 17.958 8.59013 17.9707 8.59458C17.9713 8.59469 17.9716 8.59478 17.972 8.59489C17.9664 8.59866 17.9607 8.60243 17.9549 8.60622C17.9501 8.60397 17.9452 8.60171 17.9408 8.59915C17.9311 8.59384 17.9219 8.58818 17.913 8.58236C17.9089 8.57517 17.9018 8.56886 17.894 8.56272C17.9062 8.5694 17.9186 8.57554 17.9318 8.58068ZM15.6576 8.60874C15.6579 8.60814 15.658 8.60751 15.6582 8.60691C15.6601 8.60705 15.6619 8.60719 15.6636 8.60717C15.6626 8.60939 15.6602 8.61016 15.6572 8.61034C15.6574 8.60982 15.6575 8.60931 15.6576 8.60874ZM15.5937 8.55835C15.5937 8.5585 15.5938 8.55864 15.5938 8.55878C15.5915 8.56124 15.5894 8.56378 15.5872 8.56629C15.5866 8.56595 15.586 8.56563 15.5854 8.56529C15.5882 8.56298 15.5908 8.56058 15.5937 8.55835ZM15.5777 9.41389C15.5778 9.41135 15.578 9.40767 15.5782 9.40393C15.5903 9.40733 15.5995 9.4351 15.6039 9.45911C15.6032 9.46274 15.6025 9.4663 15.6017 9.46993C15.6008 9.47707 15.6 9.48423 15.5993 9.49145C15.5945 9.49077 15.5897 9.4904 15.585 9.49025C15.584 9.48563 15.583 9.48098 15.5819 9.47635C15.5804 9.45548 15.5757 9.4343 15.5777 9.41389ZM15.5727 9.41798C15.5728 9.41643 15.5729 9.41492 15.573 9.41335C15.5741 9.41064 15.5753 9.40796 15.5766 9.40536C15.5761 9.40858 15.5758 9.41167 15.5756 9.41381C15.5722 9.43219 15.5747 9.45143 15.5742 9.47059C15.5737 9.45312 15.5709 9.4355 15.5727 9.41798ZM15.5697 8.58219C15.5703 8.5833 15.5708 8.58444 15.5712 8.58562C15.5707 8.58624 15.5702 8.58687 15.5697 8.5875C15.5697 8.5857 15.5697 8.58396 15.5697 8.58219ZM15.5711 8.61053C15.5699 8.61365 15.5683 8.61676 15.5665 8.6199C15.5643 8.62232 15.562 8.62475 15.5597 8.62718C15.5594 8.62592 15.5592 8.62466 15.5589 8.62341C15.563 8.61907 15.567 8.61479 15.5711 8.61053ZM15.5627 8.58467C15.5633 8.58767 15.5641 8.59067 15.565 8.59364C15.5619 8.59777 15.5589 8.60197 15.5559 8.60617C15.5554 8.60137 15.5551 8.59658 15.555 8.59181C15.5575 8.58941 15.5601 8.58704 15.5627 8.58467ZM15.5493 8.63854C15.5488 8.63725 15.5484 8.63606 15.5481 8.63494C15.5496 8.6334 15.551 8.63189 15.5524 8.63035C15.5529 8.63134 15.5536 8.63229 15.5542 8.63329C15.5525 8.63506 15.5509 8.6368 15.5493 8.63854ZM15.5275 8.53909C15.5259 8.54037 15.5244 8.54165 15.5228 8.54294C15.5229 8.54251 15.5232 8.54208 15.5233 8.54165L15.5244 8.53968C15.5256 8.53891 15.5268 8.53817 15.528 8.5374C15.5278 8.53794 15.5276 8.53851 15.5275 8.53909ZM15.5171 8.52159C15.5024 8.53243 15.488 8.54368 15.4744 8.55504C15.4794 8.5406 15.4883 8.52675 15.4976 8.51374C15.5135 8.49487 15.5317 8.47768 15.5529 8.46298C15.5512 8.46664 15.5497 8.47029 15.5486 8.47397C15.5349 8.48876 15.5241 8.5048 15.5171 8.52159ZM15.5471 8.61844C15.5465 8.6193 15.546 8.62015 15.5454 8.62101L15.5438 8.61062C15.5447 8.61325 15.5461 8.61582 15.5471 8.61844ZM15.5469 8.63611C15.5475 8.637 15.5481 8.638 15.5488 8.63902C15.5448 8.64336 15.5408 8.64773 15.5369 8.65204C15.5352 8.65193 15.5336 8.65181 15.532 8.65164C15.537 8.64642 15.5419 8.64125 15.5469 8.63611ZM15.5311 9.08936C15.5396 9.08157 15.5407 9.09059 15.5377 9.0965C15.5292 9.10429 15.5281 9.09524 15.5311 9.08936ZM15.4972 9.62981C15.4973 9.63007 15.4975 9.6303 15.4976 9.63053C15.4988 9.63441 15.4999 9.63832 15.5012 9.6422C15.5046 9.65165 15.5087 9.66107 15.5129 9.67046C15.5118 9.671 15.5109 9.67166 15.5097 9.67223C15.5083 9.66889 15.5068 9.66552 15.5054 9.66216C15.5017 9.65134 15.494 9.64146 15.4972 9.62981ZM15.4812 9.02656C15.4861 9.03118 15.4881 9.03829 15.4885 9.0468C15.4854 9.05331 15.4818 9.06127 15.4796 9.06575C15.4697 9.08653 15.4586 9.10791 15.4432 9.12795C15.4538 9.11077 15.4609 9.09284 15.4684 9.07546C15.4722 9.06544 15.4814 9.0424 15.4806 9.04223C15.48 9.04223 15.4675 9.06512 15.4623 9.0744L15.4531 9.08922C15.461 9.07469 15.4666 9.05941 15.4733 9.04486C15.4753 9.04037 15.4785 9.0329 15.4812 9.02656ZM15.4795 9.02527C15.4758 9.03173 15.4713 9.03966 15.4688 9.04414C15.4549 9.06755 15.4399 9.09164 15.4212 9.11325L15.4158 9.11945C15.423 9.11043 15.4295 9.10095 15.4351 9.09096C15.4491 9.06875 15.4605 9.04503 15.4727 9.02202C15.4753 9.02273 15.4776 9.02385 15.4795 9.02527ZM15.3819 8.91723C15.3813 8.91757 15.3807 8.91791 15.3801 8.91831C15.3793 8.91857 15.3785 8.91886 15.3777 8.91911C15.3791 8.91846 15.3805 8.91786 15.3819 8.91723ZM15.4421 8.94832C15.4325 8.95608 15.4227 8.96382 15.4128 8.97152C15.3959 8.97869 15.379 8.98608 15.3623 8.99382C15.3901 8.97934 15.4166 8.96402 15.4421 8.94832ZM15.447 8.97272C15.4451 8.97435 15.4432 8.97595 15.4413 8.97757C15.4361 8.9804 15.4308 8.9832 15.4257 8.98617C15.4325 8.98149 15.4397 8.97703 15.447 8.97272ZM15.331 9.12496C15.3519 9.09815 15.374 9.06992 15.4006 9.04254C15.413 9.03652 15.4261 9.0309 15.4399 9.02604C15.4521 9.02182 15.4614 9.02051 15.4685 9.02128C15.4534 9.04377 15.4381 9.06715 15.4199 9.08807C15.3876 9.13098 15.3507 9.15284 15.3019 9.17143C15.311 9.15596 15.3209 9.14057 15.331 9.12496ZM15.2982 9.69695L15.3019 9.70677C15.3059 9.71699 15.3103 9.72744 15.3151 9.73791C15.314 9.73849 15.313 9.73897 15.3118 9.73957C15.3053 9.72424 15.2995 9.70906 15.2944 9.69407C15.2957 9.69504 15.2969 9.69598 15.2982 9.69695ZM15.2904 9.13891C15.2819 9.15319 15.2757 9.16775 15.2709 9.18248C15.266 9.1841 15.261 9.18573 15.2558 9.18738C15.2658 9.17077 15.2763 9.1543 15.2904 9.13891ZM15.2741 9.7511C15.2663 9.73166 15.2607 9.71265 15.2558 9.69438C15.2519 9.68005 15.2484 9.66658 15.2451 9.65319C15.2486 9.6565 15.2522 9.65976 15.2559 9.66301C15.2634 9.68217 15.2714 9.70166 15.2808 9.72262C15.2847 9.73132 15.289 9.74026 15.2936 9.74925C15.2881 9.75216 15.2826 9.75519 15.2768 9.75838C15.276 9.75618 15.2751 9.75393 15.2741 9.7511ZM16.8293 13.6119C16.8181 13.7876 16.7767 13.9707 16.7249 14.1577C16.6593 14.3943 16.5398 14.5918 16.573 14.8813C16.5787 14.9311 16.6007 14.9665 16.592 15.006C16.583 15.0471 16.5312 15.0996 16.4971 15.1483C16.3776 15.3193 16.2817 15.4975 16.2694 15.7296C16.2274 15.7092 16.2456 15.6734 16.2409 15.6465C16.2243 15.5517 16.2084 15.4079 16.127 15.3381C16.1111 15.3245 16.0937 15.3159 16.089 15.3025C16.08 15.2766 16.1063 15.2309 16.1175 15.1839C16.1442 15.0726 16.1704 14.9418 16.203 14.8458C16.284 14.6066 16.4261 14.37 16.3168 14.0923C16.2867 14.0159 16.2001 13.9608 16.2694 13.8788C16.2831 13.8626 16.3224 13.8513 16.3358 13.8314C16.3571 13.7996 16.3615 13.7454 16.3738 13.7009C16.3964 13.6183 16.4171 13.5558 16.4497 13.4874C16.4653 13.4545 16.4697 13.4201 16.4876 13.3984C16.5218 13.3571 16.6011 13.3416 16.6395 13.3034C16.6999 13.2434 16.6809 13.1831 16.7439 13.1374C16.7727 13.1547 16.6918 13.2741 16.7059 13.3094C16.7222 13.3502 16.8138 13.354 16.8293 13.3805C16.8467 13.4103 16.8199 13.4532 16.8198 13.4933C16.8196 13.5332 16.8315 13.5768 16.8293 13.6119Z" fill="#00DBE9"/>
<path d="M16.2197 6.91169C16.2091 6.80274 16.1413 6.67405 16.1112 6.5414C16.0965 6.47677 16.0782 6.41423 16.0618 6.35009C16.0447 6.28335 16.0401 6.21395 16.0223 6.15261C16.0117 6.11633 15.9837 6.07799 15.9729 6.04151C15.9601 5.99821 15.9401 5.94937 15.9433 5.91194C15.9446 5.89707 15.9636 5.8772 15.9631 5.86256C15.9612 5.81195 15.9261 5.74113 15.9038 5.67125C15.8643 5.54733 15.8728 5.47117 15.6668 5.49226C15.579 5.37862 15.5105 5.28739 15.4693 5.16519C15.4594 5.13573 15.472 5.0864 15.4397 5.05409C15.4105 5.02486 15.269 4.99777 15.2225 4.99237C15.1277 4.98141 15.0157 4.9839 14.9164 4.96771C14.8387 4.95504 14.7295 4.90734 14.6597 4.90599C14.6462 4.90571 14.5638 4.91604 14.5412 4.92449C14.5027 4.93891 14.4822 4.98056 14.4424 5.01704C14.4133 5.04376 14.3558 5.0741 14.3437 5.10964C14.3275 5.15708 14.3487 5.23829 14.324 5.29476C14.3182 5.30775 14.3024 5.3094 14.2944 5.31945C14.2425 5.38353 14.3752 5.42378 14.4721 5.43671C14.5181 5.44282 14.5692 5.43497 14.6104 5.44288C14.6807 5.45641 14.7541 5.49937 14.8276 5.52312C14.9117 5.5503 14.9869 5.56977 15.0645 5.591C14.9699 5.61655 14.9959 5.66945 15.0152 5.73913C15.032 5.79996 15.0369 5.87412 15.0645 5.93044C15.0775 5.95679 15.1155 5.9792 15.1238 6.00449C15.1407 6.05593 15.122 6.12852 15.1139 6.19577C15.0836 6.44951 15.13 6.73928 15.1732 6.91783C15.0538 6.91889 14.9974 6.94692 14.9263 6.97338C14.8863 6.98823 14.8396 6.99727 14.8078 7.01038C14.7109 7.05028 14.6219 7.11123 14.5214 7.1585C14.4214 7.20557 14.314 7.24711 14.2154 7.29426C14.1191 7.34034 14.0176 7.38818 13.929 7.44239C13.8872 7.46799 13.8485 7.50302 13.8006 7.52879C13.777 7.54153 13.7444 7.54498 13.7216 7.55965C13.6946 7.57712 13.6894 7.59842 13.6624 7.60901C13.6253 7.62348 13.5574 7.63073 13.5143 7.63986C13.4602 7.65128 13.4091 7.66293 13.3562 7.66456C13.3275 7.56322 13.1331 7.56539 12.981 7.54113C12.912 7.42791 12.9166 7.33032 12.9656 7.22644C12.9945 7.19087 13.0205 7.15462 13.0351 7.11534C13.0417 7.0975 13.0593 7.08868 13.0814 7.08214C13.088 7.10566 13.0984 7.12873 13.1139 7.15231C13.1226 7.1641 13.1332 7.1762 13.1502 7.18705C13.1662 7.19798 13.194 7.20634 13.2182 7.20432C13.2654 7.19966 13.2885 7.18071 13.3115 7.16452C13.2815 7.17429 13.2441 7.18271 13.2209 7.17717C13.2017 7.17194 13.1991 7.15724 13.1982 7.13886C13.1994 7.10275 13.2179 7.0607 13.2424 7.02833C13.2559 7.01255 13.2727 6.99588 13.291 6.97789C13.34 6.95791 13.3922 6.88809 13.4253 6.84378C13.4357 6.82991 13.4488 6.81024 13.4589 6.78909C13.4714 6.79146 13.4847 6.79252 13.4976 6.79106C13.5212 6.78829 13.5376 6.77893 13.5492 6.76937C13.5322 6.77539 13.5129 6.77856 13.4976 6.77593C13.486 6.77399 13.4768 6.76962 13.4689 6.76409C13.4802 6.72849 13.4775 6.69321 13.4352 6.67714C13.4261 6.67368 13.4171 6.67194 13.4084 6.67131C13.4034 6.65895 13.3987 6.64645 13.3943 6.63372C13.4078 6.61579 13.4199 6.59721 13.4316 6.57851C13.4554 6.59079 13.4835 6.60337 13.5211 6.60443C13.5655 6.60397 13.5863 6.58216 13.5978 6.56584C13.5762 6.57914 13.5454 6.5881 13.5271 6.58099C13.5085 6.57494 13.4946 6.56038 13.4833 6.54511C13.4643 6.51834 13.4521 6.48836 13.4406 6.45733C13.4406 6.45731 13.4406 6.45731 13.4406 6.45731C13.4405 6.45728 13.4405 6.45722 13.4405 6.45719C13.4386 6.452 13.4367 6.4468 13.4348 6.44158C13.429 6.42728 13.4269 6.4158 13.4145 6.3957L13.4094 6.39759C13.4075 6.39391 13.4057 6.39017 13.404 6.38643C13.401 6.37866 13.3995 6.37098 13.3995 6.36345C13.4015 6.36433 13.4034 6.36522 13.4055 6.3661C13.4472 6.38531 13.5025 6.39645 13.5494 6.38991C13.5017 6.38332 13.4693 6.36348 13.4476 6.34033C13.4325 6.32485 13.4206 6.30787 13.407 6.28977C13.4075 6.28949 13.408 6.28917 13.4084 6.2888C13.4228 6.29754 13.439 6.30627 13.4595 6.31295C13.4778 6.31889 13.5004 6.32052 13.5185 6.31738C13.5369 6.31449 13.5516 6.3085 13.5649 6.3021C13.5321 6.3081 13.4982 6.30539 13.4837 6.29186C13.4673 6.27892 13.4585 6.26011 13.4452 6.23993C13.4377 6.22937 13.4326 6.21989 13.4175 6.20696C13.4062 6.1966 13.3918 6.18644 13.3745 6.17736C13.3527 6.16563 13.3265 6.15709 13.301 6.1507C13.3194 6.14816 13.3363 6.14305 13.3474 6.13446C13.3312 6.13931 13.3152 6.13959 13.2999 6.13754C13.3122 6.13505 13.3246 6.13191 13.3366 6.12738C13.3559 6.12035 13.3712 6.10953 13.3803 6.09909C13.3983 6.07805 13.4054 6.0581 13.4169 6.03794C13.3941 6.05324 13.372 6.07094 13.3482 6.08227C13.3245 6.09341 13.3033 6.09206 13.2736 6.08898C13.2534 6.08727 13.235 6.08342 13.2158 6.07856C13.2282 6.07428 13.24 6.06906 13.251 6.06298C13.2741 6.05556 13.295 6.04613 13.3112 6.03343C13.2646 6.04753 13.2167 6.04636 13.1686 6.04237C13.1399 6.04037 13.1096 6.03646 13.0752 6.03597C13.0796 6.03166 13.0827 6.0263 13.0837 6.01939C13.0495 6.02824 12.9535 6.02938 13.0099 5.99221C13.0001 5.9925 12.9904 5.99375 12.9808 5.99575C12.9842 5.98919 12.9869 5.98254 12.9885 5.9758C12.9886 5.97571 12.9887 5.97557 12.9887 5.97548C13.0025 5.95436 13.0017 5.93221 12.9943 5.91306C12.9887 5.93272 12.9756 5.95051 12.9553 5.96244C12.9402 5.97166 12.9221 5.97814 12.9025 5.98333C12.895 5.98068 12.8875 5.97805 12.8801 5.97563C12.8992 5.96013 12.917 5.94154 12.92 5.92042C12.9235 5.89867 12.9065 5.88037 12.8873 5.86792C12.8972 5.88462 12.8982 5.90244 12.886 5.91483C12.8746 5.92736 12.8546 5.93603 12.8328 5.94334C12.8216 5.94697 12.8097 5.95014 12.7976 5.9531C12.7705 5.94708 12.7431 5.94231 12.7155 5.93863C12.7041 5.91662 12.6869 5.8957 12.6619 5.88046C12.6722 5.89793 12.6757 5.91631 12.6743 5.93404C12.6701 5.93367 12.666 5.93315 12.6619 5.93284C12.6599 5.90224 12.6464 5.87146 12.6182 5.84908C12.6296 5.87786 12.6211 5.90535 12.6049 5.9301C12.6027 5.93007 12.6005 5.93007 12.5984 5.93001C12.5679 5.89618 12.5291 5.87694 12.4975 5.85594C12.4634 5.83421 12.4328 5.81063 12.4255 5.77823C12.4052 5.82068 12.4365 5.86544 12.4603 5.90395C12.4593 5.90481 12.4582 5.90572 12.4572 5.90666C12.4515 5.90426 12.4459 5.90172 12.4404 5.89921C12.4337 5.8957 12.4271 5.89239 12.4205 5.88919C12.4191 5.88851 12.4176 5.88785 12.4161 5.88719C12.4131 5.88562 12.4102 5.88405 12.4073 5.88243C12.4071 5.88263 12.4069 5.88277 12.4068 5.88297C12.381 5.87161 12.3546 5.86199 12.3291 5.85148C12.357 5.87786 12.3904 5.90635 12.4062 5.93267C12.3881 5.92701 12.368 5.91885 12.3651 5.91665C12.3656 5.91745 12.3659 5.91822 12.3663 5.91896C12.34 5.908 12.3124 5.90127 12.2871 5.89524C12.2421 5.88494 12.198 5.8788 12.1565 5.86621C12.1867 5.88839 12.2253 5.90643 12.2574 5.92576C12.2791 5.93838 12.2979 5.95233 12.309 5.96552C12.3017 5.96743 12.2945 5.9696 12.2873 5.97172C12.2747 5.97223 12.2618 5.97286 12.2488 5.97374C12.2469 5.97389 12.2449 5.97406 12.2429 5.97426C12.2358 5.9724 12.2287 5.97077 12.2218 5.96943C12.1769 5.9603 12.1371 5.95702 12.1009 5.94905C12.0645 5.94177 12.032 5.92758 12.0109 5.90423C12.0139 5.92761 12.0338 5.95193 12.0627 5.97029C12.0401 5.96735 12.0177 5.96429 11.9954 5.96093C11.9961 5.96549 11.9974 5.96963 11.9994 5.97354C11.9585 5.96452 11.9218 5.94859 11.897 5.9215C11.9012 5.95068 11.9265 5.98042 11.9638 6.00275C11.9897 6.01842 12.0197 6.03138 12.0516 6.04205C12.0295 6.04083 12.0083 6.0406 11.9909 6.04237C11.9432 6.03763 11.8964 6.02984 11.8514 6.01531C11.8783 6.03643 11.9123 6.05458 11.9492 6.07057C11.9507 6.07645 11.9548 6.08339 11.9619 6.09155C11.9377 6.08918 11.9185 6.0962 11.8989 6.10246C11.8593 6.10066 11.8197 6.09304 11.7859 6.07517C11.7984 6.09192 11.8188 6.10654 11.8436 6.11861C11.8392 6.14119 11.8222 6.15949 11.7978 6.17599C11.7546 6.18061 11.7039 6.17705 11.6581 6.16548C11.6859 6.18281 11.7197 6.1978 11.7591 6.20765C11.759 6.21021 11.7582 6.21293 11.7563 6.2157C11.7317 6.25312 11.7072 6.29063 11.6843 6.32851C11.6807 6.3369 11.6774 6.34535 11.6742 6.35383C11.6733 6.35503 11.6725 6.35625 11.6716 6.35742C11.6469 6.3955 11.6261 6.43164 11.5979 6.46487C11.5838 6.48111 11.5682 6.49716 11.5478 6.50817C11.5288 6.51999 11.4984 6.52213 11.4717 6.50855C11.4796 6.51714 11.4911 6.52573 11.5088 6.53021C11.5266 6.53484 11.5475 6.53369 11.5653 6.53047C11.5861 6.52653 11.6044 6.52056 11.6215 6.51374C11.617 6.52236 11.6071 6.5267 11.5959 6.5277C11.5983 6.5301 11.601 6.53244 11.6038 6.53478C11.5761 6.55556 11.5345 6.57329 11.4884 6.58319C11.5386 6.58533 11.592 6.58071 11.6424 6.56475C11.6454 6.56775 11.6479 6.57077 11.6495 6.5738C11.6131 6.59404 11.5912 6.61291 11.5607 6.62901C11.544 6.63823 11.5307 6.64408 11.5075 6.64494C11.4849 6.64582 11.4596 6.64385 11.4351 6.64234C11.4568 6.64993 11.4776 6.65792 11.5028 6.66383C11.5278 6.67068 11.5641 6.66866 11.5894 6.66278C11.5964 6.66149 11.6034 6.66001 11.6104 6.65841C11.5797 6.68775 11.558 6.72184 11.5495 6.75524C11.5365 6.80476 11.5498 6.84964 11.5708 6.88726C11.5888 6.91863 11.6104 6.94521 11.6366 6.97098C11.6328 6.99765 11.6212 7.02288 11.5913 7.04692C11.6212 7.0365 11.6494 7.02105 11.6712 7.00213C11.6955 7.02337 11.7176 7.04452 11.7332 7.06727C11.7516 7.09413 11.7617 7.12701 11.7213 7.15191C11.7464 7.14617 11.7694 7.13258 11.7815 7.11514C11.7939 7.09778 11.7978 7.07869 11.7984 7.06033C11.7987 7.05217 11.7982 7.04409 11.7973 7.03604C11.8119 7.0426 11.8223 7.05248 11.8242 7.07052C11.8272 7.10175 11.8363 7.13218 11.8471 7.16233C11.8468 7.21097 11.8411 7.26355 11.8357 7.30043C11.8289 7.34585 11.7404 7.41841 11.6974 7.42383C11.6262 7.43285 11.5172 7.3829 11.4308 7.38681C11.3825 7.38903 11.3648 7.40048 11.3123 7.41769C11.2261 7.36334 11.153 7.32795 11.1049 7.26957C11.0606 7.21571 11.0376 7.15151 10.9963 7.09059C10.9568 7.03224 10.9284 6.96396 10.8877 6.90544C10.8611 6.86716 10.8174 6.82883 10.789 6.78821C10.6981 6.6583 10.5902 6.55507 10.4928 6.43641C10.2205 6.10491 9.99816 5.80801 9.66334 5.51071C9.59108 5.44653 9.5138 5.36966 9.43625 5.29473C9.39944 5.25916 9.36514 5.21794 9.3276 5.18366C9.28124 5.14124 9.22712 5.10884 9.20912 5.07256C9.19953 5.05315 9.20661 5.0302 9.19926 5.01084C9.17514 4.94719 9.12728 4.88616 9.09065 4.83186C9.05338 4.7766 9.00455 4.72464 8.95239 4.67141C8.93212 4.65534 8.85329 4.67577 8.83392 4.65908C8.86105 4.59291 8.9186 4.54375 8.94248 4.47393C8.95322 4.44264 8.94417 4.394 8.95239 4.35047C8.96052 4.30756 8.9951 4.26515 8.98199 4.23323C8.96427 4.1899 8.8626 4.17882 8.82405 4.15302C8.81186 4.14483 8.80515 4.12536 8.79441 4.11599C8.74943 4.07677 8.7165 4.07526 8.62657 4.04195C8.53047 4.00632 8.49526 3.9818 8.38962 4.01726C8.35093 4.03024 8.36034 4.04346 8.33038 4.06047C8.31864 4.0671 8.3022 4.06784 8.29092 4.07281C8.22985 4.09952 8.2426 4.14685 8.20204 4.1839C8.1813 4.20283 8.13093 4.20954 8.1033 4.23326C8.0969 4.23874 8.09306 4.25752 8.08347 4.27028C8.04767 4.31821 7.99738 4.35615 7.965 4.39988C7.95641 4.41153 7.94394 4.42006 7.9354 4.43074C7.86301 4.52154 7.90448 4.53539 7.99464 4.59733C8.08836 4.66176 8.12746 4.70155 8.20199 4.77631C8.23209 4.80646 8.29466 4.84953 8.29087 4.87505C8.28608 4.90705 8.21446 4.92024 8.21186 4.96146C8.20976 4.99557 8.26849 5.05894 8.30074 5.10958C8.33193 5.15854 8.36532 5.21948 8.39948 5.25151C8.42058 5.27129 8.45813 5.28716 8.4785 5.30706C8.53728 5.36449 8.58893 5.436 8.64634 5.50454C8.81871 5.71038 8.93212 5.93495 9.05119 6.17722C9.12449 6.32642 9.21437 6.47723 9.30791 6.62772C9.37879 6.74176 9.45457 6.85926 9.5054 6.96713C9.52444 7.00761 9.53075 7.05222 9.55477 7.09056C9.59446 7.15382 9.66123 7.20974 9.70289 7.26954C9.75811 7.34873 9.78158 7.43448 9.83127 7.51021C9.86795 7.56607 9.93289 7.6142 9.95966 7.6645C10.0127 7.76407 10.0398 7.89552 10.0781 8.02243C10.0961 8.08187 10.1159 8.14212 10.1374 8.20141C10.16 8.26347 10.1969 8.32547 10.2065 8.3742C10.2174 8.42958 10.2166 8.49746 10.2164 8.55932C10.216 8.69782 10.1733 8.81646 10.167 8.93578C10.1596 9.07759 10.2051 9.20319 10.2164 9.33693C10.2266 9.45645 10.242 9.5728 10.2658 9.6887C10.3011 9.86097 10.3685 10.0272 10.3546 10.2009C10.3502 10.2568 10.3293 10.3125 10.325 10.3737C10.3217 10.4216 10.3312 10.4678 10.325 10.5156C10.3134 10.6052 10.2776 10.6951 10.2559 10.7872C10.2099 10.9825 10.1837 11.2064 10.1967 11.4228C10.2002 11.4816 10.224 11.5422 10.2164 11.5956C10.2105 11.6376 10.1775 11.6891 10.1572 11.7314C10.1194 11.8101 10.0711 11.8906 10.0782 11.9968C9.93326 12.0173 9.76258 12.1296 9.82145 12.2375C9.82735 12.2483 9.84982 12.2606 9.8511 12.2744C9.85224 12.2868 9.83164 12.3262 9.82145 12.3547C9.73659 12.5934 9.59834 12.7956 9.54495 13.0397C9.57464 13.0651 9.60044 13.0499 9.6141 13.0767C9.63127 13.1107 9.56642 13.1796 9.55486 13.2557C9.55011 13.2869 9.55993 13.3158 9.55486 13.3421C9.54052 13.4172 9.49576 13.4831 9.48576 13.5458C9.48366 13.5591 9.49663 13.5802 9.49562 13.5951C9.49042 13.6719 9.43232 13.7628 9.44625 13.8173C9.45516 13.8522 9.51029 13.8814 9.53509 13.916C9.55459 13.9432 9.60816 14.0399 9.60423 14.0642C9.60104 14.0838 9.55573 14.1117 9.54495 14.1444C9.53888 14.1628 9.54943 14.1838 9.54495 14.206C9.53755 14.2433 9.50736 14.2815 9.50549 14.3172C9.50161 14.3914 9.53805 14.469 9.50549 14.4961C9.50257 14.4986 9.48964 14.4995 9.48571 14.5023C9.45603 14.5238 9.51577 14.5623 9.52518 14.5887C9.56112 14.6893 9.50481 14.7796 9.49558 14.8726C9.48147 15.0147 9.51376 15.1853 9.54495 15.3046C9.55774 15.3534 9.56445 15.4064 9.58446 15.4404C9.62789 15.5139 9.76742 15.6313 9.87078 15.6625C10.0806 15.726 10.3649 15.6729 10.4731 15.6131C10.524 15.5851 10.5697 15.5339 10.6015 15.4897C10.7939 15.2227 10.547 14.9203 10.5225 14.6134C10.5118 14.478 10.5471 14.3492 10.5324 14.206C10.773 14.2462 10.8334 14.1235 10.9274 14.0518C11.1186 14.0886 11.3357 14.0758 11.4606 14.021C11.5717 13.9721 11.6797 13.8476 11.747 13.737C11.8547 13.5599 11.882 13.3721 11.8754 13.1508C12.011 13.2227 12.1743 13.3132 12.3197 13.3976C12.4039 13.4465 12.3508 13.4988 12.458 13.5704C12.5025 13.6282 12.5815 13.6743 12.6455 13.7247C12.7033 13.7248 12.7129 13.731 12.7641 13.7247C12.816 13.7673 12.8445 13.8182 12.8825 13.8667C12.9179 13.9116 12.955 13.9729 13.0109 14.0025C13.1009 14.0499 13.2361 14.052 13.3467 14.0394C13.4435 14.0284 13.5369 14.0088 13.5935 13.984C13.7291 13.9244 13.7834 13.8279 13.8206 13.7186C13.8737 13.7234 13.9676 13.6948 14.0082 13.7062C14.0526 13.7186 14.0269 13.7385 14.0576 13.7618C14.0744 13.7751 14.14 13.7798 14.1662 13.768C14.1931 13.7465 14.1763 13.717 14.176 13.6938C14.1741 13.5299 14.1633 13.3998 14.1464 13.2495C14.1401 13.1929 14.1142 13.1108 14.1365 13.0706C14.1471 13.0515 14.1665 13.0573 14.1859 13.0458C14.2436 13.012 14.2155 12.9484 14.2155 12.8793C14.2155 12.6964 14.1781 12.561 14.1661 12.3917C14.1632 12.3496 14.1466 12.2907 14.1562 12.2683C14.1649 12.2482 14.1859 12.2599 14.2057 12.2436C14.2151 12.2358 14.2316 12.2108 14.2353 12.2004C14.2623 12.1236 14.2073 12.0779 14.1661 12.0523C14.1479 12.041 14.1333 12.025 14.1168 12.0153C14.0757 11.991 14.0108 11.9745 13.9983 11.9474C13.9901 11.9298 13.9953 11.8803 14.0081 11.8548C14.0218 11.8276 14.0649 11.8117 14.0773 11.7869C14.0987 11.744 14.0799 11.6916 14.0871 11.6326C14.0958 11.5627 14.1358 11.4907 14.1365 11.4599C14.1373 11.4292 14.1146 11.3887 14.1069 11.3549C14.0978 11.315 14.1019 11.2712 14.0871 11.2438C14.0756 11.2224 14.036 11.2031 14.018 11.1821C13.9971 11.1578 13.9749 11.1271 13.9686 11.1081C13.9573 11.0739 13.9862 11.0171 13.9785 10.9723C13.9734 10.9422 13.9392 10.8946 13.9192 10.8551C13.8989 10.8146 13.8829 10.765 13.86 10.7316C13.8151 10.6662 13.7161 10.6154 13.6724 10.5465C13.6394 10.4944 13.6322 10.4327 13.6032 10.3737C13.5329 10.2303 13.4506 10.0602 13.4255 9.89234C13.4179 9.84179 13.4237 9.78415 13.4156 9.73186C13.4034 9.65199 13.3716 9.59104 13.3959 9.51585C13.4116 9.46718 13.4422 9.40515 13.4749 9.34923C13.5383 9.24056 13.6008 9.13782 13.6723 9.04068C13.7087 8.99124 13.7382 8.93058 13.781 8.89256C13.8316 8.84749 13.9229 8.81003 13.9883 8.76296C14.0204 8.73987 14.0545 8.71955 14.0871 8.69508C14.1573 8.64216 14.2063 8.58661 14.2648 8.52843C14.2959 8.49746 14.3342 8.47128 14.3636 8.44205C14.4254 8.38048 14.4745 8.31411 14.5413 8.26307C14.5842 8.23025 14.6482 8.19876 14.6992 8.16433C14.7535 8.12779 14.7989 8.08609 14.8474 8.05943C14.9009 8.02988 14.9673 8.01159 15.0251 7.97919C15.1588 7.9042 15.2387 7.80072 15.3509 7.72002C15.5013 7.61189 15.6893 7.50816 15.8545 7.41761C15.8917 7.3972 15.9468 7.38164 15.973 7.36206C15.9964 7.34456 16.0085 7.31253 16.0322 7.28801C16.136 7.18079 16.236 7.07754 16.2197 6.91169ZM14.6597 5.31331C14.6213 5.30969 14.6435 5.27854 14.6399 5.26396C14.6316 5.22962 14.6147 5.19656 14.6004 5.17138C14.6178 5.16579 14.631 5.1576 14.6399 5.14669C14.6567 5.14444 14.6585 5.15152 14.6597 5.15902C14.6258 5.21041 14.6876 5.2802 14.6597 5.31331ZM14.8374 5.21457C14.8272 5.22097 14.8221 5.2118 14.8275 5.20838C14.8378 5.20204 14.8429 5.21115 14.8374 5.21457ZM8.55751 4.25801C8.53376 4.2404 8.48261 4.23937 8.48841 4.20865C8.53892 4.20383 8.56011 4.2173 8.60688 4.21482C8.61798 4.26346 8.65424 4.29629 8.67603 4.33825C8.60085 4.33568 8.59354 4.2847 8.55751 4.25801ZM11.9245 12.5708C11.8329 12.5364 11.8152 12.5264 11.7962 12.4474C11.7659 12.3216 11.8733 12.216 11.9048 12.1018C12.0228 12.0953 12.1258 12.0794 12.2603 12.0832C12.3066 12.2703 12.3415 12.4645 12.3392 12.6819C12.2008 12.6508 12.0566 12.6205 11.9245 12.5708Z" fill="#00DBE9"/>
</svg>
