<svg width="39" height="39" viewBox="0 0 39 39" fill="none" xmlns="http://www.w3.org/2000/svg">
<circle cx="19.5" cy="19.5" r="19.5" fill="#DE3D4F"/>
<path d="M19.5006 10.1399C14.3395 10.1399 10.1406 14.3388 10.1406 19.4999C10.1406 24.661 14.3395 28.8599 19.5006 28.8599C24.6618 28.8599 28.8606 24.661 28.8606 19.4999C28.8606 14.3388 24.6618 10.1399 19.5006 10.1399ZM25.6892 14.4563C26.8027 15.8167 27.477 17.5495 27.4946 19.4365C27.231 19.3808 24.5878 18.8447 21.9275 19.1792C21.7105 18.6493 21.5056 18.1831 21.2249 17.6086C24.1809 16.4017 25.5206 14.6843 25.6892 14.4563V14.4563ZM24.8004 13.5318C24.6566 13.7366 23.4531 15.3542 20.6102 16.4197C19.3001 14.0127 17.8481 12.0353 17.6271 11.7394C20.1625 11.1283 22.8342 11.7874 24.8004 13.5318V13.5318ZM16.1016 12.2768C16.3124 12.5659 17.7411 14.5457 19.0658 16.9006C15.326 17.8937 12.0322 17.8794 11.6746 17.8747C12.193 15.3938 13.8649 13.3318 16.1016 12.2768ZM11.5058 19.5121C11.5058 19.4303 11.5074 19.349 11.5098 19.2678C11.8596 19.275 15.7339 19.3249 19.7265 18.13C19.9553 18.5779 20.174 19.0326 20.3747 19.4868C17.4837 20.3011 14.857 22.6393 13.5611 24.8577C12.2841 23.4403 11.5058 21.5655 11.5058 19.5121ZM14.5933 25.8193C15.4284 24.1121 17.6949 21.9084 20.9181 20.8088C22.0405 23.7256 22.5047 26.1701 22.6236 26.8716C20.0529 27.9666 16.9617 27.6662 14.5933 25.8193V25.8193ZM23.9677 26.1396C23.8857 25.6533 23.4602 23.3129 22.4145 20.4394C24.9198 20.0383 27.1209 20.6948 27.3944 20.7811C27.0381 23.0057 25.7612 24.9268 23.9677 26.1396Z" fill="#00DBE9"/>
</svg>
