<svg width="22" height="22" viewBox="0 0 22 22" fill="none" xmlns="http://www.w3.org/2000/svg">
<path d="M17 7.58674V8.01786C17 8.07503 16.9772 8.12986 16.9365 8.17029C16.8959 8.21071 16.8408 8.23342 16.7833 8.23342H16.1333V8.55677C16.1333 8.73533 15.9878 8.88011 15.8083 8.88011H5.19167C5.01219 8.88011 4.86667 8.73533 4.86667 8.55677V8.23342H4.21667C4.1592 8.23342 4.10409 8.21071 4.06346 8.17029C4.02283 8.12986 4 8.07503 4 8.01786V7.58674C4 7.54409 4.01272 7.50241 4.03654 7.46695C4.06036 7.4315 4.09421 7.40387 4.13382 7.38756L10.4172 5.01639C10.4702 4.99454 10.5298 4.99454 10.5828 5.01639L16.8662 7.38756C16.9058 7.40387 16.9396 7.4315 16.9635 7.46695C16.9873 7.50241 17 7.54409 17 7.58674ZM16.35 15.7781H4.65C4.29101 15.7781 4 16.0676 4 16.4247V16.8559C4 16.913 4.02283 16.9679 4.06346 17.0083C4.10409 17.0487 4.1592 17.0714 4.21667 17.0714H16.7833C16.8408 17.0714 16.8959 17.0487 16.9365 17.0083C16.9772 16.9679 17 16.913 17 16.8559V16.4247C17 16.0676 16.709 15.7781 16.35 15.7781ZM6.16667 9.31123V14.4847H5.19167C5.01219 14.4847 4.86667 14.6295 4.86667 14.808V15.3469H16.1333V14.808C16.1333 14.6295 15.9878 14.4847 15.8083 14.4847H14.8333V9.31123H13.1V14.4847H11.3667V9.31123H9.63333V14.4847H7.9V9.31123H6.16667Z" fill="#00DBE9"/>
</svg>
