<svg width="22" height="22" viewBox="0 0 22 22" fill="none" xmlns="http://www.w3.org/2000/svg">
<path d="M11 5.00021C7.68406 5.00021 5 7.74424 5 11.1356V12.2859C5 12.4284 5.03878 12.568 5.11201 12.6891C5.18523 12.8103 5.29001 12.9082 5.41459 12.9719L5.75169 13.1442C5.79882 14.5844 6.95518 15.7371 8.375 15.7371H8.9375C9.24816 15.7371 9.5 15.4795 9.5 15.1619V10.9438C9.5 10.6262 9.24816 10.3686 8.9375 10.3686H8.375C7.64042 10.3686 6.97646 10.6773 6.5 11.1745V11.1356C6.5 8.59828 8.5187 6.53405 11 6.53405C13.4813 6.53405 15.5 8.59828 15.5 11.1356V11.1745C15.0235 10.6773 14.3596 10.3686 13.625 10.3686H13.0625C12.7518 10.3686 12.5 10.6262 12.5 10.9438V15.1619C12.5 15.4795 12.7518 15.7371 13.0625 15.7371H13.625C15.0448 15.7371 16.2012 14.5843 16.2483 13.1442L16.5854 12.9719C16.71 12.9082 16.8148 12.8103 16.888 12.6891C16.9612 12.568 17 12.4284 17 12.2859V11.1356C17 7.74484 14.3165 5.00021 11 5.00021Z" fill="#00DBE9"/>
</svg>
