<svg width="22" height="22" viewBox="0 0 22 22" fill="none" xmlns="http://www.w3.org/2000/svg">
<path d="M10.8144 8.72398L6.33352 12.2834V16.125C6.33352 16.2244 6.37449 16.3198 6.44741 16.3902C6.52034 16.4605 6.61925 16.5 6.72238 16.5L9.44585 16.4932C9.54864 16.4927 9.64705 16.453 9.71956 16.3827C9.79206 16.3124 9.83276 16.2173 9.83276 16.1182V13.8747C9.83276 13.7752 9.87373 13.6798 9.94666 13.6095C10.0196 13.5392 10.1185 13.4997 10.2216 13.4997H11.7771C11.8802 13.4997 11.9791 13.5392 12.052 13.6095C12.1249 13.6798 12.1659 13.7752 12.1659 13.8747V16.1165C12.1658 16.1659 12.1757 16.2148 12.1952 16.2604C12.2146 16.306 12.2433 16.3475 12.2794 16.3825C12.3155 16.4174 12.3584 16.4452 12.4057 16.4641C12.4529 16.483 12.5036 16.4927 12.5548 16.4927L15.2773 16.5C15.3804 16.5 15.4793 16.4605 15.5522 16.3902C15.6252 16.3198 15.6661 16.2244 15.6661 16.125V12.2808L11.1862 8.72398C11.1336 8.68303 11.068 8.6607 11.0003 8.6607C10.9327 8.6607 10.8671 8.68303 10.8144 8.72398ZM17.8924 11.1432L15.8606 9.52797V6.28128C15.8606 6.20668 15.8298 6.13514 15.7751 6.08239C15.7204 6.02963 15.6463 6 15.5689 6H14.2079C14.1306 6 14.0564 6.02963 14.0017 6.08239C13.947 6.13514 13.9163 6.20668 13.9163 6.28128V7.98327L11.7404 6.25667C11.5315 6.09094 11.2695 6.00033 10.9991 6.00033C10.7287 6.00033 10.4666 6.09094 10.2578 6.25667L4.10584 11.1432C4.07631 11.1668 4.05188 11.1957 4.03394 11.2283C4.016 11.261 4.00491 11.2967 4.0013 11.3335C3.99769 11.3703 4.00163 11.4074 4.01289 11.4427C4.02416 11.4781 4.04253 11.5109 4.06696 11.5394L4.6867 12.266C4.71106 12.2946 4.74102 12.3182 4.77487 12.3356C4.80872 12.353 4.8458 12.3638 4.88397 12.3673C4.92215 12.3709 4.96067 12.3671 4.99734 12.3563C5.03401 12.3455 5.06811 12.3278 5.09768 12.3042L10.8144 7.76293C10.8671 7.72199 10.9327 7.69966 11.0003 7.69966C11.068 7.69966 11.1336 7.72199 11.1862 7.76293L16.9032 12.3042C16.9327 12.3278 16.9668 12.3455 17.0034 12.3564C17.04 12.3672 17.0785 12.371 17.1166 12.3675C17.1548 12.3641 17.1918 12.3534 17.2257 12.3361C17.2595 12.3188 17.2895 12.2952 17.3139 12.2667L17.9337 11.5401C17.9581 11.5114 17.9764 11.4784 17.9875 11.443C17.9986 11.4075 18.0024 11.3702 17.9985 11.3334C17.9947 11.2965 17.9833 11.2607 17.9651 11.2281C17.9469 11.1954 17.9222 11.1666 17.8924 11.1432Z" fill="#00DBE9"/>
</svg>
