<svg width="22" height="22" viewBox="0 0 22 22" fill="none" xmlns="http://www.w3.org/2000/svg">
<path d="M16.3878 5.08477V5.09206L8.75907 6.55142C8.69939 6.5628 8.65665 6.61212 8.65665 6.66918V7.61139V8.56717V15.6972C8.09903 15.4367 7.24674 15.484 6.44388 15.8761C5.32863 16.4207 4.73387 17.4206 5.11556 18.1098C5.49726 18.799 6.71072 18.9162 7.82597 18.3718C8.75689 17.9172 9.36782 17.1434 9.36363 16.5024V8.51887C9.36363 8.46853 9.40139 8.42519 9.45392 8.41527L16.2529 7.11978C16.3227 7.1065 16.388 7.15655 16.388 7.22339V13.8824C15.8302 13.6219 14.9781 13.6692 14.1752 14.0613C13.0598 14.6058 12.4652 15.6058 12.8467 16.295C13.2284 16.9842 14.4419 17.1014 15.5573 16.5569C16.4882 16.1024 17.0539 15.3311 16.9946 14.6875H17V5.12022C17 5.04478 16.9268 4.98802 16.848 5.00217L16.3878 5.08477Z" fill="#A8EEB7"/>
</svg>
