<svg width="22" height="22" viewBox="0 0 22 22" fill="none" xmlns="http://www.w3.org/2000/svg">
<path d="M18.6613 5.56228C18.5771 5.51148 18.3652 5.48204 18.2272 5.48476C18.0892 5.48739 18.0327 5.48748 18.1215 5.41639C18.2103 5.3453 18.4545 5.30373 18.5864 5.26787C18.7182 5.23201 18.7104 5.18193 18.6768 5.07245C18.6432 4.96296 18.2297 5.06113 18.1135 5.11238C17.9973 5.16364 17.6369 5.22821 17.5642 5.23563C17.4916 5.24297 17.3248 4.98886 17.2638 4.83129C17.2027 4.67372 17.1081 4.7708 17.076 4.87286C17.044 4.97492 17.1716 5.10124 17.2115 5.19887C17.2515 5.2964 17.1401 5.31143 17.1401 5.31143C17.1401 5.31143 16.927 5.32538 16.8656 5.38804C16.8042 5.45071 16.6501 5.40561 16.4814 5.39248C16.2323 5.37301 16.3202 5.50342 16.1793 5.48748C16.0385 5.47163 15.9927 5.54018 15.9644 5.5957C15.9362 5.65121 15.6559 5.55911 15.4809 5.57677C15.3057 5.59443 14.9928 5.58845 14.9121 5.68308C14.8313 5.77781 14.6085 5.7702 14.4964 5.81539C14.3843 5.86058 14.0531 5.8978 13.9454 5.91238C13.8378 5.92705 13.6076 5.95784 13.4592 5.90504C13.3109 5.85225 13.0356 5.92143 13.0356 5.92143C13.0356 5.92143 12.669 5.98102 12.6053 5.90848C12.5415 5.83586 12.4256 5.80615 12.4256 5.80615C12.5183 5.75535 12.387 5.57297 12.4346 5.52298C12.4823 5.47299 12.4597 5.24949 12.4264 5.10604C12.3931 4.9626 12.4883 4.74979 12.5102 4.66856C12.5321 4.58732 12.5631 4.37343 12.448 4.31357C12.3328 4.25371 12.1573 4.1924 12.1572 4.15473C12.1572 4.11714 11.7208 4.0821 11.6764 4.01508C11.632 3.94807 11.2509 4.1243 11.1372 4.15427C10.9844 4.19466 10.8538 4.40295 10.7239 4.64564C10.5941 4.88834 10.6205 5.0806 10.5951 5.15495C10.5583 5.26325 10.4929 5.53873 10.4929 5.53873C10.4929 5.53873 10.4543 5.51582 10.2721 5.57559C10.09 5.63536 9.64734 5.57469 9.48261 5.58383C9.31797 5.59298 9.02574 5.49445 8.7154 5.55214C8.40505 5.60982 7.6689 5.66162 7.47945 5.50007C7.29 5.33851 7.03726 5.51836 6.72836 5.47806C6.41946 5.43776 5.90364 5.25836 5.76925 5.26914C5.63486 5.27992 5.33946 5.33987 5.25642 5.22214C5.20317 5.14661 5.10718 5.16944 4.93602 5.09645C4.76496 5.02336 4.78325 5.14861 4.69351 5.15476C4.60385 5.16101 4.60847 5.06738 4.55251 5.01657C4.49654 4.96577 4.4547 5.0547 4.4547 5.0547C4.4547 5.0547 4.34422 5.01313 4.29333 4.97501C4.24243 4.93688 4.19652 4.81734 4.19752 4.73439C4.19851 4.65153 4.21798 4.54603 4.13802 4.51832C4.05806 4.49061 3.97918 4.54757 3.96795 4.69735C3.95672 4.84714 4.01377 4.90908 4.08341 5.03948C4.15305 5.1698 4.03533 5.19724 3.96714 5.21118C3.92675 5.21942 3.61278 5.20557 3.52448 5.20693C3.43619 5.20829 3.06372 5.1161 3.04018 5.27466C3.01663 5.43323 3.32517 5.41331 3.4841 5.42173C3.64303 5.43015 3.75631 5.49019 3.7728 5.52243C3.78919 5.55467 3.52657 5.59995 3.47151 5.61308C3.41636 5.62621 3.25571 5.69323 3.16569 5.7155C3.07577 5.73778 2.98041 5.76241 3.0035 5.86076C3.02659 5.95911 3.14876 5.92044 3.20092 5.91519C3.25308 5.90993 3.58145 5.84482 3.67961 5.81041C3.77778 5.776 3.82949 5.76703 3.77071 5.81811C3.71185 5.86918 3.43003 6.05945 3.3824 6.09069C3.33476 6.12184 3.21052 6.17762 3.26947 6.25822C3.32843 6.33882 3.41889 6.28457 3.50773 6.25107C3.59657 6.21765 3.8888 6.01879 3.93182 5.97867C3.97483 5.93855 4.02464 5.98437 4.02908 6.01009C4.03352 6.03581 3.92983 6.23857 3.86082 6.35657C3.79181 6.47457 3.8783 6.49214 3.9435 6.48561C4.0087 6.479 4.16999 6.17581 4.19616 6.09974C4.22233 6.02377 4.28237 6.00357 4.34784 5.98066C4.41332 5.95775 4.63935 5.99759 4.78461 5.94525C4.92986 5.89291 4.94626 5.97423 5.02305 6.0369C5.12764 6.12229 5.37134 6.17237 5.51967 6.14765C5.66276 6.12383 5.74109 6.23441 5.92103 6.2652C6.10097 6.29599 6.71441 6.57083 6.90024 6.6085C7.08607 6.64618 7.74253 6.83961 7.99301 6.85944C8.24341 6.87936 8.68787 7.25591 8.68787 7.25591C8.68787 7.25591 8.75832 7.65527 8.7816 7.84861C8.80487 8.04196 8.48067 8.70693 8.46111 8.88578C8.44155 9.06463 8.26396 9.20681 8.12767 9.31086C7.99138 9.41492 7.98359 9.78458 8.05704 9.87876C8.13057 9.97294 7.97861 10.1087 8.00071 10.2156C8.02281 10.3226 7.89104 10.2788 7.8761 10.3976C7.80438 10.9675 7.9883 11.1443 7.9883 11.1443C7.98242 11.2352 8.02434 11.568 8.14388 11.8194C8.26333 12.0708 8.62774 12.4744 8.65644 12.5719C8.68515 12.6694 8.7825 13.3356 8.72029 13.3531C8.65807 13.3707 8.64368 13.5265 8.54035 13.5833C8.43693 13.6402 7.92346 13.4749 7.82502 13.3946C7.72659 13.3142 7.5519 13.3357 7.43716 13.3548C7.32242 13.3739 7.02277 13.2762 6.93402 13.2174C6.84527 13.1586 6.53456 13.1373 6.4796 13.0036C6.42472 12.8699 6.21055 12.9103 6.0614 12.8501C5.91234 12.7899 5.72479 13.0195 5.55753 13.0403C5.39026 13.0609 5.45637 13.2311 5.45737 13.3891C5.45836 13.547 5.51714 14.0191 5.53516 14.1603C5.55318 14.3015 5.52031 14.6175 5.52954 14.8872C5.53996 15.1929 5.6125 15.5224 5.73249 15.5554C5.85248 15.5885 6.02345 15.5298 6.12614 15.4291C6.22893 15.3284 6.15965 15.0155 6.15965 15.0155C6.22965 14.9633 6.35634 14.5779 6.35634 14.5779C6.35634 14.5779 6.70726 14.5312 6.83585 14.6311C6.96454 14.731 6.90875 14.8495 7.15634 14.8415C7.40393 14.8334 7.39234 14.9983 7.55163 15.0104C7.71092 15.0226 7.95787 14.9525 8.14968 15.063C8.34148 15.1735 8.54723 15.2543 9.01161 15.2694C9.47609 15.2847 9.97932 15.0513 9.97932 15.0513C10.0954 15.2315 10.2114 16.1945 10.1814 16.3443C10.1514 16.4941 10.2466 16.7291 10.2221 16.8595C10.1977 16.9899 10.3851 17.0199 10.3382 17.1149C10.2914 17.2099 10.2996 17.292 10.3076 17.4078C10.3156 17.5236 10.408 17.582 10.408 17.582C10.4107 17.6458 10.3879 17.9416 10.5623 18.0294C10.7368 18.1172 11.3335 18.3241 11.6689 18.3655C12.0042 18.4068 12.5516 18.3478 12.5928 18.2722C12.6341 18.1965 12.5883 17.8926 12.5275 17.7745C12.4666 17.6564 12.2005 17.593 12.2005 17.593C12.1673 17.4872 11.9144 17.2192 11.8573 17.1384C11.8003 17.0576 11.7714 17.0511 11.845 16.9421C11.9186 16.833 11.632 16.845 11.7247 16.7566C11.8173 16.6682 11.7472 16.3648 11.5966 16.1598C11.4461 15.9549 11.5782 15.6423 11.6346 15.4729C11.6908 15.3036 11.668 14.7413 11.7145 14.4205C11.7612 14.0997 11.6114 13.5672 11.605 13.4381C11.5987 13.3088 11.4039 12.9108 11.3634 12.6213C11.3229 12.3319 11.0543 12.0203 10.9861 11.9594C10.9178 11.8986 10.7973 11.4874 10.7973 11.4874C10.7973 11.4874 11.051 11.4843 11.1291 11.42C11.2073 11.3556 11.4828 10.7295 11.5989 10.5935C11.715 10.4576 11.721 9.79092 11.8857 9.57665C12.0503 9.36248 12.0975 9.04725 12.1626 8.74143C12.2277 8.43571 12.6109 7.64622 12.6109 7.64622C12.6109 7.64622 12.821 7.60239 13.4183 7.47995C14.0156 7.35751 14.6272 7.20827 15.0461 7.02489C15.4651 6.84142 16.2333 6.59447 16.419 6.53343C16.6048 6.4723 16.8774 6.29236 16.9202 6.35295C16.963 6.41353 17.0529 6.269 17.1577 6.32895C17.2626 6.3889 17.4421 6.23812 17.4843 6.18025C17.5264 6.12238 17.4825 6.02241 17.4825 6.02241C17.5461 5.98211 17.6803 6.08145 17.7695 6.1261C17.8587 6.17074 17.8526 6.22218 17.8977 6.30513C17.9428 6.38808 18.0376 6.54502 18.1309 6.46225C18.2241 6.37948 18.0711 6.23404 18.0331 6.19266C17.995 6.15136 17.9379 6.03291 17.968 5.99596C17.9982 5.95902 18.0768 6.03862 18.1727 6.12211C18.2686 6.20561 18.4054 6.24536 18.4997 6.14557C18.5941 6.04568 18.3716 5.96653 18.3106 5.92189C18.2497 5.87724 18.0995 5.81621 18.1076 5.75607C18.1157 5.69594 18.287 5.74358 18.3722 5.7491C18.4574 5.75463 18.6589 5.79348 18.7106 5.74593C18.7625 5.69884 18.7454 5.61308 18.6613 5.56228ZM5.85175 15.5321C5.78909 15.5369 5.77858 15.5639 5.70441 15.4758C5.63015 15.3878 5.57165 14.9435 5.59348 14.787C5.6153 14.6306 5.59131 14.0571 5.54901 13.862C5.50672 13.6668 5.505 13.164 5.505 13.164C5.505 13.164 5.49558 13.1061 5.5587 13.0997C5.62182 13.0934 5.60516 13.1525 5.60516 13.1525C5.60516 13.1525 5.59973 13.6574 5.64202 13.8526C5.68431 14.0477 5.70831 14.6211 5.68648 14.7776C5.66466 14.9341 5.72325 15.3784 5.79742 15.4664C5.79733 15.4664 5.88951 15.5291 5.85175 15.5321ZM6.36812 13.4028C6.32945 13.0567 5.84813 12.9653 5.85655 12.9578C5.88417 12.9328 5.87946 12.938 5.94765 12.9001C6.01584 12.8621 6.09925 12.9242 6.21064 12.9469C6.32202 12.9695 6.43205 13.1781 6.44935 13.3494C6.46665 13.5208 6.40688 13.749 6.36812 13.4028ZM12.5288 17.821C12.5288 17.821 12.5935 18.0378 12.5792 18.2145C12.5792 18.2145 12.5511 17.9775 12.5052 17.907C12.4593 17.8364 12.5288 17.821 12.5288 17.821ZM10.7083 4.76726C10.741 4.68114 10.8792 4.48336 10.9138 4.4159C10.9484 4.34843 11.0208 4.24492 11.1038 4.21051C11.1699 4.18307 11.311 4.15165 11.3974 4.11289C11.4838 4.07404 11.7682 4.08047 11.6219 4.15925C11.4755 4.23804 10.8601 4.33104 11.4559 4.38004C12.0517 4.42903 10.8365 4.44261 11.194 4.49305C11.5514 4.54349 10.9457 4.54449 10.9764 4.73711C11.0071 4.92973 10.7562 4.78347 10.6446 5.08286C10.6404 5.09391 10.6756 4.85339 10.7083 4.76726ZM11.4974 4.94412C11.474 4.96803 11.3438 4.97274 11.2193 4.99167L11.0325 5.02164C11.4523 4.79651 11.5683 4.87177 11.4974 4.94412ZM7.31663 5.68988C7.06415 5.79818 6.41412 5.5477 6.28734 5.48521C6.16056 5.42273 5.8053 5.55648 5.74109 5.44256C5.67688 5.32864 5.27842 5.48177 5.20525 5.35363C5.13208 5.22549 5.08273 5.40742 4.82898 5.35399C4.57524 5.30056 4.54744 5.13783 4.54744 5.13783C4.66743 5.27349 4.73471 5.19416 4.82944 5.15359C4.92416 5.11302 4.9602 5.16301 5.10528 5.20195C5.25035 5.24098 5.11406 5.28852 5.40104 5.33579C5.68811 5.38297 5.57202 5.26769 6.05804 5.38515C6.54407 5.5026 6.84844 5.55368 7.11867 5.518C7.3888 5.48222 7.38138 5.54788 7.64047 5.62621C7.89956 5.70446 8.49199 5.64596 8.85459 5.6024C9.15017 5.5669 9.67532 5.704 9.86902 5.69757C10.1602 5.68788 10.502 5.63083 10.502 5.63083C10.1974 5.74439 9.11576 5.71442 8.74075 5.81711C8.38196 5.91537 7.5692 5.58157 7.31663 5.68988ZM8.07786 11.4012C8.07786 11.4012 8.04028 11.2437 8.05341 11.1591C8.06655 11.0745 7.9749 11.0893 7.94773 10.9044C7.92056 10.7195 7.89177 10.4345 7.93116 10.391C7.97055 10.3475 8.08294 10.3009 8.06935 10.2359C8.05577 10.171 8.07787 10.0967 8.11997 9.98245C8.16208 9.86816 8.06537 9.86092 8.05378 9.76049C8.04227 9.66006 8.07035 9.41872 8.13247 9.37851C8.19459 9.33839 8.45876 9.14514 8.50068 9.00124C8.54261 8.85726 8.514 8.79812 8.6223 8.52889C8.73061 8.25966 8.88827 8.02267 8.83566 7.80025C8.78314 7.57784 8.73958 7.29621 8.73958 7.29621C8.73958 7.29621 8.82235 7.53809 9.06613 7.64151C9.35139 7.7624 9.71127 7.88122 9.40002 7.87316C9.08868 7.8651 9.18395 8.08126 9.05318 8.07193C8.92241 8.06251 9.16602 8.57426 9.10752 8.77775C9.04902 8.98123 8.68977 9.11345 8.82579 9.28605C8.96172 9.45866 8.98264 10.2242 8.74954 10.1518C8.51644 10.0793 8.9264 10.3936 8.58264 10.3437C8.23888 10.2937 8.55773 10.6002 8.67637 10.7124C8.795 10.8246 7.93614 10.9848 8.29783 11.1007C8.65952 11.2166 9.06233 11.5356 8.68977 11.4977C8.67854 11.4963 8.19342 11.4648 8.07786 11.4012ZM8.85993 13.7798C8.70218 13.6339 8.68923 13.7292 8.75497 13.8581C8.82063 13.987 8.54125 13.6426 8.59921 13.8061C8.65717 13.9696 8.34728 13.7337 8.18409 13.6824C8.02081 13.6311 7.11658 13.6585 7.07402 13.4972C7.03137 13.3359 6.90087 13.5711 6.87017 13.4538C6.83948 13.3365 6.67031 13.4163 6.62032 13.2532C6.62032 13.2532 6.75082 13.2043 6.83794 13.2463C6.92496 13.2883 7.16485 13.3902 7.27434 13.3942C7.38391 13.3981 7.47348 13.391 7.54873 13.3909C7.62399 13.3908 7.71808 13.3738 7.79351 13.4395C7.86886 13.5053 8.13981 13.5984 8.31196 13.6262C8.48411 13.654 8.63842 13.691 8.71775 13.4892C8.71775 13.4892 8.94333 13.6359 8.97177 13.7684C9.00011 13.901 9.01768 13.9256 8.85993 13.7798ZM10.2889 16.7026C10.288 16.6942 10.2348 16.5303 10.257 16.3868C10.2792 16.2435 10.1808 15.3813 10.0413 15.0058C9.90172 14.6304 9.45182 13.4734 9.23131 13.1344C9.0108 12.7954 8.69855 12.4431 8.63426 12.3649C8.56987 12.2867 8.26949 11.967 8.15855 11.6508C8.15855 11.6508 8.33596 11.9265 8.6339 11.9698C9.02529 12.0266 8.5542 12.038 8.79065 12.2926C9.0271 12.5473 9.75981 12.3679 9.75981 12.3679C9.75981 12.3679 9.39033 12.5106 9.26364 12.5233C9.13695 12.5361 9.21908 12.6784 9.41723 12.6283C9.61537 12.5781 10.2322 12.3503 10.0147 12.5078C9.7973 12.6652 9.32495 12.7581 9.47926 12.7952C9.63357 12.8323 10.7907 12.7381 10.3638 12.8339C9.93694 12.9297 9.68293 13.023 9.81487 13.0624C9.94681 13.1018 10.2122 13.2707 10.1476 13.4504C10.0829 13.6301 10.004 14.4886 10.1852 14.4928C10.3662 14.4971 9.93042 14.654 10.2174 14.6627C10.5044 14.6714 10.24 14.9615 10.3066 15.2483C10.3732 15.5351 10.447 16.3565 10.3548 16.4703C10.2625 16.584 10.2889 16.7026 10.2889 16.7026ZM10.3621 17.3444C10.3621 17.3444 10.3436 17.2447 10.3606 17.1894C10.3775 17.134 10.6734 17.0167 10.8549 16.9701C11.0365 16.9236 10.9265 16.9798 10.8087 17.0426C10.6908 17.1052 10.3944 17.5545 10.3621 17.3444ZM11.605 16.2512C11.605 16.2512 11.3031 16.0389 11.5483 15.5223C11.5484 15.5223 11.3862 15.9945 11.605 16.2512ZM11.3156 12.5991C11.3632 12.8199 11.4479 13.1336 11.5066 13.2584C11.5653 13.3832 11.5655 13.599 11.6189 13.7838C11.6722 13.9687 11.6966 14.2371 11.6766 14.4589C11.6566 14.6806 11.6452 14.927 11.6452 14.927C11.6452 14.927 11.6087 14.455 11.6283 14.2977C11.6479 14.1402 11.5903 13.8729 11.5366 13.7525C11.4828 13.632 11.5023 13.4034 11.3917 13.1855C11.281 12.9676 11.2855 12.508 11.0607 12.1404C11.0607 12.1404 11.2681 12.3784 11.3156 12.5991ZM11.4057 17.2645C11.4421 17.3003 11.3865 17.3202 11.326 17.3304C11.2205 17.348 11.2933 17.4227 11.3531 17.4178C11.425 17.412 11.5198 17.3771 11.5537 17.3765C11.5875 17.3758 11.6565 17.4498 11.5885 17.4689C11.4359 17.5118 11.3699 17.5689 11.439 17.5941C11.5172 17.6224 11.5827 17.6066 11.766 17.5498C11.8365 17.528 11.9374 17.6539 11.7794 17.6839C11.6216 17.714 11.2931 17.8995 11.3467 18.0098C11.4002 18.1201 11.906 18.182 12.0134 18.2389C12.1208 18.2957 11.8835 18.3225 11.6442 18.3015C11.405 18.2805 10.5757 18.0058 10.5194 17.924C10.4632 17.8422 10.4724 17.6267 10.4724 17.6267C10.714 17.4753 10.6738 17.3015 10.7705 17.2247C10.8673 17.1479 10.8876 17.2658 11.0845 17.2036C11.2816 17.1415 11.3694 17.2286 11.4057 17.2645ZM11.1751 16.7298C11.3267 16.7032 11.4434 16.778 11.2642 16.7923C11.085 16.8066 10.5861 16.9762 10.6349 16.9424C10.8064 16.8235 11.0235 16.7564 11.1751 16.7298ZM10.7802 5.37709C10.7518 5.48295 10.7382 5.60031 10.7344 5.71795L10.7329 5.76305C10.732 5.77817 10.7322 5.79239 10.7303 5.80824C10.7278 5.83966 10.7234 5.86982 10.7169 5.89952C10.7043 5.95902 10.6853 6.0158 10.6617 6.06832C10.6138 6.17319 10.5492 6.25967 10.4869 6.3256C10.4243 6.39162 10.3647 6.43816 10.3221 6.46886C10.2791 6.49911 10.2524 6.51305 10.2524 6.51305C10.2524 6.51305 10.277 6.49567 10.3162 6.46125C10.3557 6.4273 10.4096 6.37559 10.4654 6.30667C10.5213 6.23821 10.5792 6.15164 10.6202 6.0503C10.641 5.99986 10.6575 5.94579 10.6677 5.88974C10.6727 5.86176 10.6763 5.83305 10.6785 5.80516C10.6802 5.79148 10.6798 5.77573 10.6805 5.76106L10.6815 5.7165C10.6822 5.65583 10.687 5.59515 10.6957 5.53584C10.7039 5.47652 10.7157 5.41829 10.7328 5.3635C10.7653 5.25356 10.816 5.15649 10.8741 5.08522C10.9316 5.01304 10.9957 4.9684 11.0422 4.94367C11.0892 4.91868 11.1193 4.91343 11.1193 4.91343C11.1193 4.91343 11.0908 4.92402 11.0481 4.95336C11.0051 4.98216 10.9504 5.03296 10.9006 5.10505C10.8508 5.17713 10.8082 5.27113 10.7802 5.37709ZM11.2331 5.49481C11.5228 5.60702 11.5361 5.32474 11.5147 5.55866C11.4896 5.83214 11.5394 5.99433 11.4742 5.97631C11.4069 5.95775 11.3934 5.93774 11.3674 5.89554C11.2973 5.78188 11.3092 5.89436 11.3843 5.97486C11.4416 6.03635 11.4303 6.104 11.3004 6.07167C11.1462 6.03337 11.492 6.17101 11.3567 6.18496C11.259 6.19501 11.415 6.47665 11.302 6.44197C10.9728 6.34063 11.1056 6.17138 11.0217 5.94996C10.9344 5.71976 10.897 5.36468 11.2331 5.49481ZM12.1267 8.67333C12.101 8.80817 12.0169 9.34247 11.9074 9.47677C11.7979 9.61098 11.7429 9.81165 11.7104 10.0049C11.6776 10.2005 11.6491 10.4841 11.5903 10.557C11.5154 10.6499 11.4505 10.8009 11.4003 10.8657C11.477 10.6678 11.5512 10.5205 11.5883 10.3849C11.6254 10.2493 11.697 9.69121 11.7461 9.56398C11.7953 9.43674 11.9279 9.30416 11.9543 9.04064C11.9713 8.87102 12.1146 8.46604 12.1661 8.3609C12.2259 8.23874 12.5323 7.70553 12.5323 7.70553C12.5323 7.70553 12.1523 8.5384 12.1267 8.67333ZM14.2554 7.22566C13.9409 7.33342 12.8693 7.54099 12.8693 7.54099C13.4522 7.39283 14.0901 7.19279 14.3356 7.10105C14.5812 7.00932 15.15 6.91025 15.15 6.91025C14.8234 7.07959 14.5698 7.1179 14.2554 7.22566ZM15.5109 6.79261C15.5109 6.79261 15.7046 6.69961 15.8822 6.60533C16.0598 6.51106 16.3003 6.53678 16.3003 6.53678C16.1105 6.56648 15.5109 6.79261 15.5109 6.79261ZM16.4447 5.63183C16.2622 5.47145 15.7934 5.94598 15.5826 5.87127C15.3718 5.79655 15.3291 6.10011 15.2261 5.97504C15.1231 5.84998 15.0305 5.99479 14.3851 6.08824C13.7397 6.18161 13.0582 5.97387 13.0582 5.97387C13.0582 5.97387 13.249 5.88793 13.4565 5.94869C13.6639 6.00946 14.1368 5.93638 14.3219 5.89563C14.5124 5.85361 14.69 5.80815 14.8271 5.78677C14.9642 5.7654 14.9525 5.66307 15.2213 5.635C15.4839 5.60756 15.6482 5.61353 15.8582 5.65727C16.0401 5.69513 15.9999 5.58836 16.0818 5.54254C16.1638 5.49662 16.2422 5.54707 16.3231 5.47299C16.4041 5.399 16.588 5.48766 16.7787 5.49282C16.9693 5.49807 16.9475 5.31958 17.0857 5.38469C17.224 5.44971 17.2805 5.52497 17.2805 5.52497C16.655 5.36785 16.7998 5.94407 16.4447 5.63183Z" fill="#00DBE9"/>
</svg>
