<svg width="39" height="39" viewBox="0 0 39 39" fill="none" xmlns="http://www.w3.org/2000/svg">
<path d="M15.3258 14.4562C14.6318 14.1154 14.1808 13.4583 13.9335 12.7405C13.831 12.4428 13.7603 12.1343 13.7149 11.8227C13.6947 11.6833 13.6859 10.7393 13.6771 10.5989C13.6698 10.4835 13.68 10.3463 13.64 10.2366C13.5639 10.0278 13.1258 9.90632 12.9212 9.9661C12.7626 10.0124 12.7616 10.2175 12.7709 10.3512C12.7848 10.5558 12.7863 11.5608 12.7855 11.7666C12.7841 12.1804 12.7828 12.5942 12.7814 13.008C12.7794 13.5495 12.7777 14.0907 12.7758 14.6321C12.7736 15.2559 12.7716 15.8797 12.7694 16.5034C12.7672 17.1644 12.765 17.8257 12.7626 18.4867C12.7604 19.1401 12.7582 19.7933 12.756 20.4467C12.7541 21.0472 12.7519 21.6477 12.7499 22.2482C12.7482 22.7507 12.7465 23.2532 12.7448 23.7557C12.7436 24.1151 12.7424 24.4745 12.7411 24.8339C12.7406 25.0052 12.7399 25.1764 12.7394 25.3477C12.7394 25.3496 12.7377 25.3712 12.7394 25.3722C11.864 24.9348 10.5265 25.0142 9.26639 25.6725C7.51572 26.5869 6.58244 28.2659 7.18128 29.423C7.78037 30.5801 9.29444 30.8332 11.0449 29.9189C12.506 29.1557 13.4649 27.8565 13.4583 26.7802V16.2278C15.5951 16.1624 17.576 18.7591 17.576 18.7591C19.5701 22.2864 16.3359 25.8007 16.3359 25.8007C16.1217 26.4671 16.5598 26.3264 16.5598 26.3264C17.7036 25.6343 19.0323 23.4497 19.0323 23.4497C22.0911 18.3164 15.3258 14.4562 15.3258 14.4562Z" fill="#00DBE9"/>
<path d="M31.6294 16.6005C31.59 16.4747 31.5443 16.351 31.4947 16.2284C31.9242 15.0751 31.6883 14.1521 31.6883 14.1521C31.1153 12.3284 29.4579 10.8151 27.863 9.80649C26.5517 8.97678 25.9596 8.76182 25.572 7.49901C25.5604 7.40685 25.5419 7.31199 25.5119 7.22792C25.5054 7.21003 25.4936 7.19483 25.4828 7.17914C25.4823 7.17694 25.4816 7.17498 25.4811 7.17277C25.4811 7.17375 25.4806 7.17448 25.4806 7.17571C25.3616 7.01099 25.0129 6.96785 24.8296 7.02227C24.6733 7.06859 24.6815 7.25635 24.6815 7.40759C24.6815 7.44019 24.6822 7.47425 24.6827 7.50759L24.6519 22.4125C23.7888 21.975 22.4703 22.0959 21.228 22.7545C19.5021 23.6692 18.582 25.349 19.1724 26.5066C19.763 27.6643 21.6406 27.8614 23.3666 26.9466C24.807 26.1833 25.3673 24.9225 25.3609 23.8457V12.5907C25.768 12.8348 25.8077 12.8836 26.4447 13.1809C28.7254 14.2452 31.3877 17.0919 30.459 19.6607C30.3354 20.0026 29.9547 20.6465 29.7878 20.9674C29.4083 21.6968 30.3878 21.5002 30.7805 20.9112C31.6568 19.5972 32.0991 18.0952 31.6294 16.6005ZM27.8041 12.2549C27.0214 11.7598 26.2196 11.1548 25.5944 10.472C25.7971 10.5756 26.033 10.5749 26.5038 10.7325C28.8872 11.5299 30.4811 12.5449 30.8426 14.9786C30.8426 14.9786 30.8435 15.0014 30.8455 15.0416C30.061 13.9109 28.918 12.9596 27.8041 12.2549Z" fill="#00DBE9"/>
</svg>
