<svg width="22" height="22" viewBox="0 0 22 22" fill="none" xmlns="http://www.w3.org/2000/svg">
<path fill-rule="evenodd" clip-rule="evenodd" d="M10.3869 13.0847L10.2128 13.3682C10.0121 13.6948 10.1786 14.1391 10.4908 14.3243C10.6369 14.411 10.7789 14.4501 10.9499 14.4203C11.0854 14.3967 11.2125 14.3366 11.3489 14.3179C11.4057 14.31 11.462 14.3098 11.5182 14.3196C11.5519 14.3255 11.5828 14.3395 11.6083 14.3622C11.7366 14.4764 11.6535 14.7059 11.5796 14.8311C11.4475 15.0549 11.224 15.224 10.9873 15.3228C10.7879 15.4061 10.569 15.4339 10.3614 15.4895C10.1364 15.5497 9.94772 15.6368 9.7851 15.8111C9.66351 15.9413 9.62456 16.1444 9.60465 16.3136C9.57506 16.5661 9.57589 16.8269 9.55982 17.081C9.51729 17.7532 9.37562 18.3468 8.89029 18.855C8.3461 19.4248 7.60069 19.7554 6.82225 19.776C5.86528 19.8013 5.01234 19.367 4.33966 18.7246C3.65243 18.0682 3.18956 17.2105 3.15589 16.2384C3.12938 15.4725 3.38314 14.6793 3.92447 14.1124C4.39165 13.6233 4.97354 13.4461 5.61783 13.3588C5.86854 13.3249 6.1237 13.3075 6.37292 13.2662C6.53016 13.2401 6.73649 13.1959 6.85918 13.0847C6.99159 12.9647 7.06238 12.8389 7.10249 12.6671C7.13896 12.5112 7.149 12.3535 7.19167 12.1972C7.25067 11.981 7.35669 11.8061 7.51206 11.6434C7.77252 11.3707 8.08844 11.2011 8.4677 11.2263C8.99915 11.2615 9.48765 11.667 9.85493 12.0163L9.85516 12.0165L15.8002 5.93206C15.8961 5.83206 15.9921 5.45693 15.939 5.19583C15.9345 5.17345 15.9256 5.14121 15.9737 5.11253C16.0137 5.08857 16.0536 5.06438 16.093 5.03997L16.0545 5.00324L16.0331 4.98284L16.0157 4.96618L15.9602 5.02425C15.9251 5.06109 15.888 5.06625 15.8506 5.03055C15.7588 4.94294 15.7571 4.79595 15.8468 4.70206C15.9363 4.60831 16.0833 4.60316 16.1751 4.69076C16.2125 4.72646 16.209 4.76375 16.1738 4.80059L16.116 4.86112L16.1335 4.87778L16.1432 4.88707L16.1646 4.90747L16.2195 4.95996C16.4257 4.82718 16.6226 4.68789 16.8127 4.54257L16.7636 4.49572L16.7423 4.47532L16.7248 4.45867L16.6693 4.51683C16.6341 4.55362 16.5971 4.55887 16.5597 4.52318C16.4679 4.43557 16.4663 4.28848 16.5559 4.19464C16.6455 4.10084 16.7924 4.09579 16.8842 4.18339C16.9216 4.21909 16.9181 4.25629 16.8829 4.29318L16.8251 4.35366L16.8523 4.37961L16.8523 4.37956L16.8737 4.39992L16.8736 4.39996L16.9286 4.4525C17.1403 4.28572 17.3439 4.11165 17.5426 3.93133L17.4946 3.88543L17.4558 3.84838L17.4003 3.90644C17.3651 3.94328 17.328 3.94844 17.2907 3.91274C17.199 3.82518 17.1972 3.67814 17.2868 3.58425C17.3764 3.49046 17.5234 3.48535 17.6152 3.57295C17.6525 3.60861 17.6491 3.64595 17.6139 3.68279L17.5561 3.74332L17.5832 3.76922L17.6046 3.78962L17.6499 3.83291C17.7903 3.7029 17.9286 3.56974 18.066 3.4339C18.0938 3.40644 18.106 3.38455 18.1325 3.41198L18.2055 3.48764C18.2176 3.50023 18.2288 3.51495 18.2335 3.53176L18.2599 3.62572C18.2661 3.64758 18.2758 3.66272 18.2921 3.67829L18.3521 3.73561L18.5453 3.92011L18.6053 3.97739C18.6216 3.99296 18.6372 4.00201 18.6593 4.00714L18.7544 4.02916C18.7714 4.03311 18.7866 4.04367 18.7997 4.0551L18.8786 4.12453C18.9074 4.14977 18.8859 4.16304 18.8598 4.192C18.7305 4.33551 18.6038 4.47977 18.4803 4.62598L18.5257 4.66931L18.5471 4.68971L18.5742 4.71561L18.632 4.65508C18.6672 4.61824 18.7042 4.61304 18.7417 4.64878C18.8333 4.73634 18.835 4.88338 18.7455 4.97727C18.6559 5.07111 18.5089 5.07617 18.4172 4.98857C18.3798 4.95287 18.3832 4.91558 18.4184 4.87874L18.4739 4.82067L18.4564 4.80402L18.4351 4.78362L18.387 4.73772C18.216 4.94457 18.0515 5.15592 17.8946 5.37501L17.9496 5.42755L17.9738 5.4507L17.9981 5.47385L18.0558 5.41337C18.091 5.37653 18.1281 5.37132 18.1655 5.40707C18.2572 5.49463 18.259 5.64167 18.1693 5.73556C18.0798 5.82931 17.9327 5.83446 17.841 5.74686C17.8036 5.71111 17.8071 5.67386 17.8422 5.63702L17.8978 5.57886L17.8803 5.56221L17.859 5.54181L17.81 5.49501C17.6736 5.69155 17.5435 5.89466 17.4203 6.10669L17.4749 6.15887L17.4963 6.17927L17.5234 6.20517L17.5812 6.14464C17.6164 6.1078 17.6534 6.10265 17.6908 6.13839C17.7825 6.22595 17.7842 6.37304 17.6947 6.46683C17.605 6.56068 17.458 6.56574 17.3663 6.47818C17.3289 6.44244 17.3324 6.40514 17.3676 6.3683L17.423 6.31023L17.4056 6.29358L17.3842 6.27318L17.3461 6.23676C17.3236 6.27718 17.3012 6.31807 17.2791 6.35928C17.2526 6.40854 17.2201 6.4012 17.1975 6.39767C16.9342 6.35665 16.5639 6.46983 16.4684 6.57019L10.3869 13.0847Z" fill="#00DBE9"/>
</svg>
