<svg width="22" height="22" viewBox="0 0 22 22" fill="none" xmlns="http://www.w3.org/2000/svg">
<path d="M11.4985 4.99994C7.9086 4.99994 4.99854 7.91 4.99854 11.4999C4.99854 15.0899 7.9086 17.9999 11.4985 17.9999C15.0885 17.9999 17.9985 15.0899 17.9985 11.4999C17.9985 7.91 15.0885 4.99994 11.4985 4.99994ZM11.2013 11.2963C11.1256 11.4226 10.989 11.4999 10.8417 11.4999H10.8336C10.7225 11.4999 10.6158 11.5442 10.5372 11.6229L10.3888 11.7712C10.307 11.853 10.307 11.9859 10.3888 12.0676L10.5372 12.216C10.6158 12.2946 10.6601 12.4013 10.6601 12.5124V12.758C10.6601 12.9897 10.4724 13.1774 10.2407 13.1774H10.0806C9.92176 13.1774 9.77656 13.0877 9.70553 12.9454L9.11267 11.7599C9.04872 11.632 8.87809 11.6043 8.77692 11.7054L8.26662 12.2155C8.18799 12.2941 8.08132 12.3384 7.97019 12.3384H6.33025C6.28595 12.0648 6.2566 11.7861 6.2566 11.4999C6.2566 8.60954 8.60813 6.258 11.4985 6.258C12.0623 6.258 12.6046 6.35 13.1138 6.51538L11.7992 7.52524C11.6652 7.61462 11.6778 7.81512 11.8217 7.8872L12.1056 8.02899C12.2476 8.10002 12.3372 8.24522 12.3372 8.40405V10.4516C12.3372 10.5674 12.2434 10.6612 12.1276 10.6612H12.0474C11.968 10.6612 11.8953 10.6164 11.86 10.5454C11.8191 10.4636 11.7038 10.4592 11.6566 10.5375L11.2013 11.2963ZM15.6921 14.1846C15.6921 14.2957 15.6478 14.4024 15.5692 14.481L15.3183 14.7319C15.2397 14.8105 15.133 14.8548 15.0219 14.8548H14.6246C14.5134 14.8548 14.4068 14.8105 14.3281 14.7319L13.9871 14.3909C13.9015 14.3052 13.7951 14.2432 13.6783 14.2108C13.5616 14.1785 13.4384 14.177 13.3209 14.2064L12.7634 14.3458C12.7301 14.3542 12.6961 14.3584 12.6617 14.3584H12.3907C12.2796 14.3584 12.1729 14.3141 12.0943 14.2354L11.7821 13.9233C11.7428 13.8839 11.7208 13.8306 11.7208 13.7749V13.5076C11.7208 13.4219 11.773 13.3448 11.8526 13.3129L12.8837 12.9003C12.9356 12.8796 12.9849 12.8526 13.0302 12.8204L13.6517 12.3777C13.6872 12.3524 13.7297 12.3388 13.7733 12.3389H14.0901C14.1748 12.3389 14.2513 12.3898 14.2838 12.4681L14.4241 12.8049C14.432 12.824 14.4455 12.8403 14.4627 12.8518C14.4799 12.8633 14.5001 12.8694 14.5208 12.8694H14.6204C14.667 12.8694 14.7082 12.8385 14.721 12.7939L14.8311 12.4147C14.8442 12.3698 14.8851 12.3392 14.9317 12.3392H15.0906C15.1485 12.3392 15.1954 12.3861 15.1954 12.444V12.7829C15.1954 12.8385 15.2174 12.8919 15.2567 12.9312L15.5689 13.2434C15.6475 13.322 15.6918 13.4287 15.6918 13.5398V14.1846H15.6921Z" fill="#00DBE9"/>
</svg>
