<svg width="22" height="22" viewBox="0 0 22 22" fill="none" xmlns="http://www.w3.org/2000/svg">
<path d="M9.60449 3.63951C9.60449 3.63951 11.7207 3.13874 11.4139 4.89218C11.4139 4.89218 11.5465 5.14747 12.0054 5.29038C12.4644 5.43337 12.6794 5.24912 12.6794 5.24912C12.8691 2.254 9.69583 3.16544 9.69583 3.16544" fill="#00DBE9"/>
<path d="M11.2881 5.06702C11.2881 5.06702 11.0684 5.06528 11.0516 5.11893C11.0348 5.17258 11.2898 5.46406 11.9781 5.67851C12.6665 5.89296 12.869 5.86184 12.8892 5.79746C12.9093 5.73308 12.6426 5.51655 12.6426 5.51655C12.6426 5.51655 12.4935 5.64083 11.9306 5.46547C11.3679 5.29004 11.2881 5.06702 11.2881 5.06702Z" fill="#00DBE9"/>
<path d="M9.2306 3.76429L8.86293 3.737C8.7147 3.72602 8.60248 3.59576 8.61355 3.44752L8.62827 3.25004C8.63933 3.10198 8.76951 2.98976 8.91766 3.00074L9.28534 3.02803C9.43357 3.03901 9.54579 3.16927 9.53472 3.31751L9.52 3.51498C9.50894 3.66314 9.37867 3.77527 9.2306 3.76429Z" fill="#00DBE9"/>
<path d="M8.79723 3.59675L8.33173 3.56214C8.2156 3.55349 8.12768 3.45142 8.13633 3.3353V3.33522C8.14498 3.21917 8.24705 3.13125 8.36309 3.1399L8.82859 3.1745C8.94471 3.18316 9.03264 3.28522 9.02398 3.40135V3.40143C9.01533 3.51747 8.91335 3.6054 8.79723 3.59675Z" fill="#00DBE9"/>
<path d="M14.1753 10.6666C12.8648 9.75087 11.6606 9.21059 11.4857 9.45972C11.3107 9.70894 12.2313 10.6532 13.5418 11.5689C14.8523 12.4846 16.0565 13.025 16.2314 12.7758C16.4063 12.5266 15.4857 11.5823 14.1753 10.6666ZM15.2328 12.1933C15.1293 12.3407 14.4168 12.0211 13.6416 11.4793C12.8663 10.9376 12.3216 10.3789 12.4251 10.2315C12.5286 10.0841 13.2409 10.4037 14.0163 10.9455C14.7917 11.4872 15.3363 12.0458 15.2328 12.1933Z" fill="#00DBE9"/>
<path d="M6.28628 15.1721C6.26623 15.1639 6.24967 15.1475 6.24186 15.1254L6.00445 14.4508C5.99713 14.4299 5.99888 14.407 6.00944 14.3874L9.36142 8.1652C9.37181 8.14582 9.38995 8.13168 9.41124 8.12627C9.43262 8.12078 9.45533 8.12444 9.4738 8.1365L9.71919 8.29538C9.75571 8.31901 9.76619 8.36775 9.7424 8.40419C9.71869 8.44071 9.66978 8.45102 9.63334 8.4274L9.45982 8.31501L6.16483 14.4314L6.39076 15.0733C6.40515 15.1143 6.38352 15.1592 6.34242 15.1736C6.32346 15.1803 6.30358 15.1792 6.28628 15.1721Z" fill="#00DBE9"/>
<path d="M11.7749 7.36006C11.6798 7.32096 11.6022 7.25051 11.5539 7.15851C11.4994 7.05478 11.4886 6.93607 11.5236 6.82427C11.5586 6.71247 11.6351 6.62097 11.739 6.56665C11.843 6.51233 11.962 6.5016 12.074 6.53646C12.305 6.60791 12.4348 6.8548 12.3625 7.08564C12.2903 7.31639 12.0433 7.44549 11.8121 7.37345C11.7994 7.36954 11.787 7.36505 11.7749 7.36006ZM12.0506 6.69526C12.043 6.69209 12.0351 6.68927 12.027 6.68677C11.9551 6.66439 11.8789 6.6713 11.8123 6.70615C11.7457 6.74101 11.6966 6.79965 11.6742 6.87136C11.6279 7.01926 11.7112 7.17714 11.8591 7.22339C12.0074 7.26956 12.1657 7.18679 12.212 7.03889C12.2558 6.89889 12.1839 6.75007 12.0506 6.69526Z" fill="#00DBE9"/>
<path d="M11.4582 8.23915C11.2502 8.15364 11.1382 7.92139 11.2065 7.7032C11.2787 7.47244 11.5257 7.34334 11.757 7.41538C11.8692 7.45015 11.9608 7.5266 12.0152 7.63033C12.0697 7.73406 12.0804 7.85276 12.0455 7.96456C12.0104 8.07636 11.934 8.16786 11.83 8.22218C11.726 8.27658 11.6071 8.28731 11.495 8.25237C11.4825 8.24846 11.4702 8.24406 11.4582 8.23915ZM11.7336 7.57409C11.7259 7.57093 11.718 7.5681 11.71 7.56561C11.5617 7.51944 11.4034 7.60221 11.3571 7.75011C11.3108 7.89801 11.394 8.05581 11.542 8.10214C11.6138 8.12452 11.6901 8.11762 11.7567 8.08276C11.8234 8.04791 11.8724 7.98927 11.8948 7.91764V7.91756C11.9386 7.77781 11.8669 7.629 11.7336 7.57409Z" fill="#00DBE9"/>
<path d="M11.0713 9.11125C10.9762 9.07215 10.8986 9.0017 10.8502 8.90969C10.7958 8.80596 10.785 8.68726 10.82 8.57546C10.8549 8.46366 10.9314 8.37216 11.0354 8.31784C11.1394 8.26344 11.2583 8.25271 11.3704 8.28765C11.4824 8.32242 11.5741 8.39886 11.6287 8.50259C11.6832 8.60632 11.6939 8.72503 11.6589 8.83682C11.6238 8.94854 11.5473 9.04013 11.4434 9.09444C11.3394 9.14876 11.2205 9.15949 11.1084 9.12456C11.0958 9.12073 11.0834 9.11624 11.0713 9.11125ZM11.3473 8.44653C11.3395 8.44337 11.3315 8.44045 11.3234 8.43788C11.1751 8.39171 11.0168 8.47448 10.9705 8.62238C10.9481 8.694 10.955 8.77011 10.9899 8.83658C11.0248 8.90304 11.0837 8.9517 11.1554 8.97441C11.2273 8.99679 11.3035 8.98988 11.3701 8.95503C11.4368 8.92018 11.4858 8.86153 11.5083 8.78991C11.5308 8.71829 11.5239 8.64218 11.4889 8.57571C11.458 8.51673 11.4082 8.47156 11.3473 8.44653Z" fill="#00DBE9"/>
<path d="M13.3975 11.7244C12.4086 11.0333 11.6418 10.326 11.4002 9.91339C11.393 10.0337 11.3545 10.5221 11.1771 11.3057C10.9712 12.2152 9.28843 15.0022 8.97582 14.8696C8.77818 14.7856 10.1005 11.5034 11.1282 9.04828C10.9404 8.98764 10.8361 8.78742 10.895 8.59892C10.9544 8.40926 11.1566 8.30354 11.3467 8.36276C11.3676 8.36925 11.3873 8.37774 11.406 8.38755C11.4372 8.31368 11.468 8.24098 11.4981 8.16978C11.3211 8.10281 11.2247 7.90933 11.2818 7.72666C11.3412 7.537 11.5434 7.43127 11.7334 7.4905C11.7494 7.49549 11.7646 7.50181 11.7794 7.50872C11.8093 7.43868 11.8383 7.37113 11.8661 7.30633C11.8558 7.30408 11.8454 7.30159 11.8351 7.29834C11.645 7.23912 11.539 7.0374 11.5984 6.84774C11.6578 6.65808 11.8599 6.55235 12.05 6.61158C12.0853 6.62256 12.1177 6.63853 12.1467 6.65841C12.2128 6.50793 12.2543 6.41568 12.2651 6.39588C12.377 6.18934 12.7089 6.03362 12.7089 6.03362C12.7089 6.03362 12.5373 6.09201 11.8578 5.88031C11.1784 5.66861 11.005 5.33005 11.005 5.33005C11.1186 5.64615 11.013 5.87033 11.013 5.87033C11.013 5.87033 8.95394 9.60803 7.20975 12.8177C5.46555 16.0273 6.33698 17.3666 7.0012 18.1231C7.66551 18.8797 8.76695 18.9559 9.45796 18.81C10.1489 18.6641 10.8577 18.2096 12.2374 16.0642C13.5949 13.9531 15.7155 13.0072 15.7832 12.9774C15.3113 12.8907 14.3846 12.4141 13.3975 11.7244ZM9.77746 10.2847C10.0743 10.3772 10.2399 10.6923 10.1471 10.9885C10.0545 11.2848 9.73862 11.4499 9.44173 11.3574C9.14485 11.2649 8.97932 10.9498 9.07207 10.6536C9.16473 10.3574 9.48058 10.1922 9.77746 10.2847ZM7.31173 13.5321C7.31007 13.5314 7.3084 13.5306 7.30674 13.5297C7.27929 13.5152 7.26881 13.4811 7.28336 13.4538L11.1324 6.20897C11.147 6.18152 11.1813 6.17112 11.2086 6.18568C11.2362 6.20023 11.2467 6.23426 11.232 6.26162L7.38293 13.5064C7.36921 13.5322 7.33826 13.543 7.31173 13.5321ZM8.33689 13.9693C8.04 13.8768 7.87447 13.5617 7.96722 13.2655C8.05988 12.9692 8.37573 12.8041 8.67262 12.8966C8.9695 12.9891 9.13504 13.3042 9.04228 13.6004C8.94954 13.8966 8.63377 14.0618 8.33689 13.9693ZM8.92766 12.638C8.63078 12.5455 8.46524 12.2304 8.55799 11.9342C8.65074 11.638 8.96651 11.4728 9.26339 11.5653C9.56027 11.6578 9.72581 11.9729 9.63306 12.2692C9.54031 12.5653 9.22454 12.7305 8.92766 12.638Z" fill="#00DBE9"/>
</svg>
