<svg width="25" height="23" viewBox="0 0 25 23" fill="none" xmlns="http://www.w3.org/2000/svg">
<path d="M22.3828 1.60283C19.5605 -0.807225 15.2002 -0.445221 12.5 2.34668C9.7998 -0.445221 5.43945 -0.812184 2.61719 1.60283C-1.05468 4.74186 -0.517572 9.85952 2.09961 12.5721L10.6641 21.4337C11.1523 21.9396 11.8066 22.2222 12.5 22.2222C13.1982 22.2222 13.8477 21.9445 14.3359 21.4387L22.9004 12.577C25.5127 9.86448 26.0596 4.74682 22.3828 1.60283ZM21.2305 10.9009L12.666 19.7626C12.5488 19.8816 12.4512 19.8816 12.334 19.7626L3.76953 10.9009C1.98731 9.05616 1.62598 5.56505 4.12598 3.42773C6.02539 1.80615 8.95508 2.04914 10.791 3.94843L12.5 5.71878L14.209 3.94843C16.0547 2.03922 18.9844 1.80615 20.874 3.42277C23.3691 5.56009 22.998 9.07104 21.2305 10.9009Z" fill="#00DBE9"/>
</svg>
