<svg width="39" height="39" viewBox="0 0 39 39" fill="none" xmlns="http://www.w3.org/2000/svg">
<circle cx="19.5" cy="19.5" r="19.5" fill="#DE3D4F"/>
<path d="M15.3681 27.2996H11.9722V16.3637H15.3681V27.2996ZM13.6684 14.872C12.5825 14.872 11.7017 13.9725 11.7017 12.8866C11.7017 12.365 11.9089 11.8648 12.2777 11.496C12.6465 11.1271 13.1468 10.9199 13.6684 10.9199C14.19 10.9199 14.6902 11.1271 15.059 11.496C15.4278 11.8648 15.6351 12.365 15.6351 12.8866C15.6351 13.9725 14.7539 14.872 13.6684 14.872ZM28.078 27.2996H24.6894V21.9761C24.6894 20.7073 24.6638 19.0803 22.9238 19.0803C21.1582 19.0803 20.8876 20.4587 20.8876 21.8847V27.2996H17.4954V16.3637H20.7523V17.8555H20.7999C21.2532 16.9962 22.3607 16.0895 24.013 16.0895C27.4499 16.0895 28.0817 18.3527 28.0817 21.2923V27.2996H28.078Z" fill="#00DBE9"/>
</svg>
