<svg width="22" height="22" viewBox="0 0 22 22" fill="none" xmlns="http://www.w3.org/2000/svg">
<path d="M10.4861 16.9411C6.70234 11.5074 6 10.9498 6 8.95283C6 6.21745 8.23857 4 11 4C13.7614 4 16 6.21745 16 8.95283C16 10.9498 15.2977 11.5074 11.5139 16.9411C11.2655 17.2964 10.7344 17.2964 10.4861 16.9411ZM11 11.0165C12.1506 11.0165 13.0833 10.0926 13.0833 8.95283C13.0833 7.81309 12.1506 6.88915 11 6.88915C9.8494 6.88915 8.91667 7.81309 8.91667 8.95283C8.91667 10.0926 9.8494 11.0165 11 11.0165Z" fill="#FFC2C2"/>
</svg>
