<svg width="178" height="185" viewBox="0 0 178 185" fill="none" xmlns="http://www.w3.org/2000/svg">
<ellipse cx="88.8745" cy="76.2875" rx="50.5747" ry="49.8513" fill="url(#paint0_radial)"/>
<ellipse cx="88.8696" cy="76.2868" rx="21.935" ry="21.6213" fill="url(#paint1_radial)"/>
<mask id="mask0" mask-type="alpha" maskUnits="userSpaceOnUse" x="70" y="58" width="38" height="37">
<rect x="70.4111" y="58.011" width="37.1654" height="36.6338" rx="18.3169" fill="#C4C4C4"/>
</mask>
<g mask="url(#mask0)">
<path d="M107.077 76.3279C107.077 86.1611 98.9874 94.1448 88.9938 94.1448C79.0002 94.1448 70.9111 86.1611 70.9111 76.3279C70.9111 66.4946 79.0002 58.511 88.9938 58.511C98.9874 58.511 107.077 66.4946 107.077 76.3279Z" stroke="#651558"/>
</g>
<path fill-rule="evenodd" clip-rule="evenodd" d="M139.449 76.2875C139.449 103.82 116.806 126.139 88.8745 126.139C60.9429 126.139 38.2998 103.82 38.2998 76.2875C38.2998 48.7554 60.9429 26.4362 88.8745 26.4362C116.806 26.4362 139.449 48.7554 139.449 76.2875ZM110.723 76.2875C110.723 88.1835 100.939 97.8272 88.8704 97.8272C76.8017 97.8272 67.0181 88.1835 67.0181 76.2875C67.0181 64.3914 76.8017 54.7478 88.8704 54.7478C100.939 54.7478 110.723 64.3914 110.723 76.2875ZM68.0915 86.4857C73.1407 94.7806 87.7751 107.487 105.919 91.9522C106.457 91.4083 107.732 90.4836 108.526 91.1363C109.52 91.9522 108.899 93.0537 108.195 93.7064C107.492 94.3591 106.871 95.8277 107.533 96.2357C108.195 96.6436 109.064 97.0516 110.223 96.2357C111.15 95.5829 113.81 92.2378 115.024 90.6468C115.466 90.0892 116.597 89.1047 117.59 89.6269C118.832 90.2796 118.583 91.3811 118.087 91.9522C117.689 92.4091 116.873 93.448 116.514 93.9104C115.935 94.5359 114.999 95.9746 115.893 96.7252C117.011 97.6635 118.211 96.7252 118.583 96.2357C118.881 95.844 122.764 90.5788 124.667 87.9951C125.109 87.2608 126.265 85.9717 127.357 86.6897C128.723 87.5871 128.351 88.8518 127.854 89.6269C127.457 90.247 125.564 93.6112 124.667 95.2158C124.143 96.0589 123.409 97.949 124.667 98.7649C125.925 99.5808 127.316 97.7451 127.854 96.7252C129.606 93.3392 133.185 86.2246 133.483 84.8539C133.855 83.1405 134.559 82.9773 134.973 83.0589C135.387 83.1405 136.297 83.4669 135.966 84.6091C135.944 84.6834 135.913 84.8561 135.865 85.1168C135.177 88.865 131.148 110.815 105.919 120.427C78.9348 130.707 60.3935 116.021 53.4405 108.025C52.1437 106.638 49.9392 103.611 51.4954 102.6C53.1112 101.549 54.0987 102.103 54.6952 102.438C54.8168 102.506 54.9221 102.565 55.0132 102.6C58.0207 106.788 65.9642 115.548 73.6787 117.082C74.741 117.367 76.9317 117.482 77.1966 115.654C77.1 115.26 76.5841 114.365 75.2928 113.941C69.8297 111.656 58.0096 104.745 54.4338 95.379C54.1855 94.7127 53.9537 93.3147 55.0132 93.0537C56.0727 92.7926 56.8343 93.4344 57.0826 93.788C59.5796 97.3643 65.6579 105.064 69.9953 107.25C70.6023 107.481 71.9156 107.601 72.3129 106.23C72.4233 105.89 72.2384 104.949 70.6161 103.905C68.5881 102.6 60.0624 95.379 58.407 89.1373C58.1724 88.403 58.0593 86.9099 59.483 86.812C60.9067 86.7141 61.4282 87.4512 61.511 87.8319C62.0214 89.4365 64.0521 93.6085 68.0915 97.4595C68.5743 97.8947 69.7552 98.5039 70.6161 97.4595C71.4769 96.4152 69.9539 94.5767 69.0848 93.788C67.6914 92.0338 64.8054 88.0033 64.4081 85.9146C64.0107 83.8259 65.153 83.7116 65.7738 83.9156C66.3394 84.0924 67.5948 84.8539 68.0915 86.4857Z" fill="url(#paint2_radial)"/>
<path d="M144.986 76.1223C144.986 106.544 119.924 131.246 88.9579 131.246C57.9921 131.246 32.9302 106.544 32.9302 76.1223C32.9302 45.7009 57.9921 20.999 88.9579 20.999C119.924 20.999 144.986 45.7009 144.986 76.1223Z" stroke="#EA4CD1" stroke-width="3"/>
<path fill-rule="evenodd" clip-rule="evenodd" d="M161.892 83.5479C162.43 80.0077 162.708 76.3841 162.708 72.6964C162.708 32.5473 129.707 0 88.9981 0C48.2892 0 15.2881 32.5473 15.2881 72.6964C15.2881 74.1482 15.3312 75.59 15.4163 77.0207C15.4163 77.0207 16.6332 77.1597 18.8645 77.3864C19.6795 39.8727 50.7676 9.70945 88.9988 9.70945C127.742 9.70945 159.15 40.686 159.15 78.8976C159.15 80.3955 159.101 81.8823 159.006 83.3566C160.876 83.4759 161.892 83.5479 161.892 83.5479Z" fill="url(#paint3_linear)"/>
<ellipse cx="163.785" cy="76.124" rx="4.13869" ry="4.07949" fill="url(#paint4_radial)"/>
<path d="M148.182 55.7654C147.089 55.7654 147.368 56.5541 147.644 56.9484C155.507 77.3459 147.934 95.2956 147.603 95.9483C147.338 96.4705 147.878 96.6555 148.182 96.6827H154.638C158.046 96.7099 164.795 92.6684 164.53 76.2852C164.265 59.902 157.825 55.779 154.638 55.7654H148.182Z" fill="url(#paint5_radial)"/>
<ellipse cx="14.2129" cy="76.2052" rx="4.13869" ry="4.07949" transform="rotate(-180 14.2129 76.2052)" fill="url(#paint6_radial)"/>
<path d="M29.816 96.5615C30.9087 96.5615 30.63 95.7728 30.3541 95.3785C22.4906 74.981 30.0644 57.0313 30.3955 56.3786C30.6603 55.8564 30.1196 55.6714 29.816 55.6442H23.3597C19.9522 55.6171 13.2034 59.6585 13.4682 76.0417C13.7331 92.4249 20.1729 96.5479 23.3597 96.5615H29.816Z" fill="url(#paint7_radial)"/>
<path d="M19.7685 145.744C22.7338 145.744 25.0058 146.469 26.5845 147.92C28.1845 149.349 28.9845 151.269 28.9845 153.68C28.9845 155.024 28.6965 156.347 28.1205 157.648C27.5658 158.949 26.6165 159.984 25.2725 160.752L30.7445 169.296H25.3365L20.3765 161.808H17.2725V169.296H12.6325V145.744H19.7685ZM20.5685 157.328C21.5072 157.328 22.2325 157.136 22.7445 156.752C23.2778 156.347 23.6512 155.877 23.8645 155.344C24.0778 154.789 24.1845 154.288 24.1845 153.84C24.1845 153.584 24.1418 153.264 24.0565 152.88C23.9925 152.475 23.8432 152.069 23.6085 151.664C23.3738 151.259 23.0112 150.917 22.5205 150.64C22.0512 150.363 21.4112 150.224 20.6005 150.224H17.2725V157.328H20.5685ZM28.074 169.296L38.698 144.816H38.954L49.578 169.296H44.202L42.378 164.688H34.57L32.65 169.296H28.074ZM36.202 160.784H40.842L38.57 155.056L36.202 160.784ZM49.1712 169.296V145.744H56.2112C58.5792 145.744 60.5952 146.096 62.2592 146.8C63.9232 147.504 65.2566 148.443 66.2592 149.616C67.2832 150.789 68.0299 152.101 68.4993 153.552C68.9686 155.003 69.2032 156.464 69.2032 157.936C69.2032 159.685 68.8832 161.264 68.2432 162.672C67.6246 164.059 66.7712 165.253 65.6832 166.256C64.5952 167.237 63.3366 167.995 61.9072 168.528C60.4779 169.04 58.9632 169.296 57.3632 169.296H49.1712ZM53.8112 164.816H56.5632C58.9099 164.816 60.7979 164.208 62.2272 162.992C63.6779 161.776 64.4032 159.984 64.4032 157.616C64.4032 156.08 64.1472 154.832 63.6353 153.872C63.1446 152.891 62.5259 152.133 61.7792 151.6C61.0539 151.067 60.3072 150.704 59.5392 150.512C58.7712 150.299 58.1206 150.192 57.5872 150.192H53.8112V164.816ZM70.0187 145.744H74.6587V169.296H70.0187V145.744ZM75.4575 157.552C75.4575 155.931 75.7668 154.395 76.3855 152.944C77.0042 151.493 77.8575 150.213 78.9455 149.104C80.0548 147.973 81.3348 147.088 82.7855 146.448C84.2362 145.808 85.7935 145.488 87.4575 145.488C89.1002 145.488 90.6468 145.808 92.0975 146.448C93.5482 147.088 94.8282 147.973 95.9375 149.104C97.0682 150.213 97.9428 151.493 98.5615 152.944C99.2015 154.395 99.5215 155.931 99.5215 157.552C99.5215 159.216 99.2015 160.773 98.5615 162.224C97.9428 163.675 97.0682 164.955 95.9375 166.064C94.8282 167.152 93.5482 168.005 92.0975 168.624C90.6468 169.243 89.1002 169.552 87.4575 169.552C85.7935 169.552 84.2362 169.243 82.7855 168.624C81.3348 168.005 80.0548 167.152 78.9455 166.064C77.8575 164.955 77.0042 163.675 76.3855 162.224C75.7668 160.773 75.4575 159.216 75.4575 157.552ZM80.2575 157.552C80.2575 158.939 80.5775 160.208 81.2175 161.36C81.8788 162.491 82.7642 163.397 83.8735 164.08C84.9828 164.741 86.2308 165.072 87.6175 165.072C88.9615 165.072 90.1668 164.741 91.2335 164.08C92.3215 163.397 93.1748 162.491 93.7935 161.36C94.4122 160.208 94.7215 158.939 94.7215 157.552C94.7215 156.123 94.4015 154.843 93.7615 153.712C93.1215 152.56 92.2575 151.653 91.1695 150.992C90.0815 150.309 88.8548 149.968 87.4895 149.968C86.1242 149.968 84.8975 150.309 83.8095 150.992C82.7215 151.653 81.8575 152.56 81.2175 153.712C80.5775 154.843 80.2575 156.123 80.2575 157.552ZM106.874 145.744H111.514V164.816H122.586V169.296H106.874V145.744ZM123.534 145.744H128.174V169.296H123.534V145.744ZM133.964 145.744L139.34 159.024L144.396 145.744H149.9L139.148 170.384L128.396 145.744H133.964ZM150.135 145.744H166.199V150.224H154.775V155.248H164.887V159.728H154.775V164.816H166.647V169.296H150.135V145.744Z" fill="#5BC4D2"/>
<path d="M2.00923 183H6.07777V182.006H3.19495V176.455H2.00923V183ZM6.33575 183H7.49271V178.091H6.33575V183ZM6.91742 177.394C7.28497 177.394 7.58539 177.113 7.58539 176.768C7.58539 176.419 7.28497 176.138 6.91742 176.138C6.54669 176.138 6.24626 176.419 6.24626 176.768C6.24626 177.113 6.54669 177.394 6.91742 177.394ZM11.8424 179.388C11.6826 178.558 11.0178 178.027 9.86726 178.027C8.68473 178.027 7.87933 178.609 7.88253 179.516C7.87933 180.232 8.32038 180.705 9.26321 180.9L10.1006 181.076C10.5512 181.175 10.7621 181.357 10.7621 181.635C10.7621 181.971 10.3978 182.223 9.84808 182.223C9.31754 182.223 8.97237 181.993 8.87329 181.552L7.7451 181.661C7.88892 182.562 8.64638 183.096 9.85128 183.096C11.0786 183.096 11.9447 182.46 11.9479 181.53C11.9447 180.83 11.494 180.402 10.5672 180.2L9.72983 180.021C9.23125 179.909 9.0331 179.737 9.03629 179.452C9.0331 179.12 9.40064 178.89 9.88324 178.89C10.417 178.89 10.6982 179.181 10.7877 179.504L11.8424 179.388ZM14.6332 178.091H13.6648V176.915H12.5079V178.091H11.8111V178.986H12.5079V181.715C12.5015 182.639 13.1726 183.093 14.042 183.067C14.3712 183.058 14.5981 182.994 14.7227 182.952L14.5278 182.048C14.4638 182.064 14.3328 182.092 14.189 182.092C13.8981 182.092 13.6648 181.99 13.6648 181.523V178.986H14.6332V178.091ZM17.0014 183.096C18.1456 183.096 18.9318 182.537 19.1363 181.683L18.0561 181.562C17.8995 181.977 17.5159 182.195 17.0174 182.195C16.2695 182.195 15.7741 181.702 15.7645 180.862H19.1843V180.507C19.1843 178.784 18.1488 178.027 16.9407 178.027C15.5344 178.027 14.6172 179.059 14.6172 180.574C14.6172 182.115 15.5216 183.096 17.0014 183.096ZM15.7677 180.082C15.8029 179.456 16.2663 178.928 16.9566 178.928C17.6214 178.928 18.0689 179.414 18.0753 180.082H15.7677ZM20.6 180.124C20.6 179.414 21.0283 179.005 21.6387 179.005C22.2364 179.005 22.5943 179.398 22.5943 180.053V183H23.7513V179.874C23.7545 178.698 23.0833 178.027 22.0702 178.027C21.3351 178.027 20.8301 178.379 20.6064 178.925H20.5489V178.091H19.4431V183H20.6V180.124ZM28.1712 178.091H27.2028V176.915H26.0458V178.091H25.3491V178.986H26.0458V181.715C26.0395 182.639 26.7106 183.093 27.5799 183.067C27.9091 183.058 28.136 182.994 28.2607 182.952L28.0657 182.048C28.0018 182.064 27.8708 182.092 27.727 182.092C27.4361 182.092 27.2028 181.99 27.2028 181.523V178.986H28.1712V178.091ZM30.5074 183.096C31.9456 183.096 32.8597 182.083 32.8597 180.565C32.8597 179.043 31.9456 178.027 30.5074 178.027C29.0692 178.027 28.1551 179.043 28.1551 180.565C28.1551 182.083 29.0692 183.096 30.5074 183.096ZM30.5138 182.169C29.718 182.169 29.3281 181.46 29.3281 180.561C29.3281 179.663 29.718 178.944 30.5138 178.944C31.2968 178.944 31.6867 179.663 31.6867 180.561C31.6867 181.46 31.2968 182.169 30.5138 182.169ZM36.0467 183.099C36.817 183.099 37.2772 182.738 37.4881 182.326H37.5265V183H38.6387V179.714C38.6387 178.417 37.5808 178.027 36.6444 178.027C35.6121 178.027 34.8194 178.487 34.5638 179.382L35.644 179.536C35.7591 179.2 36.0851 178.912 36.6508 178.912C37.1877 178.912 37.4817 179.187 37.4817 179.67V179.689C37.4817 180.021 37.1334 180.037 36.2672 180.13C35.3148 180.232 34.404 180.517 34.404 181.623C34.404 182.588 35.1103 183.099 36.0467 183.099ZM36.3471 182.249C35.8645 182.249 35.5194 182.028 35.5194 181.603C35.5194 181.159 35.9061 180.974 36.4238 180.9C36.7275 180.859 37.3347 180.782 37.4849 180.661V181.239C37.4849 181.786 37.0439 182.249 36.3471 182.249ZM40.239 180.124C40.239 179.414 40.6673 179.005 41.2777 179.005C41.8754 179.005 42.2333 179.398 42.2333 180.053V183H43.3903V179.874C43.3935 178.698 42.7223 178.027 41.7092 178.027C40.9741 178.027 40.4691 178.379 40.2454 178.925H40.1879V178.091H39.082V183H40.239V180.124ZM44.3897 184.841C45.291 184.841 45.812 184.377 46.09 183.594L48.062 178.097L46.8251 178.091L45.6905 181.798H45.6394L44.508 178.091H43.2807L45.0609 183.102L44.9618 183.368C44.7477 183.927 44.4089 183.965 43.9039 183.818L43.6355 184.719C43.7921 184.783 44.0733 184.841 44.3897 184.841ZM49.7085 183H50.8942V180.219H53.6141V179.225H50.8942V177.449H53.9017V176.455H49.7085V183ZM54.262 176.455V183H55.3997V178.494H55.4605L57.2694 182.981H58.1196L59.9285 178.503H59.9892V183H61.127V176.455H59.676L57.7328 181.197H57.6561L55.713 176.455H54.262ZM66.7678 178.254H67.9088C67.8864 177.148 66.9436 176.365 65.5501 176.365C64.1758 176.365 63.1435 177.138 63.1467 178.295C63.1467 179.235 63.8147 179.775 64.8917 180.053L65.6364 180.245C66.3427 180.424 66.8094 180.645 66.8126 181.153C66.8094 181.712 66.2788 182.086 65.5054 182.086C64.7639 182.086 64.1886 181.754 64.1407 181.066H62.9741C63.0221 182.367 63.9905 183.099 65.515 183.099C67.0842 183.099 67.9951 182.316 67.9983 181.162C67.9951 180.028 67.0586 179.51 66.0743 179.277L65.4606 179.123C64.9237 178.995 64.342 178.768 64.3484 178.222C64.3516 177.73 64.7927 177.369 65.5341 177.369C66.2405 177.369 66.7071 177.698 66.7678 178.254ZM70.7356 178.091H69.7672V176.915H68.6102V178.091H67.9135V178.986H68.6102V181.715C68.6038 182.639 69.275 183.093 70.1443 183.067C70.4735 183.058 70.7004 182.994 70.8251 182.952L70.6301 182.048C70.5662 182.064 70.4351 182.092 70.2913 182.092C70.0005 182.092 69.7672 181.99 69.7672 181.523V178.986H70.7356V178.091ZM72.3958 183.099C73.1661 183.099 73.6263 182.738 73.8372 182.326H73.8756V183H74.9878V179.714C74.9878 178.417 73.9299 178.027 72.9935 178.027C71.9612 178.027 71.1685 178.487 70.9129 179.382L71.9931 179.536C72.1082 179.2 72.4342 178.912 72.9999 178.912C73.5368 178.912 73.8308 179.187 73.8308 179.67V179.689C73.8308 180.021 73.4825 180.037 72.6163 180.13C71.6639 180.232 70.7531 180.517 70.7531 181.623C70.7531 182.588 71.4594 183.099 72.3958 183.099ZM72.6962 182.249C72.2136 182.249 71.8685 182.028 71.8685 181.603C71.8685 181.159 72.2552 180.974 72.7729 180.9C73.0766 180.859 73.6838 180.782 73.834 180.661V181.239C73.834 181.786 73.393 182.249 72.6962 182.249ZM77.8825 178.091H76.9141V176.915H75.7571V178.091H75.0604V178.986H75.7571V181.715C75.7507 182.639 76.4219 183.093 77.2912 183.067C77.6204 183.058 77.8473 182.994 77.972 182.952L77.777 182.048C77.7131 182.064 77.5821 182.092 77.4382 182.092C77.1474 182.092 76.9141 181.99 76.9141 181.523V178.986H77.8825V178.091ZM78.1301 183H79.287V178.091H78.1301V183ZM78.7118 177.394C79.0793 177.394 79.3797 177.113 79.3797 176.768C79.3797 176.419 79.0793 176.138 78.7118 176.138C78.341 176.138 78.0406 176.419 78.0406 176.768C78.0406 177.113 78.341 177.394 78.7118 177.394ZM81.8981 183.096C83.3363 183.096 84.2504 182.083 84.2504 180.565C84.2504 179.043 83.3363 178.027 81.8981 178.027C80.4599 178.027 79.5458 179.043 79.5458 180.565C79.5458 182.083 80.4599 183.096 81.8981 183.096ZM81.9045 182.169C81.1087 182.169 80.7188 181.46 80.7188 180.561C80.7188 179.663 81.1087 178.944 81.9045 178.944C82.6875 178.944 83.0774 179.663 83.0774 180.561C83.0774 181.46 82.6875 182.169 81.9045 182.169ZM85.6693 180.124C85.6693 179.414 86.0976 179.005 86.708 179.005C87.3057 179.005 87.6636 179.398 87.6636 180.053V183H88.8206V179.874C88.8238 178.698 88.1526 178.027 87.1395 178.027C86.4044 178.027 85.8994 178.379 85.6757 178.925H85.6182V178.091H84.5124V183H85.6693V180.124ZM93.1567 179.388C92.9969 178.558 92.3321 178.027 91.1816 178.027C89.999 178.027 89.1936 178.609 89.1968 179.516C89.1936 180.232 89.6347 180.705 90.5775 180.9L91.4149 181.076C91.8655 181.175 92.0764 181.357 92.0764 181.635C92.0764 181.971 91.7121 182.223 91.1624 182.223C90.6318 182.223 90.2867 181.993 90.1876 181.552L89.0594 181.661C89.2032 182.562 89.9607 183.096 91.1656 183.096C92.3928 183.096 93.259 182.46 93.2622 181.53C93.259 180.83 92.8083 180.402 91.8815 180.2L91.0441 180.021C90.5455 179.909 90.3474 179.737 90.3506 179.452C90.3474 179.12 90.7149 178.89 91.1975 178.89C91.7313 178.89 92.0125 179.181 92.102 179.504L93.1567 179.388ZM97.4951 178.091H96.4756V177.704C96.4756 177.321 96.6354 177.107 97.0668 177.107C97.249 177.107 97.4024 177.148 97.4983 177.177L97.7316 176.282C97.5814 176.231 97.2522 176.148 96.8527 176.148C95.9994 176.148 95.3186 176.637 95.3186 177.627V178.091H94.5931V178.986H95.3186V183H96.4756V178.986H97.4951V178.091ZM97.6812 183H98.8381V180.114C98.8381 179.491 99.308 179.05 99.944 179.05C100.139 179.05 100.382 179.085 100.481 179.117V178.053C100.375 178.033 100.193 178.021 100.065 178.021C99.5029 178.021 99.0331 178.34 98.8541 178.909H98.803V178.091H97.6812V183ZM102.469 183.096C103.907 183.096 104.821 182.083 104.821 180.565C104.821 179.043 103.907 178.027 102.469 178.027C101.031 178.027 100.116 179.043 100.116 180.565C100.116 182.083 101.031 183.096 102.469 183.096ZM102.475 182.169C101.679 182.169 101.289 181.46 101.289 180.561C101.289 179.663 101.679 178.944 102.475 178.944C103.258 178.944 103.648 179.663 103.648 180.561C103.648 181.46 103.258 182.169 102.475 182.169ZM105.083 183H106.24V180.015C106.24 179.411 106.643 179.002 107.141 179.002C107.63 179.002 107.966 179.331 107.966 179.836V183H109.1V179.938C109.1 179.385 109.43 179.002 109.989 179.002C110.455 179.002 110.826 179.277 110.826 179.884V183H111.986V179.705C111.986 178.609 111.354 178.027 110.452 178.027C109.74 178.027 109.196 178.379 108.979 178.925H108.928C108.739 178.369 108.263 178.027 107.601 178.027C106.943 178.027 106.451 178.366 106.246 178.925H106.189V178.091H105.083V183ZM115.365 183.099C116.135 183.099 116.596 182.738 116.807 182.326H116.845V183H117.957V179.714C117.957 178.417 116.899 178.027 115.963 178.027C114.931 178.027 114.138 178.487 113.882 179.382L114.962 179.536C115.078 179.2 115.404 178.912 115.969 178.912C116.506 178.912 116.8 179.187 116.8 179.67V179.689C116.8 180.021 116.452 180.037 115.586 180.13C114.633 180.232 113.722 180.517 113.722 181.623C113.722 182.588 114.429 183.099 115.365 183.099ZM115.666 182.249C115.183 182.249 114.838 182.028 114.838 181.603C114.838 181.159 115.225 180.974 115.742 180.9C116.046 180.859 116.653 180.782 116.803 180.661V181.239C116.803 181.786 116.362 182.249 115.666 182.249ZM119.557 176.455H118.401V183H119.557V176.455ZM121.184 176.455H120.027V183H121.184V176.455ZM125.308 183.096C126.746 183.096 127.66 182.083 127.66 180.565C127.66 179.043 126.746 178.027 125.308 178.027C123.869 178.027 122.955 179.043 122.955 180.565C122.955 182.083 123.869 183.096 125.308 183.096ZM125.314 182.169C124.518 182.169 124.128 181.46 124.128 180.561C124.128 179.663 124.518 178.944 125.314 178.944C126.097 178.944 126.487 179.663 126.487 180.561C126.487 181.46 126.097 182.169 125.314 182.169ZM132.14 178.091H130.909L129.778 181.738H129.727L128.599 178.091H127.365L129.113 183H130.392L132.14 178.091ZM134.227 183.096C135.371 183.096 136.157 182.537 136.362 181.683L135.281 181.562C135.125 181.977 134.741 182.195 134.243 182.195C133.495 182.195 132.999 181.702 132.99 180.862H136.41V180.507C136.41 178.784 135.374 178.027 134.166 178.027C132.76 178.027 131.843 179.059 131.843 180.574C131.843 182.115 132.747 183.096 134.227 183.096ZM132.993 180.082C133.028 179.456 133.492 178.928 134.182 178.928C134.847 178.928 135.294 179.414 135.301 180.082H132.993ZM136.668 183H137.825V180.114C137.825 179.491 138.295 179.05 138.931 179.05C139.126 179.05 139.369 179.085 139.468 179.117V178.053C139.363 178.033 139.18 178.021 139.053 178.021C138.49 178.021 138.02 178.34 137.841 178.909H137.79V178.091H136.668V183ZM143.481 178.091H142.512V176.915H141.355V178.091H140.658V178.986H141.355V181.715C141.349 182.639 142.02 183.093 142.889 183.067C143.218 183.058 143.445 182.994 143.57 182.952L143.375 182.048C143.311 182.064 143.18 182.092 143.036 182.092C142.745 182.092 142.512 181.99 142.512 181.523V178.986H143.481V178.091ZM144.991 180.124C144.991 179.414 145.432 179.005 146.052 179.005C146.659 179.005 147.017 179.392 147.017 180.053V183H148.174V179.874C148.174 178.689 147.503 178.027 146.483 178.027C145.729 178.027 145.249 178.369 145.023 178.925H144.965V176.455H143.834V183H144.991V180.124ZM150.806 183.096C151.951 183.096 152.737 182.537 152.941 181.683L151.861 181.562C151.705 181.977 151.321 182.195 150.822 182.195C150.075 182.195 149.579 181.702 149.57 180.862H152.989V180.507C152.989 178.784 151.954 178.027 150.746 178.027C149.339 178.027 148.422 179.059 148.422 180.574C148.422 182.115 149.327 183.096 150.806 183.096ZM149.573 180.082C149.608 179.456 150.071 178.928 150.762 178.928C151.426 178.928 151.874 179.414 151.88 180.082H149.573ZM155.774 183H156.982L157.902 179.683H157.969L158.89 183H160.095L161.485 178.091H160.302L159.452 181.523H159.404L158.522 178.091H157.356L156.474 181.543H156.429L155.566 178.091H154.387L155.774 183ZM163.582 183.096C165.02 183.096 165.935 182.083 165.935 180.565C165.935 179.043 165.02 178.027 163.582 178.027C162.144 178.027 161.23 179.043 161.23 180.565C161.23 182.083 162.144 183.096 163.582 183.096ZM163.589 182.169C162.793 182.169 162.403 181.46 162.403 180.561C162.403 179.663 162.793 178.944 163.589 178.944C164.372 178.944 164.762 179.663 164.762 180.561C164.762 181.46 164.372 182.169 163.589 182.169ZM166.196 183H167.353V180.114C167.353 179.491 167.823 179.05 168.459 179.05C168.654 179.05 168.897 179.085 168.996 179.117V178.053C168.891 178.033 168.709 178.021 168.581 178.021C168.018 178.021 167.548 178.34 167.369 178.909H167.318V178.091H166.196V183ZM170.202 176.455H169.045V183H170.202V176.455ZM172.493 183.086C173.337 183.086 173.717 182.585 173.9 182.227H173.97V183H175.108V176.455H173.947V178.903H173.9C173.724 178.548 173.363 178.027 172.496 178.027C171.362 178.027 170.47 178.915 170.47 180.552C170.47 182.169 171.336 183.086 172.493 183.086ZM172.816 182.137C172.052 182.137 171.65 181.466 171.65 180.545C171.65 179.631 172.046 178.976 172.816 178.976C173.561 178.976 173.97 179.593 173.97 180.545C173.97 181.498 173.554 182.137 172.816 182.137ZM176.333 183.07C176.71 183.07 177.033 182.757 177.036 182.367C177.033 181.984 176.71 181.67 176.333 181.67C175.943 181.67 175.627 181.984 175.63 182.367C175.627 182.757 175.943 183.07 176.333 183.07Z" fill="#F9C6C6"/>
<defs>
<radialGradient id="paint0_radial" cx="0" cy="0" r="1" gradientUnits="userSpaceOnUse" gradientTransform="translate(88.8745 72.2785) rotate(90) scale(53.8604 54.6419)">
<stop stop-color="#B738A3"/>
<stop offset="0.604167" stop-color="#962785"/>
<stop offset="1" stop-color="#610A53"/>
</radialGradient>
<radialGradient id="paint1_radial" cx="0" cy="0" r="1" gradientUnits="userSpaceOnUse" gradientTransform="translate(88.8696 74.548) rotate(90) scale(23.3601 23.699)">
<stop stop-color="#E98FDA"/>
<stop offset="1" stop-color="#721563"/>
</radialGradient>
<radialGradient id="paint2_radial" cx="0" cy="0" r="1" gradientUnits="userSpaceOnUse" gradientTransform="translate(88.8745 76.2875) rotate(90) scale(49.8513 50.5747)">
<stop stop-color="#FFDEDE"/>
<stop offset="0.479167" stop-color="#F2B0B0"/>
<stop offset="1" stop-color="#A40E8B"/>
</radialGradient>
<linearGradient id="paint3_linear" x1="56.0955" y1="-3.90605e-06" x2="96.7542" y2="118.017" gradientUnits="userSpaceOnUse">
<stop stop-color="#FFE4BC"/>
<stop offset="0.338542" stop-color="#FFB629"/>
<stop offset="1" stop-color="#513A00"/>
</linearGradient>
<radialGradient id="paint4_radial" cx="0" cy="0" r="1" gradientUnits="userSpaceOnUse" gradientTransform="translate(166.185 74.2475) rotate(128.559) scale(8.76448 8.79354)">
<stop stop-color="#5BC4D2"/>
<stop offset="0.317708" stop-color="#438E98"/>
<stop offset="1" stop-color="#32676F"/>
</radialGradient>
<radialGradient id="paint5_radial" cx="0" cy="0" r="1" gradientUnits="userSpaceOnUse" gradientTransform="translate(151.617 57.438) rotate(69.2066) scale(31.2442 13.0429)">
<stop stop-color="#A8EEB7"/>
<stop offset="0.614583" stop-color="#268E3D"/>
</radialGradient>
<radialGradient id="paint6_radial" cx="0" cy="0" r="1" gradientUnits="userSpaceOnUse" gradientTransform="translate(15.2062 77.1844) rotate(-171.377) scale(6.53017 6.44099)">
<stop stop-color="#A8E8E4"/>
<stop offset="1" stop-color="#0D342D"/>
</radialGradient>
<radialGradient id="paint7_radial" cx="0" cy="0" r="1" gradientUnits="userSpaceOnUse" gradientTransform="translate(20.0074 60.3763) rotate(82.981) scale(33.8688 14.1833)">
<stop stop-color="#A8EEB7"/>
<stop offset="0.368518" stop-color="#55C15A"/>
<stop offset="1" stop-color="#00681D"/>
</radialGradient>
</defs>
</svg>
