<svg width="39" height="39" viewBox="0 0 39 39" fill="none" xmlns="http://www.w3.org/2000/svg">
<path d="M28.5922 11.4407C25.9957 9.27445 21.9842 9.59983 19.5 12.1092C17.0158 9.59983 13.0043 9.27 10.4078 11.4407C7.02969 14.2621 7.52383 18.8619 9.93164 21.3L17.8109 29.265C18.2602 29.7196 18.8621 29.9737 19.5 29.9737C20.1424 29.9737 20.7398 29.7241 21.1891 29.2694L29.0683 21.3044C31.4717 18.8663 31.9748 14.2665 28.5922 11.4407ZM27.532 19.7979L19.6527 27.7629C19.5449 27.8699 19.4551 27.8699 19.3473 27.7629L11.468 19.7979C9.82832 18.1398 9.4959 15.002 11.7959 13.0809C13.5434 11.6234 16.2387 11.8418 17.9277 13.5489L19.5 15.1401L21.0723 13.5489C22.7703 11.8329 25.4656 11.6234 27.2041 13.0764C29.4996 14.9975 29.1582 18.1532 27.532 19.7979Z" fill="#00DBE9"/>
</svg>
