<svg width="39" height="39" viewBox="0 0 39 39" fill="none" xmlns="http://www.w3.org/2000/svg">
<path d="M32.5002 10.6364H10.8335C9.80641 10.6364 8.93064 11.3124 8.60539 12.2536H6.50018C5.84747 12.2536 5.31836 12.7966 5.31836 13.4665V27.2129C5.31836 28.776 6.55297 30.043 8.07593 30.043H32.5002C33.1529 30.043 33.682 29.5 33.682 28.8301V11.8493C33.682 11.1794 33.1529 10.6364 32.5002 10.6364ZM7.682 27.2129V14.6794H8.46987V27.2129C8.46987 27.4358 8.29314 27.6172 8.07593 27.6172C7.85873 27.6172 7.682 27.4358 7.682 27.2129ZM31.3184 27.6172H10.805C10.8235 27.4851 10.8335 27.3502 10.8335 27.2129V13.0622H31.3184V27.6172ZM13.7881 21.5526H20.485C20.8114 21.5526 21.0759 21.2811 21.0759 20.9462V16.0945C21.0759 15.7596 20.8114 15.488 20.485 15.488H13.7881C13.4617 15.488 13.1971 15.7596 13.1971 16.0945V20.9462C13.1971 21.2811 13.4617 21.5526 13.7881 21.5526ZM15.1668 17.5096H19.1062V19.5311H15.1668V17.5096ZM13.1971 24.5849V23.372C13.1971 23.0371 13.4617 22.7655 13.7881 22.7655H20.485C20.8114 22.7655 21.0759 23.0371 21.0759 23.372V24.5849C21.0759 24.9198 20.8114 25.1914 20.485 25.1914H13.7881C13.4617 25.1914 13.1971 24.9198 13.1971 24.5849ZM22.6517 24.5849V23.372C22.6517 23.0371 22.9163 22.7655 23.2426 22.7655H28.3638C28.6901 22.7655 28.9547 23.0371 28.9547 23.372V24.5849C28.9547 24.9198 28.6901 25.1914 28.3638 25.1914H23.2426C22.9163 25.1914 22.6517 24.9198 22.6517 24.5849ZM22.6517 17.3074V16.0945C22.6517 15.7596 22.9163 15.488 23.2426 15.488H28.3638C28.6901 15.488 28.9547 15.7596 28.9547 16.0945V17.3074C28.9547 17.6423 28.6901 17.9139 28.3638 17.9139H23.2426C22.9163 17.9139 22.6517 17.6423 22.6517 17.3074ZM22.6517 20.9462V19.7332C22.6517 19.3983 22.9163 19.1268 23.2426 19.1268H28.3638C28.6901 19.1268 28.9547 19.3983 28.9547 19.7332V20.9462C28.9547 21.2811 28.6901 21.5526 28.3638 21.5526H23.2426C22.9163 21.5526 22.6517 21.2811 22.6517 20.9462Z" fill="#00DBE9"/>
</svg>
