<svg width="22" height="22" viewBox="0 0 22 22" fill="none" xmlns="http://www.w3.org/2000/svg">
<path d="M10.0192 8.65167L12.9696 11.6001L5.94272 17.2387C5.94272 17.2387 5.36829 17.6617 4.64163 16.9352C4.64163 16.9352 3.90403 16.1113 4.59738 15.4173L10.0192 8.65167Z" fill="#00DBE9"/>
<path d="M15.8393 10.4907L11.0727 5.72416C10.9184 5.56982 10.9185 5.31961 11.0727 5.16547C11.2271 5.01113 11.4772 5.01113 11.6315 5.16547L16.398 9.93204C16.5523 10.0863 16.5524 10.3365 16.398 10.4908C16.2439 10.6449 15.9936 10.6449 15.8393 10.4907Z" fill="#00DBE9"/>
<path d="M11.0355 5.87537C10.7178 6.39054 10.5341 6.9969 10.5342 7.64613C10.5342 7.88785 10.5594 8.12213 10.6076 8.34916L13.2136 10.9537C13.4412 11.0024 13.6756 11.0285 13.9172 11.0285C14.5665 11.0285 15.1729 10.8451 15.6881 10.5281L11.0355 5.87537Z" fill="#00DBE9"/>
<path d="M17.3002 7.64608C17.3002 5.77978 15.7854 4.26495 13.9171 4.26501C13.0814 4.26508 12.3169 4.56869 11.7266 5.07069L16.4932 9.83733C16.9961 9.24697 17.3002 8.48218 17.3002 7.64608ZM13.1985 5.93188C12.9922 5.72558 12.9922 5.39096 13.1985 5.18454C13.4049 4.97818 13.7396 4.97825 13.9459 5.18454C14.1523 5.3909 14.1522 5.72552 13.9459 5.93188C13.7396 6.1383 13.4049 6.1383 13.1985 5.93188ZM14.5684 5.05976C14.7747 4.8534 15.1093 4.8534 15.3157 5.05976C15.522 5.26612 15.522 5.60074 15.3157 5.8071C15.1093 6.01346 14.7747 6.01346 14.5684 5.8071C14.3621 5.60074 14.362 5.26612 14.5684 5.05976ZM14.4436 7.17687C14.2372 6.97051 14.2372 6.63589 14.4436 6.42953C14.6499 6.22317 14.9845 6.22317 15.1909 6.42953C15.3972 6.63589 15.3972 6.97045 15.1907 7.17681C14.9845 7.3831 14.6499 7.38323 14.4436 7.17687ZM15.8133 6.30469C16.0196 6.09833 16.3543 6.09833 16.5606 6.30469C16.7671 6.51105 16.7669 6.84561 16.5606 7.05196C16.3542 7.25832 16.0197 7.25839 15.8133 7.05196C15.6069 6.84561 15.6069 6.51098 15.8133 6.30469ZM15.6883 8.42167C15.482 8.21531 15.482 7.88082 15.6884 7.67446C15.8947 7.4681 16.2293 7.46804 16.4357 7.6744C16.6421 7.88075 16.642 8.21538 16.4357 8.42173C16.2293 8.62803 15.8947 8.62803 15.6883 8.42167Z" fill="#00DBE9"/>
</svg>
