<svg width="22" height="22" viewBox="0 0 22 22" fill="none" xmlns="http://www.w3.org/2000/svg">
<path d="M11.1944 15.6425H11.1826C11.1877 15.6443 11.1929 15.6462 11.1987 15.6484C11.1972 15.6464 11.1958 15.6445 11.1944 15.6425Z" fill="#00DBE9"/>
<path d="M12.5823 10.1739C12.4901 10.165 12.4045 10.1555 12.3128 10.1466C12.4464 9.78411 12.6682 9.47733 12.5847 9.07656C12.4761 9.07656 12.3947 9.07656 12.3079 9.07656C12.4175 8.72922 12.5776 8.43532 12.5197 8.03454C12.374 8.03454 12.2446 8.03454 12.0889 8.03454C12.2503 7.71392 12.2346 7.33484 12.136 6.97989C12.0276 7.00883 11.9446 7.03744 11.8453 7.06389C11.9121 6.81499 11.9639 6.5987 11.8838 6.35869C11.7644 6.40422 11.6612 6.44515 11.55 6.48758C11.5218 6.01427 11.5104 5.82024 11.4866 5.63091C11.4373 5.65164 11.2858 5.63805 11.2464 5.65458L10.9384 4C10.7462 4.54369 10.5854 5.09673 10.4842 5.67703C10.4301 5.66156 10.3668 5.64344 10.2604 5.61288C10.2113 5.93368 10.165 6.23683 10.1182 6.54262C10.0449 6.51211 9.95228 6.47361 9.83052 6.42295C9.7131 6.8028 9.71075 7.16051 9.85345 7.55415C9.69821 7.49005 9.56532 7.43517 9.41276 7.37217C9.31716 7.73784 9.43838 8.05664 9.56983 8.39553C9.42411 8.38503 9.30126 8.3806 9.15509 8.37004C9.12639 8.7764 9.29228 9.10327 9.51856 9.45061C9.4076 9.45061 9.33509 9.45061 9.23628 9.45061C9.23372 9.85139 9.41399 10.172 9.6066 10.5193C9.52968 10.5193 9.4749 10.5193 9.41481 10.5193C9.3575 10.7865 9.46945 10.9911 9.56764 11.2094C9.5883 11.2555 9.61325 11.3329 9.59193 11.3556C9.48722 11.4667 9.43838 11.3376 9.57181 11.6888C9.64641 11.8852 9.74513 12.071 9.83261 12.2621C9.78772 12.3503 9.73851 12.4599 9.77094 12.5344C9.87242 12.7674 10.0043 12.9869 10.1255 13.2113C10.1457 13.2485 10.1715 13.2827 10.2015 13.3288C10.0722 13.3773 10.0134 13.4602 10.0764 13.5704C10.1801 13.752 10.3008 13.9238 10.4134 14.1004C10.436 14.136 10.4629 14.1722 10.4726 14.2118C10.4934 14.2964 10.4862 14.3922 10.5226 14.4679C10.6567 14.7478 10.7992 15.0273 10.9486 15.2993C11.0115 15.4138 11.0988 15.5157 11.1924 15.6493H11.365C11.3808 15.5691 11.4414 15.4605 11.4712 15.3745C11.5505 15.1453 11.8625 14.679 11.8656 14.4593C11.8677 14.3036 11.8478 14.3303 11.8881 14.1895C11.9278 14.0507 12.0654 13.8993 12.0827 13.7542C12.0899 13.6936 11.9587 13.7325 11.9797 13.6779C12.0747 13.4298 12.1779 13.1848 12.2852 12.9218C12.1938 12.9051 12.1463 12.8963 12.0749 12.8832C12.254 12.5753 12.3853 12.2659 12.429 11.9219C12.3497 11.9025 12.2905 11.888 12.221 11.871C12.2332 11.8254 12.2413 11.7877 12.2535 11.7515C12.3228 11.5468 12.4044 11.3453 12.4573 11.1364C12.4774 11.057 12.5012 10.9611 12.4859 10.8726C12.4685 10.8739 12.3825 10.8752 12.3652 10.8765C12.4595 10.6506 12.6452 10.452 12.5823 10.1739Z" fill="#00DBE9"/>
<path d="M11.3762 15.6736L11.3691 15.6642C11.3707 15.6694 11.3724 15.6746 11.3741 15.6807C11.3748 15.6783 11.3755 15.676 11.3762 15.6736Z" fill="#00DBE9"/>
<path d="M15.7521 13.854C15.7117 13.7875 15.6728 13.727 15.6327 13.661C15.9433 13.5684 16.274 13.5531 16.4856 13.3071C16.431 13.2341 16.3901 13.1796 16.3465 13.1212C16.6321 13.0221 16.9201 12.9742 17.1447 12.7453C17.0714 12.6476 17.0063 12.5607 16.9281 12.4562C17.2398 12.3918 17.4773 12.1974 17.6661 11.9528C17.5921 11.8945 17.5343 11.8508 17.4666 11.7975C17.6673 11.7171 17.8401 11.6421 17.961 11.4675C17.8704 11.4103 17.7918 11.361 17.7074 11.3076C18.0109 11.0507 18.1359 10.9452 18.2511 10.834C18.2124 10.8113 18.1455 10.7026 18.1146 10.6845L19.0708 9.64551C18.6091 9.78984 18.1569 9.95995 17.7164 10.1838C17.6996 10.1398 17.68 10.0881 17.6469 10.0013C17.4069 10.1297 17.18 10.251 16.9512 10.3733C16.9348 10.3088 16.9141 10.2272 16.8869 10.12C16.5728 10.2322 16.3314 10.4105 16.1389 10.7043C16.1039 10.5678 16.0739 10.451 16.0394 10.3169C15.7459 10.4365 15.5928 10.6782 15.4313 10.9369C15.3651 10.8338 15.3144 10.7431 15.2479 10.6396C14.9607 10.8247 14.807 11.1137 14.7132 11.421C14.6574 11.3466 14.621 11.2979 14.5712 11.2316C14.2932 11.437 14.1533 11.7307 14.0196 12.0328C13.9809 11.9811 13.9534 11.9444 13.9232 11.904C13.733 11.9864 13.6361 12.1763 13.5388 12.3521C13.5183 12.3891 13.4799 12.444 13.4539 12.4411C13.3266 12.4267 13.3894 12.3285 13.2206 12.5948C13.1262 12.7436 13.0514 12.9031 12.9671 13.0579C12.8853 13.0721 12.7871 13.0941 12.7534 13.1534C12.648 13.3387 12.5669 13.5376 12.4772 13.7318C12.4624 13.7641 12.4525 13.7986 12.4366 13.8419C12.339 13.7795 12.2538 13.7816 12.2114 13.8793C12.1416 14.0403 12.0871 14.2078 12.025 14.3722C12.0125 14.4052 12.0017 14.4415 11.98 14.468C11.9337 14.5244 11.8658 14.5677 11.8332 14.6302C11.7128 14.861 11.5989 15.0956 11.4915 15.3327C11.4463 15.4325 11.4221 15.5421 11.3813 15.6706L11.4682 15.7865C11.5367 15.7517 11.6311 15.7447 11.7038 15.7214C11.8975 15.6594 12.3663 15.6352 12.5155 15.5268C12.6211 15.4499 12.5926 15.4505 12.7074 15.4067C12.8206 15.3635 12.9912 15.38 13.0973 15.3186C13.1415 15.2931 13.0493 15.2246 13.0965 15.2112C13.3109 15.1502 13.5272 15.0964 13.7578 15.0362C13.7231 14.9664 13.705 14.9301 13.6779 14.8756C13.9747 14.8409 14.2484 14.7736 14.5013 14.6299C14.4745 14.5669 14.4545 14.5199 14.431 14.4647C14.4677 14.45 14.497 14.4364 14.5275 14.4264C14.6998 14.3699 14.8761 14.3235 15.043 14.2539C15.1065 14.2275 15.1828 14.1952 15.2344 14.1405C15.2249 14.1295 15.1808 14.0724 15.1713 14.0614C15.3703 14.0112 15.597 14.036 15.7521 13.854Z" fill="#00DBE9"/>
<path d="M11.085 15.6463L11.0911 15.6368C11.09 15.6419 11.0887 15.647 11.0875 15.653C11.0867 15.6506 11.0859 15.6486 11.085 15.6463Z" fill="#00DBE9"/>
<path d="M6.59957 14.1311C6.63529 14.0621 6.66994 13.999 6.70548 13.9304C6.38927 13.8593 6.05828 13.8667 5.83027 13.6359C5.87978 13.5593 5.91681 13.502 5.95638 13.4409C5.66462 13.3616 5.37395 13.3335 5.13426 13.1206C5.20065 13.0181 5.25954 12.927 5.33048 12.8173C5.01507 12.7744 4.76477 12.5968 4.55971 12.3657C4.62944 12.3025 4.68416 12.2549 4.74802 12.1971C4.54229 12.1307 4.36469 12.0677 4.23217 11.9018C4.31857 11.8385 4.39365 11.7839 4.47424 11.7249C4.15372 11.4894 4.02181 11.3927 3.89931 11.2897C3.93637 11.2644 3.99563 11.1514 4.02518 11.1312L3 10.1602C3.47054 10.2726 3.9333 10.4113 4.38812 10.6044C4.40188 10.5593 4.41791 10.5064 4.44493 10.4175C4.69319 10.5291 4.92786 10.6346 5.16453 10.7409C5.17645 10.6755 5.19151 10.5926 5.21126 10.4838C5.53236 10.5742 5.78541 10.7355 5.99763 11.0154C6.02315 10.8768 6.04506 10.7581 6.07028 10.622C6.37134 10.7213 6.54065 10.9519 6.71951 11.1989C6.77855 11.0915 6.82291 10.9975 6.88211 10.8897C7.18139 11.0547 7.35455 11.3324 7.46914 11.6326C7.51969 11.5545 7.55272 11.5034 7.59779 11.4339C7.88918 11.6198 8.04895 11.9032 8.20307 12.1954C8.23815 12.1412 8.2631 12.1026 8.29046 12.0603C8.48588 12.1294 8.59561 12.3122 8.70468 12.4809C8.72763 12.5164 8.76976 12.5686 8.79541 12.5638C8.92139 12.5407 8.85211 12.4472 9.03873 12.7012C9.14318 12.8432 9.22867 12.9972 9.32344 13.1459C9.40598 13.1544 9.5055 13.1696 9.54318 13.2265C9.661 13.4041 9.75561 13.597 9.85834 13.7846C9.87539 13.8158 9.88763 13.8495 9.90638 13.8916C9.99952 13.8227 10.0847 13.8189 10.1336 13.9136C10.2143 14.0693 10.2803 14.2326 10.3534 14.3925C10.3681 14.4246 10.3814 14.46 10.4049 14.4849C10.455 14.5381 10.5257 14.5766 10.5625 14.6367C10.6985 14.8587 10.8281 15.0849 10.9516 15.3141C11.0035 15.4106 11.0352 15.5182 11.0846 15.6436L11.006 15.7653C10.9352 15.7353 10.8406 15.7347 10.7664 15.7165C10.5689 15.6679 10.0996 15.6759 9.94334 15.578C9.83264 15.5086 9.86112 15.5071 9.74364 15.4713C9.62777 15.4361 9.45869 15.4642 9.34861 15.4103C9.30271 15.3878 9.39 15.3131 9.34201 15.303C9.12397 15.2568 8.90447 15.2181 8.67034 15.1738C8.70013 15.1018 8.71563 15.0644 8.73898 15.0081C8.44046 14.9939 8.16278 14.9455 7.90062 14.8195C7.92303 14.7548 7.93984 14.7066 7.9595 14.6498C7.92183 14.6377 7.89164 14.6262 7.86054 14.6183C7.68481 14.5737 7.50569 14.5394 7.3344 14.4816C7.26926 14.4595 7.19092 14.4326 7.13564 14.3815C7.14443 14.3698 7.18443 14.3098 7.19327 14.2983C6.99128 14.2618 6.7668 14.3021 6.59957 14.1311Z" fill="#00DBE9"/>
<path d="M11.5733 15.7784L11.5755 15.7673C11.5727 15.7718 11.5701 15.7764 11.5669 15.7816C11.5691 15.7805 11.5711 15.7795 11.5733 15.7784Z" fill="#00DBE9"/>
<path d="M14.1644 17.0057C14.178 16.9605 14.1894 16.9183 14.2029 16.8734C14.3709 16.9759 14.5122 17.1189 14.7091 17.1143C14.7198 17.0601 14.7279 17.0194 14.7364 16.976C14.8972 17.0647 15.0358 17.1751 15.2303 17.1834C15.2446 17.1106 15.2574 17.0459 15.2727 16.9682C15.4284 17.0826 15.6126 17.1108 15.7997 17.0966C15.7959 17.0395 15.7922 16.9957 15.7887 16.9435C15.9065 17.0014 16.0106 17.0488 16.1384 17.0324C16.1275 16.9683 16.1178 16.9128 16.1075 16.853C16.3468 16.8856 16.4452 16.8991 16.5421 16.9059C16.5366 16.8791 16.5585 16.8048 16.5541 16.7835L17.4113 16.7926C17.1586 16.643 16.8981 16.5082 16.6181 16.4005C16.6312 16.3749 16.6465 16.3452 16.6722 16.2949C16.5168 16.2388 16.3699 16.1858 16.2217 16.1323C16.2442 16.0987 16.2725 16.0561 16.3098 16.0003C16.1316 15.9042 15.9531 15.8678 15.7423 15.9003C15.7897 15.8291 15.8302 15.7681 15.8767 15.698C15.7035 15.6142 15.5322 15.6434 15.3499 15.6757C15.3695 15.6039 15.3898 15.5441 15.4095 15.4721C15.2093 15.4178 15.0164 15.4658 14.8397 15.5484C14.8506 15.493 14.8577 15.4568 14.8675 15.4074C14.6619 15.3656 14.4725 15.4217 14.2819 15.4842C14.2894 15.4458 14.2949 15.4183 14.3008 15.3884C14.1863 15.336 14.0612 15.3694 13.9424 15.397C13.9175 15.4028 13.8771 15.4077 13.8679 15.3948C13.8227 15.3316 13.8924 15.32 13.7037 15.352C13.5982 15.37 13.4959 15.401 13.3918 15.4259C13.3521 15.3948 13.3023 15.3594 13.2619 15.3683C13.1355 15.396 13.0128 15.4403 12.8887 15.4787C12.8681 15.4851 12.8485 15.4948 12.8225 15.5052C12.811 15.4358 12.7754 15.3982 12.7141 15.4188C12.6132 15.4528 12.5154 15.4962 12.416 15.535C12.3961 15.5428 12.3753 15.5527 12.3546 15.5536C12.3103 15.5557 12.2632 15.5426 12.2217 15.5533C12.0687 15.5928 11.9166 15.6368 11.7659 15.6846C11.7025 15.7048 11.6433 15.7384 11.5688 15.7722L11.5518 15.8586C11.5953 15.8753 11.6368 15.915 11.6769 15.9383C11.7836 16.0005 11.985 16.2022 12.0945 16.2254C12.1721 16.2418 12.1603 16.2292 12.2267 16.2632C12.2921 16.2967 12.354 16.3803 12.4248 16.4033C12.4543 16.4129 12.4478 16.3434 12.473 16.3593C12.5876 16.4312 12.6997 16.5069 12.8206 16.5865C12.838 16.5425 12.847 16.5195 12.8606 16.4852C12.9968 16.605 13.1384 16.7011 13.306 16.7568C13.3236 16.7191 13.3366 16.6909 13.352 16.6579C13.3735 16.6685 13.3916 16.6762 13.4084 16.6859C13.5039 16.7407 13.5966 16.8013 13.6958 16.8484C13.7335 16.8663 13.779 16.8876 13.8247 16.8886C13.8258 16.8799 13.8337 16.8367 13.8348 16.828C13.9383 16.8973 14.0192 17.0097 14.1644 17.0057Z" fill="#00DBE9"/>
<path d="M11.0259 15.8768L11.0268 15.8885C11.0283 15.8833 11.0296 15.878 11.0314 15.872C11.0297 15.8736 11.0278 15.8752 11.0259 15.8768Z" fill="#00DBE9"/>
<path d="M7.98924 15.3601C7.98844 15.4108 7.9889 15.4575 7.98815 15.5077C7.78512 15.4511 7.5979 15.345 7.39623 15.4071C7.40107 15.4661 7.40459 15.5103 7.40842 15.5576C7.21693 15.5132 7.04184 15.4398 6.83897 15.488C6.84543 15.5672 6.85113 15.6375 6.85802 15.7221C6.66418 15.6496 6.46619 15.6743 6.27756 15.7435C6.29808 15.8013 6.31481 15.8453 6.33354 15.8981C6.19532 15.8728 6.07416 15.8542 5.94725 15.9085C5.9772 15.9714 6.00346 16.0256 6.03141 16.0843C5.77537 16.1205 5.6701 16.1353 5.56825 16.1566C5.58166 16.1825 5.58078 16.2655 5.59152 16.2861L4.70557 16.5268C5.00962 16.6072 5.31736 16.6702 5.63729 16.6996C5.63125 16.7297 5.62417 16.7649 5.6123 16.8241C5.78881 16.8366 5.95569 16.8484 6.12399 16.8602C6.11065 16.9014 6.09377 16.9536 6.07167 17.0219C6.28331 17.069 6.47792 17.0545 6.68563 16.9595C6.65758 17.0467 6.63359 17.1214 6.60615 17.2071C6.80918 17.243 6.97708 17.163 7.15553 17.0765C7.15627 17.1561 7.15275 17.2237 7.15344 17.3036C7.37566 17.3012 7.56031 17.1955 7.7184 17.0588C7.72326 17.1191 7.72652 17.1585 7.73085 17.2122C7.95499 17.1954 8.13371 17.0823 8.31187 16.9624C8.31531 17.0041 8.31769 17.034 8.32039 17.0666C8.45358 17.0871 8.57272 17.0162 8.6871 16.9531C8.71115 16.9399 8.75133 16.9229 8.76458 16.9336C8.82964 16.9855 8.76111 17.0178 8.94616 16.9298C9.04969 16.8806 9.14612 16.8187 9.24613 16.7628C9.29601 16.7833 9.35773 16.8052 9.39679 16.7842C9.51889 16.7188 9.63245 16.6374 9.74904 16.5616C9.76847 16.5489 9.78581 16.5334 9.80956 16.515C9.84168 16.5832 9.88932 16.6115 9.94644 16.5725C10.0406 16.508 10.1286 16.4348 10.2197 16.3658C10.238 16.3518 10.2565 16.3357 10.2776 16.3286C10.3227 16.3136 10.375 16.3133 10.4147 16.2902C10.5608 16.2048 10.7047 16.1151 10.846 16.0219C10.9054 15.9826 10.9566 15.9308 11.0236 15.8741L11.0159 15.7802C10.9661 15.7757 10.9118 15.7469 10.8637 15.7345C10.7356 15.7015 10.4693 15.5525 10.3497 15.5605C10.2649 15.5663 10.2808 15.5758 10.2025 15.5601C10.1252 15.5447 10.0371 15.4765 9.95742 15.4736C9.92421 15.4723 9.95122 15.542 9.92066 15.533C9.78151 15.4923 9.64391 15.4469 9.49616 15.4002C9.49108 15.4507 9.48846 15.4769 9.48451 15.5162C9.30913 15.4325 9.13519 15.3748 8.94629 15.3663C8.93921 15.4102 8.93392 15.443 8.92778 15.4816C8.9025 15.477 8.88164 15.4743 8.86146 15.4692C8.74708 15.4406 8.6339 15.4052 8.518 15.3856C8.47391 15.3782 8.42072 15.3695 8.37332 15.3818C8.37479 15.3911 8.37922 15.4378 8.38069 15.4472C8.25381 15.4059 8.13769 15.3137 7.98924 15.3601Z" fill="#00DBE9"/>
<path d="M11.1955 15.9792L11.1998 15.9744C11.1972 15.9759 11.1945 15.9772 11.1914 15.9787C11.1928 15.9788 11.1942 15.979 11.1955 15.9792Z" fill="#00DBE9"/>
<path d="M11.9806 17.2025C11.9985 17.1867 12.0147 17.1718 12.0325 17.1561C12.0772 17.2449 12.0997 17.3441 12.1855 17.3947C12.2046 17.3743 12.2188 17.359 12.2341 17.3427C12.2795 17.4236 12.3096 17.5082 12.3909 17.5636C12.4164 17.5362 12.4392 17.5119 12.4666 17.4826C12.5029 17.5733 12.5744 17.6346 12.6586 17.6785C12.6722 17.6529 12.6823 17.6331 12.6947 17.6097C12.7298 17.6661 12.7619 17.7142 12.8211 17.7414C12.8336 17.7109 12.8442 17.6845 12.8558 17.6561C12.9499 17.734 12.9885 17.7661 13.0283 17.7949C13.0331 17.7819 13.0624 17.7558 13.0661 17.7455L13.4317 17.9784C13.3632 17.8466 13.2874 17.7192 13.1959 17.5982C13.2084 17.5907 13.2229 17.5819 13.2474 17.5673C13.1956 17.5017 13.1466 17.4397 13.0973 17.3771C13.116 17.3687 13.1395 17.358 13.1704 17.344C13.1196 17.2551 13.0527 17.1918 12.9535 17.1494C12.9928 17.1315 13.0265 17.1161 13.0652 17.0985C13.0132 17.0162 12.9318 16.983 12.845 16.9481C12.8726 16.9226 12.8972 16.9023 12.9249 16.8767C12.8534 16.7998 12.7578 16.7689 12.6598 16.7572C12.6794 16.7364 12.6921 16.7227 12.7094 16.7041C12.6323 16.6312 12.536 16.6047 12.4374 16.5806C12.451 16.5661 12.4606 16.5558 12.4712 16.5445C12.436 16.4915 12.3734 16.4724 12.315 16.4525C12.3027 16.4483 12.2841 16.4396 12.2835 16.4317C12.281 16.3924 12.3141 16.4061 12.2244 16.3695C12.1743 16.349 12.1221 16.335 12.0708 16.3178C12.0621 16.2939 12.0501 16.2654 12.0304 16.2584C11.9687 16.2366 11.9042 16.2228 11.8406 16.2061C11.83 16.2034 11.819 16.2023 11.8051 16.1998C11.8188 16.167 11.8135 16.1413 11.7816 16.1338C11.7292 16.1214 11.6757 16.1139 11.6226 16.1041C11.612 16.1021 11.6004 16.1008 11.5912 16.0957C11.5717 16.0847 11.555 16.0665 11.5343 16.06C11.458 16.0361 11.3809 16.0144 11.3035 15.9947C11.2709 15.9864 11.2364 15.9851 11.1954 15.9797L11.165 16.0122C11.1792 16.0311 11.1865 16.0592 11.1974 16.0798C11.2266 16.1351 11.2593 16.2755 11.3001 16.3147C11.3291 16.3425 11.3274 16.3339 11.3468 16.3663C11.3659 16.3981 11.3702 16.4505 11.3945 16.4793C11.4045 16.4913 11.4203 16.4597 11.4269 16.4733C11.4569 16.5348 11.4848 16.5972 11.5155 16.6637C11.5347 16.6495 11.5447 16.6419 11.5597 16.6309C11.5862 16.7187 11.6213 16.7978 11.6784 16.8664C11.696 16.855 11.7091 16.8464 11.7245 16.8363C11.731 16.8466 11.7367 16.8548 11.7413 16.8634C11.7676 16.9124 11.7913 16.9632 11.8212 17.0099C11.8327 17.0277 11.8466 17.049 11.866 17.0616C11.8687 17.0582 11.8836 17.0418 11.8865 17.0383C11.9124 17.0957 11.9172 17.1655 11.9806 17.2025Z" fill="#00DBE9"/>
<path d="M11.2577 16.0496L11.2534 16.0449C11.2561 16.0463 11.2586 16.0477 11.2617 16.0492C11.2603 16.0492 11.2591 16.0494 11.2577 16.0496Z" fill="#00DBE9"/>
<path d="M10.4698 17.2725C10.4519 17.2567 10.4357 17.2417 10.4179 17.226C10.3731 17.3149 10.3506 17.414 10.2649 17.4647C10.2458 17.4442 10.2315 17.4289 10.2162 17.4126C10.1708 17.4936 10.1408 17.5781 10.0595 17.6336C10.0339 17.6061 10.0111 17.5818 9.98375 17.5524C9.9475 17.6432 9.87592 17.7045 9.79176 17.7484C9.77813 17.7228 9.76808 17.703 9.75558 17.6796C9.72047 17.736 9.68849 17.7842 9.62917 17.8113C9.61672 17.7808 9.60612 17.7544 9.59449 17.726C9.50045 17.8039 9.46184 17.8359 9.42205 17.8648C9.41722 17.8518 9.38799 17.8258 9.38425 17.8155L9.01855 18.0483C9.08706 17.9165 9.16297 17.7891 9.2544 17.6681C9.24195 17.6606 9.22744 17.6519 9.20299 17.6372C9.25474 17.5716 9.30369 17.5096 9.35299 17.447C9.33439 17.4386 9.31088 17.4279 9.27991 17.4139C9.33076 17.325 9.39766 17.2617 9.49692 17.2194C9.45754 17.2014 9.4239 17.1861 9.38518 17.1684C9.43718 17.0862 9.51853 17.0529 9.6054 17.018C9.57782 16.9925 9.55311 16.9722 9.52545 16.9466C9.59693 16.8697 9.69252 16.8389 9.7905 16.8271C9.771 16.8063 9.75828 16.7926 9.74094 16.774C9.81805 16.7011 9.91437 16.6746 10.0128 16.6506C9.99938 16.6361 9.98974 16.6257 9.97913 16.6144C10.0143 16.5614 10.0769 16.5423 10.1353 16.5224C10.1476 16.5183 10.1663 16.5096 10.1668 16.5016C10.1693 16.4624 10.1363 16.476 10.2259 16.4394C10.276 16.4189 10.3283 16.4049 10.3796 16.3878C10.3883 16.3638 10.4002 16.3353 10.42 16.3283C10.4817 16.3065 10.5461 16.2927 10.6097 16.2761C10.6203 16.2733 10.6313 16.2722 10.6452 16.2697C10.6316 16.2369 10.6369 16.2112 10.6687 16.2037C10.7211 16.1913 10.7746 16.1839 10.8277 16.174C10.8384 16.172 10.8499 16.1707 10.8591 16.1656C10.8787 16.1546 10.8954 16.1364 10.9161 16.1299C10.9923 16.106 11.0694 16.0843 11.1469 16.0646C11.1795 16.0563 11.2139 16.055 11.2549 16.0496L11.2853 16.0821C11.2711 16.101 11.2639 16.129 11.2529 16.1498C11.2237 16.205 11.191 16.3453 11.1502 16.3846C11.1213 16.4124 11.123 16.4038 11.1036 16.4361C11.0844 16.468 11.0802 16.5204 11.0559 16.5492C11.0458 16.5612 11.03 16.5296 11.0234 16.5432C10.9935 16.6047 10.9655 16.6671 10.9348 16.7335C10.9157 16.7193 10.9056 16.7119 10.8907 16.7007C10.8642 16.7886 10.829 16.8677 10.772 16.9363C10.7544 16.9249 10.7412 16.9162 10.7258 16.9062C10.7194 16.9165 10.7138 16.9246 10.709 16.9333C10.6827 16.9823 10.6591 17.0331 10.6291 17.0798C10.6176 17.0976 10.6038 17.1189 10.5844 17.1315C10.5816 17.1281 10.5667 17.1116 10.5639 17.1082C10.5379 17.1656 10.5332 17.2354 10.4698 17.2725Z" fill="#00DBE9"/>
<path d="M11.1045 15.6314C11.1045 15.6314 11.2952 17.4625 11.1045 18.3211C11.1045 18.3211 11.263 18.1099 11.3632 17.8721C11.4633 17.6343 11.3993 15.7048 11.3993 15.7048L11.1045 15.6314Z" fill="#00DBE9"/>
<path d="M11.9922 15.0882H10.4692V16.2905H11.9922V15.0882Z" fill="#00DBE9"/>
</svg>
