<svg width="22" height="22" viewBox="0 0 22 22" fill="none" xmlns="http://www.w3.org/2000/svg">
<path fill-rule="evenodd" clip-rule="evenodd" d="M12.095 4.08618C11.9624 4.72253 11.0314 4.64926 11 4C10.9686 4.64926 10.0376 4.72253 9.90496 4.08618C9.97549 4.73236 9.0674 4.95038 8.83688 4.3426C9.00763 4.9698 8.14482 5.32718 7.82207 4.76295C8.08883 5.35571 7.29255 5.84367 6.8855 5.33688C7.24171 5.88061 6.53157 6.48713 6.05025 6.05025C6.48713 6.53157 5.88061 7.24171 5.33688 6.8855C5.84367 7.29255 5.35571 8.08883 4.76295 7.82207C5.32718 8.14482 4.9698 9.00763 4.3426 8.83688C4.95038 9.0674 4.73236 9.97549 4.08618 9.90496C4.72253 10.0376 4.64926 10.9686 4 11C4.64926 11.0314 4.72253 11.9624 4.08618 12.095C4.73236 12.0245 4.95038 12.9326 4.3426 13.1631C4.9698 12.9924 5.32718 13.8552 4.76295 14.1779C5.35571 13.9112 5.84367 14.7074 5.33688 15.1145C5.88061 14.7583 6.48713 15.4684 6.05025 15.9497C6.53157 15.5129 7.24171 16.1194 6.8855 16.6631C7.29255 16.1563 8.08883 16.6443 7.82207 17.237C8.14482 16.6728 9.00763 17.0302 8.83688 17.6574C9.0674 17.0496 9.97549 17.2676 9.90496 17.9138C10.0376 17.2775 10.9686 17.3507 11 18C11.0314 17.3507 11.9624 17.2775 12.095 17.9138C12.0245 17.2676 12.9326 17.0496 13.1631 17.6574C12.9924 17.0302 13.8552 16.6728 14.1779 17.237C13.9112 16.6443 14.7074 16.1563 15.1145 16.6631C14.7583 16.1194 15.4684 15.5129 15.9497 15.9497C15.5129 15.4684 16.1194 14.7583 16.6631 15.1145C16.1563 14.7074 16.6443 13.9112 17.237 14.1779C16.6728 13.8552 17.0302 12.9924 17.6574 13.1631C17.0496 12.9326 17.2676 12.0245 17.9138 12.095C17.2775 11.9624 17.3507 11.0314 18 11C17.3507 10.9686 17.2775 10.0376 17.9138 9.90496C17.2676 9.97549 17.0496 9.0674 17.6574 8.83688C17.0302 9.00763 16.6728 8.14482 17.237 7.82207C16.6443 8.08883 16.1563 7.29255 16.6631 6.8855C16.1194 7.24171 15.5129 6.53157 15.9497 6.05025C15.4684 6.48713 14.7583 5.88061 15.1145 5.33688C14.7074 5.84367 13.9112 5.35571 14.1779 4.76295C13.8552 5.32718 12.9924 4.9698 13.1631 4.3426C12.9326 4.95038 12.0245 4.73236 12.095 4.08618ZM11.0005 16.74C14.1707 16.74 16.7405 14.1702 16.7405 11C16.7405 7.82992 14.1707 5.26003 11.0005 5.26003C7.83043 5.26003 5.26055 7.82992 5.26055 11C5.26055 14.1702 7.83043 16.74 11.0005 16.74Z" fill="#00DBE9"/>
<path fill-rule="evenodd" clip-rule="evenodd" d="M5.42692 11.0703C4.94863 11.3464 4.78476 11.958 5.0609 12.4363L6.70732 15.288C6.98347 15.7663 7.59506 15.9302 8.07335 15.654L16.49 10.7947C16.9683 10.5186 17.1321 9.90696 16.856 9.42867L15.2096 6.57698C14.9334 6.09869 14.3218 5.93481 13.8435 6.21095L5.42692 11.0703ZM10.5347 8.63131C11.068 8.33254 12.2378 9.77598 12.6174 10.2496C12.3264 10.5632 11.8765 10.9409 11.1778 11.3324C10.4791 11.7238 9.92232 11.9099 9.50268 11.9944C9.29704 11.4231 8.67709 9.67209 9.21025 9.37338C9.3385 9.30152 9.48352 9.29202 9.62059 9.31089C9.75291 9.3292 9.88784 9.30367 10.0046 9.23823C10.1215 9.17278 10.2137 9.07104 10.2672 8.94864C10.3223 8.82124 10.4065 8.70317 10.5347 8.63131ZM13.6304 9.20545C13.6618 9.18459 13.6993 9.17484 13.7369 9.17777L13.737 9.17772C13.7744 9.18064 13.8097 9.19603 13.8372 9.2214C13.8647 9.24678 13.8829 9.28068 13.8887 9.31766C13.8923 9.33979 14.2077 11.5482 11.9937 12.7886C9.77973 14.0291 8.06104 12.6069 8.04405 12.5922C8.01569 12.568 7.99634 12.5349 7.9891 12.4983C7.98185 12.4617 7.98713 12.4237 8.00408 12.3903C8.02103 12.3569 8.04868 12.33 8.08263 12.314C8.11657 12.298 8.15485 12.2938 8.19137 12.302L8.19148 12.302C8.21163 12.3063 9.59683 12.6008 11.3409 11.6237C13.0988 10.6388 13.559 9.30611 13.5636 9.29279C13.5754 9.25708 13.599 9.22632 13.6304 9.20545Z" fill="#00DBE9"/>
</svg>
