<svg width="22" height="22" viewBox="0 0 22 22" fill="none" xmlns="http://www.w3.org/2000/svg">
<path fill-rule="evenodd" clip-rule="evenodd" d="M8.98639 10.0327C8.41766 10.703 8.49012 12.0407 7.73945 12.4548C7.32671 12.6825 6.05337 13.1864 4.35945 14.0304C2.52339 14.9451 0.797107 16.9507 3.29118 16.977C8.27418 17.0295 8.79245 19.6718 9.7866 18.6168C10.6997 17.6477 10.2912 16.6499 10.9745 15.9249C11.6925 15.1628 12.4641 15.2286 12.969 14.9059C14.4744 13.9441 12.3427 14.1288 11.755 13.5874C11.3998 13.2601 11.4095 12.73 12.0812 12.0173C12.7529 11.3044 12.0037 10.4516 11.2955 11.1042C9.1818 13.0516 11.2375 7.38037 8.98639 10.0327Z" fill="#00DBE9"/>
<path fill-rule="evenodd" clip-rule="evenodd" d="M10.2674 12.1488L11.1752 13.0052L17.3159 6.17316L16.7227 5.61345L10.2674 12.1488Z" fill="#00DBE9"/>
<path fill-rule="evenodd" clip-rule="evenodd" d="M18.5707 6.06378C19.0179 5.47894 19.4976 5.07972 19.8528 4.84089C20.5853 4.34823 20.7367 3.82249 19.5754 4.25922L16.7873 5.30757C16.6782 5.3485 16.5848 5.32287 16.5637 5.59697C16.5562 5.694 16.5358 5.80009 16.4851 5.8539L17.0905 6.42399C17.1734 6.33609 17.5106 6.21096 17.8711 6.25586C18.0926 6.2833 18.4556 6.21449 18.5707 6.06378Z" fill="#00DBE9"/>
<path d="M19.1692 4.20271L19.0713 4.23953L19.2431 4.58908L19.341 4.55226L19.1692 4.20271Z" fill="#00DBE9"/>
<path fill-rule="evenodd" clip-rule="evenodd" d="M18.9925 4.31579L18.9329 4.19453C18.9136 4.06938 19.1239 3.99207 19.2138 4.08909L19.2733 4.21021C19.2712 4.29188 19.0617 4.37063 18.9925 4.31579Z" fill="#00DBE9"/>
<path d="M18.718 4.37483L18.6201 4.41162L18.7919 4.76125L18.8898 4.72446L18.718 4.37483Z" fill="#00DBE9"/>
<path fill-rule="evenodd" clip-rule="evenodd" d="M18.5413 4.48526L18.4818 4.36399C18.4625 4.23885 18.6727 4.16154 18.7625 4.25846L18.8221 4.37968C18.8201 4.46135 18.6106 4.54019 18.5413 4.48526Z" fill="#00DBE9"/>
<path d="M18.2673 4.54112L18.1694 4.57794L18.3413 4.92755L18.4391 4.89074L18.2673 4.54112Z" fill="#00DBE9"/>
<path fill-rule="evenodd" clip-rule="evenodd" d="M18.0911 4.65455L18.0315 4.53343C18.0122 4.40829 18.2224 4.33082 18.3123 4.42785L18.3718 4.54896C18.3698 4.63083 18.1602 4.70948 18.0911 4.65455Z" fill="#00DBE9"/>
<path d="M17.8205 4.71253L17.7227 4.74936L17.8945 5.09897L17.9924 5.06214L17.8205 4.71253Z" fill="#00DBE9"/>
<path fill-rule="evenodd" clip-rule="evenodd" d="M17.6404 4.82402L17.5808 4.7028C17.5616 4.57776 17.7718 4.50029 17.8617 4.59732L17.9212 4.71848C17.9191 4.80016 17.7095 4.87895 17.6404 4.82402Z" fill="#00DBE9"/>
<path d="M17.3659 4.88315L17.2681 4.91992L17.4398 5.26949L17.5376 5.23272L17.3659 4.88315Z" fill="#00DBE9"/>
<path fill-rule="evenodd" clip-rule="evenodd" d="M17.1903 4.99346L17.1307 4.87229C17.1114 4.7471 17.3215 4.66974 17.4114 4.76671L17.471 4.88798C17.469 4.96955 17.2594 5.04844 17.1903 4.99346Z" fill="#00DBE9"/>
<path d="M16.9187 5.0537L16.8208 5.09052L16.9926 5.44015L17.0905 5.40334L16.9187 5.0537Z" fill="#00DBE9"/>
<path fill-rule="evenodd" clip-rule="evenodd" d="M16.7395 5.16283L16.68 5.04176C16.6607 4.91662 16.8709 4.83915 16.9608 4.93618L17.0203 5.0573C17.0183 5.13912 16.8086 5.21781 16.7395 5.16283Z" fill="#00DBE9"/>
</svg>
