<svg width="187" height="39" viewBox="0 0 187 39" fill="none" xmlns="http://www.w3.org/2000/svg">
<ellipse cx="22.9643" cy="22.231" rx="14.7382" ry="14.5274" fill="url(#paint0_radial)"/>
<ellipse cx="22.9635" cy="22.231" rx="6.3922" ry="6.30076" fill="url(#paint1_radial)"/>
<mask id="mask0" mask-type="alpha" maskUnits="userSpaceOnUse" x="17" y="16" width="12" height="12">
<rect x="17.5845" y="16.905" width="10.8306" height="10.6756" rx="5.33782" fill="#C4C4C4"/>
</mask>
<g mask="url(#mask0)">
<path d="M27.915 22.2428C27.915 24.9079 25.7212 27.0807 22.9997 27.0807C20.2783 27.0807 18.0845 24.9079 18.0845 22.2428C18.0845 19.5778 20.2783 17.405 22.9997 17.405C25.7212 17.405 27.915 19.5778 27.915 22.2428Z" stroke="#651558"/>
</g>
<path fill-rule="evenodd" clip-rule="evenodd" d="M37.7025 22.231C37.7025 30.2543 31.104 36.7584 22.9643 36.7584C14.8246 36.7584 8.22607 30.2543 8.22607 22.231C8.22607 14.2077 14.8246 7.70355 22.9643 7.70355C31.104 7.70355 37.7025 14.2077 37.7025 22.231ZM29.3313 22.231C29.3313 25.6977 26.4803 28.508 22.9633 28.508C19.4463 28.508 16.5952 25.6977 16.5952 22.231C16.5952 18.7643 19.4463 15.954 22.9633 15.954C26.4803 15.954 29.3313 18.7643 29.3313 22.231ZM16.9085 25.2031C18.3799 27.6204 22.6446 31.3232 27.932 26.7961C28.0888 26.6376 28.4603 26.3682 28.6919 26.5584C28.9813 26.7961 28.8004 27.1171 28.5954 27.3073C28.3903 27.4975 28.2094 27.9255 28.4024 28.0444C28.5954 28.1633 28.8486 28.2822 29.1863 28.0444C29.4565 27.8542 30.2316 26.8793 30.5854 26.4157C30.714 26.2532 31.0437 25.9663 31.3332 26.1185C31.695 26.3087 31.6226 26.6297 31.4779 26.7961C31.3621 26.9293 31.1241 27.232 31.0196 27.3668C30.8507 27.5491 30.5782 27.9683 30.8387 28.1871C31.1643 28.4605 31.5141 28.1871 31.6226 28.0444C31.7095 27.9303 32.8408 26.3959 33.3956 25.643C33.5242 25.429 33.8611 25.0533 34.1795 25.2626C34.5775 25.5241 34.469 25.8926 34.3242 26.1185C34.2084 26.2992 33.6569 27.2796 33.3956 27.7472C33.2428 27.9929 33.0289 28.5437 33.3956 28.7815C33.7622 29.0192 34.1674 28.4843 34.3242 28.1871C34.8348 27.2003 35.8777 25.127 35.9645 24.7276C36.073 24.2283 36.2781 24.1807 36.3987 24.2045C36.5193 24.2283 36.7846 24.3234 36.6881 24.6562C36.6819 24.6779 36.6726 24.7282 36.6587 24.8042C36.4582 25.8965 35.2842 32.2931 27.932 35.0941C20.0684 38.09 14.6652 33.8102 12.639 31.4801C12.2611 31.0759 11.6187 30.1938 12.0721 29.899C12.543 29.5928 12.8308 29.7543 13.0046 29.8518C13.0401 29.8717 13.0708 29.8889 13.0973 29.899C13.9737 31.1195 16.2886 33.6723 18.5367 34.1193C18.8463 34.2025 19.4847 34.2358 19.5619 33.7032C19.5337 33.5883 19.3834 33.3275 19.0071 33.2039C17.4151 32.5382 13.9705 30.5243 12.9285 27.7947C12.8561 27.6006 12.7886 27.1932 13.0973 27.1171C13.4061 27.041 13.628 27.2281 13.7003 27.3311C14.428 28.3733 16.1993 30.617 17.4633 31.2542C17.6402 31.3216 18.0229 31.3565 18.1387 30.957C18.1709 30.8579 18.117 30.5837 17.6442 30.2794C17.0532 29.899 14.5687 27.7947 14.0863 25.9758C14.0179 25.7619 13.985 25.3267 14.3999 25.2982C14.8148 25.2697 14.9667 25.4845 14.9908 25.5954C15.1396 26.063 15.7314 27.2788 16.9085 28.401C17.0492 28.5279 17.3934 28.7054 17.6442 28.401C17.8951 28.0967 17.4512 27.5609 17.198 27.3311C16.7919 26.8199 15.9509 25.6454 15.8351 25.0367C15.7193 24.428 16.0522 24.3947 16.2331 24.4541C16.3979 24.5057 16.7638 24.7276 16.9085 25.2031Z" fill="url(#paint2_radial)"/>
<path d="M39.2525 22.1834C39.2525 31.013 31.9782 38.1843 22.9881 38.1843C13.998 38.1843 6.72363 31.013 6.72363 22.1834C6.72363 13.3538 13.998 6.18256 22.9881 6.18256C31.9782 6.18256 39.2525 13.3538 39.2525 22.1834Z" stroke="#EA4CD1"/>
<path fill-rule="evenodd" clip-rule="evenodd" d="M44.2427 24.3471C44.3993 23.3155 44.4804 22.2595 44.4804 21.1848C44.4804 9.48477 34.8634 0 23.0002 0C11.137 0 1.52002 9.48477 1.52002 21.1848C1.52002 21.6079 1.53259 22.0281 1.55739 22.445C1.55739 22.445 1.91225 22.4855 2.56292 22.5516C2.80032 11.6195 11.8599 2.82934 23.0011 2.82934C34.2915 2.82934 43.4441 11.8564 43.4441 22.9918C43.4441 23.4284 43.43 23.8617 43.4023 24.2914C43.9469 24.3261 44.2427 24.3471 44.2427 24.3471Z" fill="url(#paint3_linear)"/>
<ellipse cx="44.794" cy="22.1834" rx="1.20607" ry="1.18882" fill="url(#paint4_radial)"/>
<path d="M40.2474 16.2512C39.929 16.2512 40.0102 16.4811 40.0906 16.596C42.3822 22.5401 40.175 27.7709 40.0786 27.9611C40.0014 28.1133 40.159 28.1672 40.2474 28.1751H42.1289C43.1219 28.183 45.0886 27.0053 45.0114 22.231C44.9342 17.4567 43.0576 16.2552 42.1289 16.2512H40.2474Z" fill="url(#paint5_radial)"/>
<ellipse cx="1.20652" cy="22.2073" rx="1.20607" ry="1.18882" transform="rotate(-180 1.20652 22.2073)" fill="url(#paint6_radial)"/>
<path d="M5.75357 28.1395C6.07198 28.1395 5.99077 27.9096 5.91036 27.7947C3.61882 21.8506 5.82594 16.6198 5.92242 16.4296C5.99961 16.2774 5.84202 16.2235 5.75357 16.2156H3.8721C2.87909 16.2076 0.912389 17.3854 0.989577 22.1597C1.06677 26.934 2.94342 28.1355 3.8721 28.1395H5.75357Z" fill="url(#paint7_radial)"/>
<path d="M56.9224 8.392C59.5171 8.392 61.5051 9.02667 62.8864 10.296C64.2864 11.5467 64.9864 13.2267 64.9864 15.336C64.9864 16.512 64.7344 17.6693 64.2304 18.808C63.7451 19.9467 62.9144 20.852 61.7384 21.524L66.5264 29H61.7944L57.4544 22.448H54.7384V29H50.6784V8.392H56.9224ZM57.6224 18.528C58.4438 18.528 59.0784 18.36 59.5264 18.024C59.9931 17.6693 60.3198 17.2587 60.5064 16.792C60.6931 16.3067 60.7864 15.868 60.7864 15.476C60.7864 15.252 60.7491 14.972 60.6744 14.636C60.6184 14.2813 60.4878 13.9267 60.2824 13.572C60.0771 13.2173 59.7598 12.9187 59.3304 12.676C58.9198 12.4333 58.3598 12.312 57.6504 12.312H54.7384V18.528H57.6224ZM64.1898 29L73.4858 7.58H73.7098L83.0058 29H78.3018L76.7058 24.968H69.8738L68.1938 29H64.1898ZM71.3018 21.552H75.3618L73.3738 16.54L71.3018 21.552ZM82.6498 29V8.392H88.8098C90.8818 8.392 92.6458 8.7 94.1018 9.316C95.5578 9.932 96.7245 10.7533 97.6018 11.78C98.4978 12.8067 99.1512 13.9547 99.5618 15.224C99.9725 16.4933 100.178 17.772 100.178 19.06C100.178 20.5907 99.8978 21.972 99.3378 23.204C98.7965 24.4173 98.0498 25.4627 97.0978 26.34C96.1458 27.1987 95.0445 27.8613 93.7938 28.328C92.5432 28.776 91.2178 29 89.8178 29H82.6498ZM86.7098 25.08H89.1178C91.1712 25.08 92.8232 24.548 94.0738 23.484C95.3432 22.42 95.9778 20.852 95.9778 18.78C95.9778 17.436 95.7538 16.344 95.3058 15.504C94.8765 14.6453 94.3352 13.9827 93.6818 13.516C93.0472 13.0493 92.3938 12.732 91.7218 12.564C91.0498 12.3773 90.4805 12.284 90.0138 12.284H86.7098V25.08ZM100.891 8.392H104.951V29H100.891V8.392ZM105.65 18.724C105.65 17.3053 105.921 15.9613 106.462 14.692C107.004 13.4227 107.75 12.3027 108.702 11.332C109.673 10.3427 110.793 9.568 112.062 9.008C113.332 8.448 114.694 8.168 116.15 8.168C117.588 8.168 118.941 8.448 120.21 9.008C121.48 9.568 122.6 10.3427 123.57 11.332C124.56 12.3027 125.325 13.4227 125.866 14.692C126.426 15.9613 126.706 17.3053 126.706 18.724C126.706 20.18 126.426 21.5427 125.866 22.812C125.325 24.0813 124.56 25.2013 123.57 26.172C122.6 27.124 121.48 27.8707 120.21 28.412C118.941 28.9533 117.588 29.224 116.15 29.224C114.694 29.224 113.332 28.9533 112.062 28.412C110.793 27.8707 109.673 27.124 108.702 26.172C107.75 25.2013 107.004 24.0813 106.462 22.812C105.921 21.5427 105.65 20.18 105.65 18.724ZM109.85 18.724C109.85 19.9373 110.13 21.048 110.69 22.056C111.269 23.0453 112.044 23.8387 113.014 24.436C113.985 25.0147 115.077 25.304 116.29 25.304C117.466 25.304 118.521 25.0147 119.454 24.436C120.406 23.8387 121.153 23.0453 121.694 22.056C122.236 21.048 122.506 19.9373 122.506 18.724C122.506 17.4733 122.226 16.3533 121.666 15.364C121.106 14.356 120.35 13.5627 119.398 12.984C118.446 12.3867 117.373 12.088 116.178 12.088C114.984 12.088 113.91 12.3867 112.958 12.984C112.006 13.5627 111.25 14.356 110.69 15.364C110.13 16.3533 109.85 17.4733 109.85 18.724ZM133.14 8.392H137.2V25.08H146.888V29H133.14V8.392ZM147.717 8.392H151.777V29H147.717V8.392ZM156.844 8.392L161.548 20.012L165.972 8.392H170.788L161.38 29.952L151.972 8.392H156.844ZM170.993 8.392H185.049V12.312H175.053V16.708H183.901V20.628H175.053V25.08H185.441V29H170.993V8.392Z" fill="#5BC4D2"/>
<defs>
<radialGradient id="paint0_radial" cx="0" cy="0" r="1" gradientUnits="userSpaceOnUse" gradientTransform="translate(22.9643 21.0627) rotate(90) scale(15.6957 15.9235)">
<stop stop-color="#B738A3"/>
<stop offset="0.604167" stop-color="#962785"/>
<stop offset="1" stop-color="#610A53"/>
</radialGradient>
<radialGradient id="paint1_radial" cx="0" cy="0" r="1" gradientUnits="userSpaceOnUse" gradientTransform="translate(22.9635 21.7243) rotate(90) scale(6.80747 6.90626)">
<stop stop-color="#E98FDA"/>
<stop offset="1" stop-color="#721563"/>
</radialGradient>
<radialGradient id="paint2_radial" cx="0" cy="0" r="1" gradientUnits="userSpaceOnUse" gradientTransform="translate(22.9643 22.231) rotate(90) scale(14.5274 14.7382)">
<stop stop-color="#FFDEDE"/>
<stop offset="0.479167" stop-color="#F2B0B0"/>
<stop offset="1" stop-color="#A40E8B"/>
</radialGradient>
<linearGradient id="paint3_linear" x1="13.4119" y1="-1.13828e-06" x2="25.2605" y2="34.392" gradientUnits="userSpaceOnUse">
<stop stop-color="#FFE4BC"/>
<stop offset="0.338542" stop-color="#FFB629"/>
<stop offset="1" stop-color="#513A00"/>
</linearGradient>
<radialGradient id="paint4_radial" cx="0" cy="0" r="1" gradientUnits="userSpaceOnUse" gradientTransform="translate(45.4935 21.6365) rotate(128.559) scale(2.5541 2.56257)">
<stop stop-color="#5BC4D2"/>
<stop offset="0.317708" stop-color="#438E98"/>
<stop offset="1" stop-color="#32676F"/>
</radialGradient>
<radialGradient id="paint5_radial" cx="0" cy="0" r="1" gradientUnits="userSpaceOnUse" gradientTransform="translate(41.2484 16.7386) rotate(69.2066) scale(9.10502 3.8009)">
<stop stop-color="#A8EEB7"/>
<stop offset="0.614583" stop-color="#268E3D"/>
</radialGradient>
<radialGradient id="paint6_radial" cx="0" cy="0" r="1" gradientUnits="userSpaceOnUse" gradientTransform="translate(1.49598 22.4927) rotate(-171.377) scale(1.90299 1.877)">
<stop stop-color="#A8E8E4"/>
<stop offset="1" stop-color="#0D342D"/>
</radialGradient>
<radialGradient id="paint7_radial" cx="0" cy="0" r="1" gradientUnits="userSpaceOnUse" gradientTransform="translate(2.89518 17.5946) rotate(82.981) scale(9.86987 4.13323)">
<stop stop-color="#A8EEB7"/>
<stop offset="0.368518" stop-color="#55C15A"/>
<stop offset="1" stop-color="#00681D"/>
</radialGradient>
</defs>
</svg>
