<svg width="23" height="22" viewBox="0 0 23 22" fill="none" xmlns="http://www.w3.org/2000/svg">
<path d="M10.5643 5.06028C9.41633 5.2254 8.30504 5.69194 7.36149 6.47036L9.39012 8.49899C10.1187 7.56069 10.525 6.37077 10.5643 5.06028V5.06028ZM11.5 10.6089L15.6385 6.47036C14.5272 5.55302 13.1853 5.06815 11.825 5C11.7935 6.6748 11.2615 8.20544 10.2865 9.39536L11.5 10.6089ZM6.47036 7.36149C5.69194 8.30504 5.2254 9.41633 5.06028 10.5643C6.37077 10.525 7.56331 10.1187 8.49899 9.39012L6.47036 7.36149ZM13.6046 12.7135C14.7919 11.7411 16.3226 11.2091 18 11.175C17.9319 9.81472 17.447 8.47278 16.5296 7.36149L12.3911 11.5L13.6046 12.7135V12.7135ZM11.5 12.3911L7.36149 16.5296C8.47278 17.4444 9.81472 17.9319 11.175 18C11.2091 16.3226 11.7411 14.7919 12.7135 13.6046L11.5 12.3911ZM16.5296 15.6385C17.3081 14.695 17.7746 13.5837 17.9397 12.4357C16.6266 12.4776 15.4367 12.8839 14.501 13.6099L16.5296 15.6385ZM9.39536 10.2865C8.20544 11.2615 6.6748 11.7962 5 11.825C5.06815 13.1853 5.55302 14.5272 6.47036 15.6385L10.6089 11.5L9.39536 10.2865ZM12.4357 17.9397C13.5837 17.7746 14.695 17.3081 15.6385 16.5296L13.6099 14.501C12.8839 15.4367 12.4776 16.6292 12.4357 17.9397Z" fill="#00DBE9"/>
</svg>
