<svg width="25" height="25" viewBox="0 0 25 25" fill="none" xmlns="http://www.w3.org/2000/svg">
<path d="M8.71429 17.875C8.71429 18.1734 8.82717 18.4595 9.0281 18.6705C9.22903 18.8815 9.50155 19 9.78571 19H16.2143C16.4984 19 16.771 18.8815 16.9719 18.6705C17.1728 18.4595 17.2857 18.1734 17.2857 17.875V10H8.71429V17.875ZM14.7857 11.875C14.7857 11.7755 14.8233 11.6802 14.8903 11.6098C14.9573 11.5395 15.0481 11.5 15.1429 11.5C15.2376 11.5 15.3284 11.5395 15.3954 11.6098C15.4624 11.6802 15.5 11.7755 15.5 11.875V17.125C15.5 17.2245 15.4624 17.3198 15.3954 17.3902C15.3284 17.4605 15.2376 17.5 15.1429 17.5C15.0481 17.5 14.9573 17.4605 14.8903 17.3902C14.8233 17.3198 14.7857 17.2245 14.7857 17.125V11.875ZM12.6429 11.875C12.6429 11.7755 12.6805 11.6802 12.7475 11.6098C12.8144 11.5395 12.9053 11.5 13 11.5C13.0947 11.5 13.1856 11.5395 13.2525 11.6098C13.3195 11.6802 13.3571 11.7755 13.3571 11.875V17.125C13.3571 17.2245 13.3195 17.3198 13.2525 17.3902C13.1856 17.4605 13.0947 17.5 13 17.5C12.9053 17.5 12.8144 17.4605 12.7475 17.3902C12.6805 17.3198 12.6429 17.2245 12.6429 17.125V11.875ZM10.5 11.875C10.5 11.7755 10.5376 11.6802 10.6046 11.6098C10.6716 11.5395 10.7624 11.5 10.8571 11.5C10.9519 11.5 11.0427 11.5395 11.1097 11.6098C11.1767 11.6802 11.2143 11.7755 11.2143 11.875V17.125C11.2143 17.2245 11.1767 17.3198 11.1097 17.3902C11.0427 17.4605 10.9519 17.5 10.8571 17.5C10.7624 17.5 10.6716 17.4605 10.6046 17.3902C10.5376 17.3198 10.5 17.2245 10.5 17.125V11.875ZM17.6429 7.75H14.9643L14.7545 7.31172C14.71 7.21802 14.6416 7.1392 14.5568 7.08413C14.472 7.02907 14.3742 6.99993 14.2746 7H11.7232C11.6237 6.9996 11.5262 7.02863 11.4417 7.08376C11.3572 7.13889 11.2892 7.2179 11.2455 7.31172L11.0357 7.75H8.35714C8.26242 7.75 8.17158 7.78951 8.1046 7.85984C8.03763 7.93016 8 8.02555 8 8.125V8.875C8 8.97446 8.03763 9.06984 8.1046 9.14017C8.17158 9.21049 8.26242 9.25 8.35714 9.25H17.6429C17.7376 9.25 17.8284 9.21049 17.8954 9.14017C17.9624 9.06984 18 8.97446 18 8.875V8.125C18 8.02555 17.9624 7.93016 17.8954 7.85984C17.8284 7.78951 17.7376 7.75 17.6429 7.75V7.75Z" fill="#00DBE9"/>
</svg>
