<svg width="39" height="39" viewBox="0 0 39 39" fill="none" xmlns="http://www.w3.org/2000/svg">
<circle cx="19.5" cy="19.5" r="19.5" fill="#DE3D4F"/>
<path d="M26.9757 16.1901C26.9873 16.3529 26.9873 16.5158 26.9873 16.6786C26.9873 21.6449 23.2073 27.3673 16.2986 27.3673C14.1702 27.3673 12.193 26.7508 10.5298 25.6808C10.8322 25.7157 11.1229 25.7273 11.437 25.7273C13.1932 25.7273 14.8099 25.1342 16.1009 24.1223C14.4493 24.0874 13.0653 23.0057 12.5884 21.517C12.821 21.5519 13.0536 21.5751 13.2979 21.5751C13.6352 21.5751 13.9725 21.5286 14.2865 21.4472C12.5652 21.0983 11.2741 19.5863 11.2741 17.7603V17.7138C11.7742 17.9929 12.3558 18.1674 12.9722 18.1906C11.9603 17.516 11.2974 16.3646 11.2974 15.0619C11.2974 14.3641 11.4835 13.7244 11.8091 13.1661C13.6584 15.4457 16.4382 16.9344 19.5552 17.0973C19.4971 16.8182 19.4622 16.5274 19.4622 16.2367C19.4622 14.1664 21.137 12.4799 23.2189 12.4799C24.3005 12.4799 25.2775 12.9335 25.9637 13.6663C26.8128 13.5034 27.6269 13.1894 28.3481 12.7591C28.0689 13.6314 27.4757 14.3641 26.6965 14.8293C27.4525 14.7479 28.1852 14.5385 28.8598 14.2478C28.3481 14.9921 27.7084 15.6551 26.9757 16.1901V16.1901Z" fill="#00DBE9"/>
</svg>
